<svg width="1163" height="163" viewBox="0 0 1163 163" fill="none" xmlns="http://www.w3.org/2000/svg">
<path d="M404.965 50.6761C405.755 50.0915 407.599 47.6782 409.066 45.3126C411.045 42.1178 412.26 41.0419 413.793 41.1303C417.038 41.3174 418.768 43.8947 417.862 47.1944C416.736 51.2917 416.618 51.3608 412.19 50.489C408.751 49.8124 407.784 49.9917 405.779 51.6742C404.481 52.7636 403.444 53.2232 403.474 52.6964C403.504 52.1686 404.175 51.2598 404.965 50.6761Z" fill="black"/>
<path fill-rule="evenodd" clip-rule="evenodd" d="M366.441 12.1062C364.833 13.2445 362.461 25.8614 364.014 25.019C365.568 24.1749 365.786 26.227 364.659 31.1061C364.045 33.7687 362.789 40.8418 361.868 46.8249C360.452 56.0161 359.851 58.0383 357.991 59.8626C356.78 61.0503 354.97 63.2855 353.969 64.8292C352.46 67.1566 352.337 67.8921 353.244 69.127C354.15 70.3609 354.06 70.9574 352.72 72.5868C351.83 73.6695 350.012 75.8914 348.681 77.524C345.863 80.9796 344.923 87.4608 347.219 87.5932C349.24 87.7097 348.791 89.1115 346.263 90.5708C344.844 91.3917 343.957 92.7865 343.815 94.4218C343.692 95.8332 343.523 97.6005 343.439 98.3501C342.693 104.987 345.141 110.841 348.321 110.027C349.844 109.637 349.923 110.308 349.286 118.311C348.51 128.05 348.055 128.602 342.041 127.108L338.89 126.324L340.397 129.315C341.227 130.96 342.406 132.538 343.016 132.822C345.106 133.796 344.039 134.757 338.924 136.504C334.819 137.906 333.552 138.016 332.53 137.061C331.509 136.105 330.66 136.173 328.258 137.4C326.61 138.243 325.084 139.376 324.869 139.919C324.344 141.237 330.239 149.579 333.957 152.778L336.931 155.337L337.168 149.762C337.298 146.697 336.999 143.006 336.501 141.561C336.436 141.37 336.373 141.191 336.315 141.022C335.829 139.623 335.599 138.963 335.83 138.588C336.037 138.254 336.611 138.147 337.698 137.945C337.845 137.917 338.001 137.888 338.167 137.857C341.716 137.18 363.219 129.695 373.287 125.633C387.288 119.984 411.207 106.707 419.434 100.017C425.904 94.7566 426.398 94.5199 427.924 95.9459C429.1 97.0463 428.51 97.8975 423.201 102.75C414.625 110.59 419.995 107.828 429.651 99.4339C439.02 91.2884 440.4 88.9608 439.113 83.4696C435.545 68.2384 432.18 64.9459 417.937 62.7473C412.021 61.8346 391.188 64.3201 386.26 66.5263C383.054 67.9612 372.234 67.4425 373.243 65.903C375.809 61.9893 380.595 57.7582 386.626 54.0708C390.494 51.7057 393.496 49.5859 393.295 49.3603C393.095 49.1348 390.838 49.867 388.279 50.9871C385.246 52.3158 381.641 55.1315 377.922 59.0793C374.784 62.4085 371.916 65.1432 371.549 65.1559C371.182 65.1686 370.696 64.0358 370.47 62.6399C370.244 61.244 369.901 59.3558 369.71 58.4439C368.935 54.7639 390.477 39.1403 401.683 35.2538C404.531 34.2656 406.045 33.41 405.045 33.3523C402.138 33.1847 393.47 36.5197 387.331 40.167C380.159 44.4279 379.311 44.8574 379.349 44.2102C379.365 43.9194 382.579 41.8402 386.492 39.5891C395.567 34.3661 403.109 31.9576 407.203 32.9747L410.256 33.7342L409.402 38.1956C408.933 40.6498 408.756 42.669 409.011 42.6837C409.842 42.7316 412.553 37.535 412.659 35.6891C412.796 33.3227 408.822 29.8606 405.815 29.7265C400.144 29.4746 376.866 39.8362 376.702 42.6857C376.671 43.2262 376.245 43.3873 375.755 43.0436C375.265 42.6989 375.059 42.1383 375.298 41.7972C375.536 41.4561 376.507 36.16 377.455 30.0285C379.179 18.8823 379.179 18.8805 377.171 16.4582C374.974 13.8091 371.113 11.2324 369.169 11.1203C368.49 11.0812 367.262 11.5253 366.441 12.1062ZM365.232 37.7973C365.295 35.7467 365.635 33.811 365.988 33.4966C367.143 32.4648 367.18 33.4666 366.141 37.5259L365.117 41.5248L365.232 37.7973ZM370.213 52.4532C369.185 52.8787 370.486 51.4794 373.102 49.3438C375.719 47.2083 378.053 45.4716 378.29 45.4853C379.167 45.5358 372.013 51.7074 370.213 52.4532ZM391.415 72.1143C384.847 72.7655 389.353 71.0049 398.185 69.4683C407.81 67.7935 422.366 68.8358 426.86 71.5222C428.48 72.4909 429.622 73.4475 429.398 73.6477C429.174 73.8479 426.636 73.4326 423.757 72.7252C420.139 71.8362 415.672 71.5539 409.297 71.8101C404.223 72.0141 399.052 72.0736 397.806 71.9432C396.56 71.8119 393.684 71.8894 391.415 72.1143ZM371.702 81.9645C377.923 79.2457 389.543 76.0195 398.57 74.506C406.039 73.2529 410.536 73.6348 413.636 75.7853C416.611 77.85 418.386 82.3341 415.681 80.9516C414.864 80.5342 410.738 79.689 406.511 79.074L398.827 77.955L407.161 78.5691C413.08 79.0055 415.068 78.8933 414.021 78.1835C411.173 76.2533 398.475 76.4732 390.129 78.5977C385.804 79.6982 381.213 80.6682 379.928 80.7523C376.813 80.9568 367.117 85.234 358.75 90.0927C353.957 92.8765 351.852 93.6734 351.578 92.8097C351.196 91.607 357.862 88.0148 371.702 81.9645ZM355.989 76.1043C355.397 74.8702 354.928 73.3479 354.946 72.7197C354.982 71.488 357.351 71.2716 357.983 72.443C358.195 72.8347 358.074 74.324 357.716 75.7521L357.064 78.3485L355.989 76.1043ZM364.47 104.136C365.912 101.186 390.93 90.5561 400.373 88.88C405.426 87.9842 406.25 88.0958 405.547 89.5844C405.317 90.0724 404.985 90.7755 404.684 91.4147L404.267 92.2982C403.83 93.2251 405.209 92.8546 408.475 91.169C411.146 89.7902 414.437 88.7544 415.787 88.867C417.885 89.0428 417.977 89.1597 416.425 89.6683C414.694 90.2344 414.684 90.3115 416.199 91.2805C417.668 92.2213 417.672 92.4949 416.24 94.8634C409.431 106.124 393.376 116.422 377.739 119.559C373.427 120.424 368.301 121.462 366.347 121.866C363.703 122.412 362.638 122.309 362.182 121.462C361.814 120.781 360.649 120.5 359.281 120.762C357.057 121.187 356.997 121.054 357.112 115.889C357.178 112.968 357.077 109.278 356.889 107.691C356.694 106.043 356.988 104.564 357.572 104.246C358.137 103.94 358.573 104.124 358.542 104.654C358.512 105.185 359.1 105.655 359.85 105.698C360.931 105.761 361.137 107.093 360.845 112.158C360.642 115.667 360.827 118.559 361.255 118.583C361.682 118.608 362.434 115.668 362.924 112.049C363.415 108.43 364.111 104.869 364.47 104.136ZM353.308 124.742C350.572 126.473 350.453 124.558 352.644 114.009C353.422 110.26 354.451 107.216 354.93 107.244C356.105 107.312 354.563 123.948 353.308 124.742ZM353.655 126.168C355.434 125.755 361.464 124.339 367.056 123.021C382.327 119.419 382.379 119.628 367.756 125.747C358.051 129.808 354.209 130.622 355.853 128.269C356.167 127.819 355.073 127.331 353.423 127.184L350.421 126.918L353.655 126.168ZM358.745 123.926C357.966 123.881 357.605 123.449 357.942 122.965C358.28 122.482 358.941 122.108 359.412 122.135C359.882 122.162 360.243 122.595 360.214 123.096C360.185 123.598 359.524 123.971 358.745 123.926Z" fill="black"/>
<path fill-rule="evenodd" clip-rule="evenodd" d="M358.745 123.926C357.966 123.881 357.605 123.449 357.942 122.965C358.28 122.482 358.941 122.108 359.412 122.135C359.882 122.162 360.243 122.595 360.214 123.096C360.185 123.598 359.524 123.971 358.745 123.926Z" fill="black"/>
<path d="M520.832 25.4469C520.223 25.7946 519.725 25.5911 519.725 24.9958C519.725 24.4006 520.223 23.9128 520.832 23.9128C521.441 23.9128 521.939 24.1153 521.939 24.3638C521.939 24.6123 521.441 25.0992 520.832 25.4469Z" fill="black"/>
<path d="M518.618 47.9473C518.009 48.295 517.511 47.8614 517.511 46.9849C517.511 46.1084 518.009 45.3904 518.618 45.3904C519.227 45.3904 519.725 45.823 519.725 46.3528C519.725 46.8826 519.227 47.5995 518.618 47.9473Z" fill="black"/>
<path d="M474.393 52.1037C473.398 50.9951 473.382 50.1022 474.332 48.4617C475.796 45.9366 479.589 46.0266 481.353 48.6284C483.759 52.1743 477.337 55.3806 474.393 52.1037Z" fill="black"/>
<path d="M535.053 115.96C532.701 115.96 532.428 114.861 534.339 113.096C535.069 112.421 536.89 111.869 538.385 111.869C541.033 111.869 541.051 111.922 539.099 113.914C537.998 115.039 536.176 115.96 535.053 115.96Z" fill="black"/>
<path fill-rule="evenodd" clip-rule="evenodd" d="M536.331 10.1875C530.351 11.9558 522.373 16.9908 522.797 18.7274C522.964 19.4127 522.608 19.6919 522.005 19.3472C519.6 17.9747 509.629 32.9886 504.776 45.2912C502.327 51.4972 500.84 53.9641 499.722 53.6757C494.58 52.3502 492.326 52.4515 491.667 54.0367C491.144 55.2957 492.126 56.1671 495.611 57.5345L500.254 59.356L499.958 73.0833C499.641 87.7914 502.018 100.794 506.512 108.932C508.934 113.317 514.052 117.006 519.019 117.944C521.451 118.404 522.487 119.186 522.489 120.561C522.494 123.135 527.427 125.656 530.872 124.845C538.681 123.006 551.959 107.555 561.801 88.8571C565.354 82.107 569.065 73.5926 570.046 69.9363C572.563 60.5577 573.346 48.1344 571.941 39.8533C570.742 32.783 570.742 32.78 574.071 29.2781C576.814 26.3909 577.159 25.5062 576.025 24.2441C575.157 23.2777 573.573 22.9125 571.728 23.2531C569.079 23.743 568.806 23.5006 568.806 20.6656C568.806 18.9157 568.057 17.1494 567.106 16.6585C566.171 16.1747 564.779 14.3798 564.012 12.6708C562.987 10.3829 562.257 9.83777 561.255 10.6058C560.313 11.3289 558.434 11.1755 555.169 10.1108C553.101 8.06289 541.749 9.30865 536.331 10.1875ZM537.363 19.92C538.583 18.3358 541.197 16.3179 543.171 15.4352C547.232 13.6178 548.509 13.9482 548.509 16.8139C548.509 17.9062 548.951 18.799 549.491 18.799C550.031 18.799 550.737 20.0652 551.061 21.6116C551.385 23.158 552.236 26.4952 552.951 29.0265C556.477 41.4907 547.953 77.1323 538.051 91.3301C533.142 98.3686 533.185 98.3502 533.813 93.2027C534.139 90.5201 533.649 86.8321 532.576 83.9121C530.237 77.5486 530.195 60.929 532.498 53.7626C534.183 48.5221 534.793 47.7039 539.099 44.9036C541.499 43.3439 541.608 43.6364 535.886 36.2144L532.672 32.0467L535.293 29.4704C537.538 27.2633 537.714 26.6016 536.528 24.8465C535.365 23.1263 535.498 22.3388 537.363 19.92ZM520.832 25.4469C520.223 25.7946 519.725 25.5911 519.725 24.9958C519.725 24.4006 520.223 23.9128 520.832 23.9128C521.441 23.9128 521.939 24.1153 521.939 24.3638C521.939 24.6123 521.441 25.0992 520.832 25.4469ZM561.963 34.1556C564.228 34.1443 565.236 33.3803 566.373 30.8163C567.784 27.6366 567.862 27.8821 568.186 36.4741C568.447 43.4084 568.146 45.8056 566.864 46.99C565.95 47.8338 564.881 50.2352 564.488 52.3267C564.095 54.4182 562.831 60.1517 561.677 65.067C560.524 69.9834 559.58 75.1318 559.58 76.5074C559.58 81.7746 552.585 95.7228 547.43 100.73C541.293 106.694 538.414 107.637 535.417 104.665C533.632 102.895 532.801 102.696 530.974 103.599C526.702 105.711 527.248 104.683 533.874 98.1395C538.873 93.2017 541.433 89.5219 544.173 83.3312C547.967 74.7596 549.733 72.6118 546.91 80.0042C546.017 82.3422 545.5 84.2547 545.763 84.2547C546.599 84.2547 549.78 77.9874 550.1 75.7107C550.27 74.5039 550.725 71.9051 551.113 69.9363C551.501 67.9675 552.033 64.5158 552.297 62.2657C553.687 50.3671 556.638 35.5813 557.754 34.9226C558.454 34.5094 560.347 34.1648 561.963 34.1556ZM507.143 73.0045C507.153 57.7881 509.359 47.304 514.78 36.7196C516.371 33.6135 518.104 31.072 518.633 31.072C520.752 31.072 520.729 33.1686 518.56 37.8436C511.887 52.2254 508.842 71.6494 510.81 87.2831C511.515 92.8857 513.027 100.588 514.172 104.399C516.042 110.63 516.245 113.087 514.781 111.734C514.497 111.472 512.662 105.757 510.7 99.0344C507.511 88.0982 507.136 85.3583 507.143 73.0045ZM518.618 47.9473C518.009 48.295 517.511 47.8614 517.511 46.9849C517.511 46.1084 518.009 45.3904 518.618 45.3904C519.227 45.3904 519.725 45.823 519.725 46.3528C519.725 46.8826 519.227 47.5995 518.618 47.9473ZM535.053 115.96C532.701 115.96 532.428 114.861 534.339 113.096C535.069 112.421 536.89 111.869 538.385 111.869C541.033 111.869 541.051 111.922 539.099 113.914C537.998 115.039 536.176 115.96 535.053 115.96Z" fill="black"/>
<path d="M653.832 25.4469C653.223 25.7946 652.725 25.5911 652.725 24.9958C652.725 24.4006 653.223 23.9128 653.832 23.9128C654.441 23.9128 654.939 24.1153 654.939 24.3638C654.939 24.6123 654.441 25.0992 653.832 25.4469Z" fill="black"/>
<path d="M651.618 47.9473C651.009 48.295 650.511 47.8614 650.511 46.9849C650.511 46.1084 651.009 45.3904 651.618 45.3904C652.227 45.3904 652.725 45.823 652.725 46.3528C652.725 46.8826 652.227 47.5995 651.618 47.9473Z" fill="black"/>
<path d="M607.393 52.1037C606.398 50.9951 606.382 50.1022 607.332 48.4617C608.796 45.9366 612.589 46.0266 614.353 48.6284C616.759 52.1743 610.337 55.3806 607.393 52.1037Z" fill="black"/>
<path d="M668.053 115.96C665.701 115.96 665.428 114.861 667.339 113.096C668.069 112.421 669.89 111.869 671.385 111.869C674.033 111.869 674.051 111.922 672.099 113.914C670.998 115.039 669.176 115.96 668.053 115.96Z" fill="black"/>
<path fill-rule="evenodd" clip-rule="evenodd" d="M669.331 10.1875C663.351 11.9558 655.373 16.9908 655.797 18.7274C655.964 19.4127 655.608 19.6919 655.005 19.3472C652.6 17.9747 642.629 32.9886 637.776 45.2912C635.327 51.4972 633.84 53.9641 632.722 53.6757C627.58 52.3502 625.326 52.4515 624.667 54.0367C624.144 55.2957 625.126 56.1671 628.611 57.5345L633.254 59.356L632.958 73.0833C632.641 87.7914 635.018 100.794 639.512 108.932C641.934 113.317 647.052 117.006 652.019 117.944C654.451 118.404 655.487 119.186 655.489 120.561C655.494 123.135 660.427 125.656 663.872 124.845C671.681 123.006 684.959 107.555 694.801 88.8571C698.354 82.107 702.065 73.5926 703.046 69.9363C705.563 60.5577 706.346 48.1344 704.941 39.8533C703.742 32.783 703.742 32.78 707.071 29.2781C709.814 26.3909 710.159 25.5062 709.025 24.2441C708.157 23.2777 706.573 22.9125 704.728 23.2531C702.079 23.743 701.806 23.5006 701.806 20.6656C701.806 18.9157 701.057 17.1494 700.106 16.6585C699.171 16.1747 697.779 14.3798 697.012 12.6708C695.987 10.3829 695.257 9.83777 694.255 10.6058C693.313 11.3289 691.434 11.1755 688.169 10.1108C686.101 8.06289 674.749 9.30865 669.331 10.1875ZM670.363 19.92C671.583 18.3358 674.197 16.3179 676.171 15.4352C680.232 13.6178 681.509 13.9482 681.509 16.8139C681.509 17.9062 681.951 18.799 682.491 18.799C683.031 18.799 683.737 20.0652 684.061 21.6116C684.385 23.158 685.236 26.4952 685.951 29.0265C689.477 41.4907 680.953 77.1323 671.051 91.3301C666.142 98.3686 666.185 98.3502 666.813 93.2027C667.139 90.5201 666.649 86.8321 665.576 83.9121C663.237 77.5486 663.195 60.929 665.498 53.7626C667.183 48.5221 667.793 47.7039 672.099 44.9036C674.499 43.3439 674.608 43.6364 668.886 36.2144L665.672 32.0467L668.293 29.4704C670.538 27.2633 670.714 26.6016 669.528 24.8465C668.365 23.1263 668.498 22.3388 670.363 19.92ZM653.832 25.4469C653.223 25.7946 652.725 25.5911 652.725 24.9958C652.725 24.4006 653.223 23.9128 653.832 23.9128C654.441 23.9128 654.939 24.1153 654.939 24.3638C654.939 24.6123 654.441 25.0992 653.832 25.4469ZM694.963 34.1556C697.228 34.1443 698.236 33.3803 699.373 30.8163C700.784 27.6366 700.862 27.8821 701.186 36.4741C701.447 43.4084 701.146 45.8056 699.864 46.99C698.95 47.8338 697.881 50.2352 697.488 52.3267C697.095 54.4182 695.831 60.1517 694.677 65.067C693.524 69.9834 692.58 75.1318 692.58 76.5074C692.58 81.7746 685.585 95.7228 680.43 100.73C674.293 106.694 671.414 107.637 668.417 104.665C666.632 102.895 665.801 102.696 663.974 103.599C659.702 105.711 660.248 104.683 666.874 98.1395C671.873 93.2017 674.433 89.5219 677.173 83.3312C680.967 74.7596 682.733 72.6118 679.91 80.0042C679.017 82.3422 678.5 84.2547 678.763 84.2547C679.599 84.2547 682.78 77.9874 683.1 75.7107C683.27 74.5039 683.725 71.9051 684.113 69.9363C684.501 67.9675 685.033 64.5158 685.297 62.2657C686.687 50.3671 689.638 35.5813 690.754 34.9226C691.454 34.5094 693.347 34.1648 694.963 34.1556ZM640.143 73.0045C640.153 57.7881 642.359 47.304 647.78 36.7196C649.371 33.6135 651.104 31.072 651.633 31.072C653.752 31.072 653.729 33.1686 651.56 37.8436C644.887 52.2254 641.842 71.6494 643.81 87.2831C644.515 92.8857 646.027 100.588 647.172 104.399C649.042 110.63 649.245 113.087 647.781 111.734C647.497 111.472 645.662 105.757 643.7 99.0344C640.511 88.0982 640.136 85.3583 640.143 73.0045ZM651.618 47.9473C651.009 48.295 650.511 47.8614 650.511 46.9849C650.511 46.1084 651.009 45.3904 651.618 45.3904C652.227 45.3904 652.725 45.823 652.725 46.3528C652.725 46.8826 652.227 47.5995 651.618 47.9473ZM668.053 115.96C665.701 115.96 665.428 114.861 667.339 113.096C668.069 112.421 669.89 111.869 671.385 111.869C674.033 111.869 674.051 111.922 672.099 113.914C670.998 115.039 669.176 115.96 668.053 115.96Z" fill="black"/>
<path d="M747.599 56.9773C747.08 56.9773 746.657 56.5272 746.657 55.977C746.657 55.4268 747.359 54.9767 748.217 54.9767C749.075 54.9767 749.5 55.4268 749.159 55.977C748.819 56.5272 748.117 56.9773 747.599 56.9773Z" fill="black"/>
<path fill-rule="evenodd" clip-rule="evenodd" d="M769.805 9.86742C769.001 10.3756 768.752 11.2688 769.209 12.0071C769.686 12.7783 769.588 13.0233 768.958 12.6352C767.774 11.903 766.68 16.3873 766.68 21.975C766.68 24.7138 766.204 25.8601 764.928 26.1952C762.295 26.8864 759.306 33.7715 754.05 51.2556C749.962 64.8546 748.952 67.2103 746.762 68.2606C744.938 69.1359 743.823 70.8944 742.818 74.4825C742.048 77.2333 741.02 79.634 740.533 79.817C738.909 80.4292 739.609 91.9276 741.62 97.6403C743.375 102.632 743.43 103.471 742.12 105.34C741.311 106.494 740.652 108.575 740.654 109.966C740.658 112.976 744.02 118.816 746.24 119.667C748.545 120.55 752.847 116.907 754.184 112.939C756.916 104.83 758.794 112.619 756.231 121.429C753.955 129.248 756.262 134 762.33 134C767.695 134 769.683 131.197 769.683 123.633C769.683 120.133 769.27 115.068 768.764 112.38C767.652 106.462 769.006 100.526 773 93.8232C777.632 86.0489 777.012 86.0399 791.882 94.1112C820.999 109.917 836.959 120.833 839.366 126.589C841.067 130.655 842.605 130.866 845.796 127.471C848.123 124.997 848.136 124.88 846.414 121.967C845.446 120.331 844.901 118.593 845.202 118.106C846.073 116.698 842.973 114.707 840.795 115.276C839.485 115.619 833.607 112.829 823.519 107.077C815.109 102.282 801.79 95.0175 793.922 90.9343C786.055 86.8511 780.075 83.3581 780.634 83.172C781.193 82.986 787.089 85.5727 793.739 88.9197C800.389 92.2667 807.495 95.6797 809.531 96.503L813.234 98.0014L810.731 96.0158C809.354 94.9235 802.709 91.0474 795.964 87.4013C784.886 81.4135 783.699 80.5072 783.699 78.0365C783.699 75.7999 784.567 74.8316 788.455 72.7319C792.91 70.3262 795.478 69.591 798.467 69.8661C800.647 70.0662 799.818 71.7397 797.215 72.3929C795.839 72.738 794.712 73.5392 794.712 74.1724C794.712 74.8066 793.966 76.1479 793.055 77.1542C791.512 78.8597 791.516 78.9838 793.121 78.9838C794.069 78.9838 795.781 78.4826 796.927 77.8694C798.596 76.9772 799.19 77.0772 799.914 78.3696C801.211 80.6833 803.244 80.3622 805.087 77.5524C806.553 75.3177 806.548 75.0946 805.031 74.8016C804.053 74.6125 805.488 73.4972 808.558 72.0608C815.883 68.6337 814.99 67.5984 807.227 70.5173C801.044 72.843 799.006 72.6469 802.162 70.0302C802.955 69.373 803.384 68.2626 803.116 67.5644C802.798 66.7342 805.791 64.9676 811.738 62.4769C824.71 57.0413 826.29 54.5276 823.22 44.2015C821.288 37.7016 819.438 35.7741 815.915 36.5923C810.91 37.7556 800.262 42.176 785.795 49.097C777.863 52.8921 771.162 55.7879 770.907 55.5319C770.65 55.2758 770.978 51.4017 771.633 46.9223C772.288 42.442 772.754 36.6823 772.667 34.1236C772.426 27.0315 772.452 26.9644 776.103 25.44C779.093 24.1916 779.661 23.3564 780.656 18.739C781.754 13.6476 781.703 13.3865 779.187 11.2138C776.522 8.91414 772.275 8.30396 769.805 9.86742ZM799.217 46.6513C800.319 46.0721 802.797 44.8007 804.724 43.8254C806.651 42.8501 809.054 42.0349 810.063 42.0129C813.134 41.9459 811.396 44.3426 806.676 46.6843C800.763 49.6181 799.455 50.8615 800.016 53.0091C800.391 54.4375 798.823 55.5659 792.343 58.5288C787.864 60.5774 782.923 62.621 781.362 63.0701C778.827 63.8013 778.667 63.7163 779.86 62.2769C780.595 61.3906 777.48 62.577 772.937 64.9127C768.394 67.2493 764.677 69.3719 764.677 69.63C764.677 69.8881 765.241 69.7611 765.929 69.3479C766.779 68.8378 766.74 69.1389 765.807 70.2892C765.051 71.2205 763.962 71.9817 763.387 71.9817C762.812 71.9817 762.643 71.6796 763.012 71.3115C763.381 70.9424 763.01 69.615 762.189 68.3607C760.712 66.11 760.848 65.999 772.947 59.6131C779.687 56.056 787.904 51.9218 791.208 50.4254C794.512 48.9289 798.116 47.2304 799.217 46.6513ZM795.215 60.4003C790.487 61.5677 792.687 60.2383 803.349 55.4849C813.988 50.7415 814.735 50.5044 814.735 51.8758C814.735 52.8331 800.258 59.1549 795.215 60.4003ZM804.223 62.908C803.673 62.908 804.348 62.2649 805.725 61.4786C807.102 60.6924 808.678 60.0492 809.229 60.0492C809.78 60.0492 809.104 60.6924 807.727 61.4786C806.351 62.2649 804.774 62.908 804.223 62.908ZM753.902 73.5342C752.12 73.1431 750.661 72.3588 750.661 71.7907C750.661 70.1092 757.123 71.7847 766.474 75.8909C778.152 81.0194 778.158 82.8219 766.481 78.0555C761.345 75.9599 755.684 73.9253 753.902 73.5342ZM833.745 116.367C833.751 116.847 833.195 116.815 832.506 116.297L831.308 115.393C830.455 114.749 829.357 113.921 828.366 113.173C826.777 111.974 825.77 110.993 826.128 110.993C827.353 110.993 833.732 115.495 833.745 116.367Z" fill="black"/>
<path fill-rule="evenodd" clip-rule="evenodd" d="M805.725 61.4786C804.348 62.2649 803.673 62.908 804.223 62.908C804.774 62.908 806.351 62.2649 807.727 61.4786C809.104 60.6924 809.78 60.0492 809.229 60.0492C808.678 60.0492 807.102 60.6924 805.725 61.4786Z" fill="black"/>
<path fill-rule="evenodd" clip-rule="evenodd" d="M885.335 49.8199C881.174 51.8223 879.73 56.2156 878.284 71.2727C877.046 84.1653 877.341 86.4766 881.214 94.1487C882.323 96.3439 883.079 100.971 883.509 108.185C883.861 114.103 884.969 122.94 885.971 127.819C887.953 137.467 889.744 140 894.582 140C897.494 140 905.646 135.13 906.539 132.858C907.267 131.008 903.59 124.513 900.808 122.734C898.295 121.126 897.206 116.475 897.462 108.441C897.602 104.026 898.376 101.192 900.657 96.7444C901.511 95.0795 902.135 93.9133 902.58 92.6849C903.833 89.2212 903.654 85.2637 903.136 68.2427C902.796 57.055 902.735 56.7864 899.913 53.8894C896.659 50.5497 892.688 48.2871 890.135 48.3189C889.186 48.3302 887.026 49.0058 885.335 49.8199ZM888.025 120.376C886.934 115.409 886.627 80.4504 887.599 71.8818C888.138 67.1404 888.238 66.9944 889.927 68.4869C891.561 69.9298 891.649 71.2895 891.101 86.7011C890.711 97.6718 890.861 104.259 891.537 106.005C892.717 109.043 894.021 123.8 893.024 122.826C892.661 122.473 892.056 119.138 891.679 115.417L890.995 108.653L891.115 116.537C891.254 125.753 889.646 127.751 888.025 120.376Z" fill="black"/>
<path fill-rule="evenodd" clip-rule="evenodd" d="M892.244 10.7199C887.333 13.6507 886.742 14.9916 886.441 23.8961C886.12 33.3602 887.312 35.5086 892.885 35.5086C896.195 35.5086 901.346 30.902 901.358 27.9301C901.361 27.0374 902.221 25.0442 903.268 23.5003C905.596 20.0689 905.692 17.14 903.59 13.6656C902.057 11.1326 898.7 8.99253 896.273 9.00002C895.638 9.00189 893.826 9.77576 892.244 10.7199ZM891.765 15.8899C891.765 15.3574 892.052 14.6416 892.404 14.2991C892.755 13.9557 893.266 13.893 893.538 14.1588C893.81 14.4245 893.523 15.1404 892.899 15.7495C892.211 16.4205 891.765 16.4757 891.765 15.8899Z" fill="black"/>
<path fill-rule="evenodd" clip-rule="evenodd" d="M1006.42 15.5526C1005.06 16.9706 1004.5 22.1663 1003.99 38.157C1003.63 49.5774 1003.53 60.8866 1003.78 63.2886C1004.04 65.8043 1003.74 67.4163 1003.07 67.0872C1001.7 66.4122 984.617 44.5007 976.365 32.8354C969.038 22.4758 965.606 19.5356 959.293 18.208C953.439 16.9758 946.602 19.3177 945.103 23.0681C944.57 24.3983 943.677 30.8376 943.118 37.3761C942.339 46.5079 942.595 51.0014 944.224 56.7658C945.391 60.8915 946.412 68.476 946.495 73.6204C946.576 78.7634 947.449 86.4974 948.434 90.8061C952.965 110.616 954.452 115.987 956.781 120.946C958.894 125.44 960 126.38 963.921 127.002C966.478 127.407 970.429 126.938 972.726 125.954C976.314 124.418 976.806 123.688 976.268 120.688C975.529 116.566 975.082 95.0557 975.577 87.4626L975.925 82.1407L992.125 101.214C1001.04 111.705 1009.25 121.515 1010.38 123.014C1011.92 125.045 1013.35 125.592 1015.99 125.162C1022.62 124.084 1024.49 121.272 1021.88 116.301C1020.78 114.218 1021.37 113.233 1025.74 109.773C1030.73 105.827 1030.84 105.595 1029.09 102.432C1025.55 96.0385 1023.07 64.1375 1025.65 58.2219C1026.71 55.7982 1026.75 54.0133 1025.79 52.1918C1025.01 50.7002 1024.77 45.0551 1025.23 38.8724C1025.84 30.5104 1025.61 27.9464 1024.16 27.2632C1023.14 26.7821 1022.38 25.359 1022.48 24.1002C1022.57 22.8428 1021.3 20.1321 1019.67 18.0768C1016.27 13.8133 1009.36 12.4963 1006.42 15.5526ZM960.456 111.263C957.156 107.428 952.38 72.4109 952.72 54.54C953.005 39.5801 955.125 40.15 956.017 55.4254C956.349 61.0978 958.86 75.5428 961.598 87.5273C966.203 107.688 966.409 109.459 964.341 111.247C962.427 112.901 961.868 112.904 960.456 111.263ZM1012.61 70.9074C1011.94 80.075 1012.15 83.3885 1013.52 84.7035C1015.09 86.2214 1015.42 84.9238 1016.22 74.149C1016.72 67.393 1017.19 61.4372 1017.26 60.9127C1017.34 60.3882 1016.52 59.7093 1015.45 59.4017C1013.8 58.9267 1013.37 60.6739 1012.61 70.9074ZM1010.13 43.8428C1009.11 43.3604 1008.4 41.4497 1008.56 39.5951C1008.84 36.3553 1008.92 36.3264 1010.54 38.8401C1012.73 42.2432 1012.51 44.966 1010.13 43.8428ZM1009.25 47.749C1008.33 48.7091 1007.92 50.1575 1008.34 50.9677C1009.08 52.3933 1012.79 49.366 1013.05 47.1236C1013.23 45.5315 1011.03 45.8949 1009.25 47.749ZM1015.4 50.8143C1014.66 51.2021 1014.11 50.6242 1014.19 49.5301C1014.36 47.2871 1015.15 47.0142 1016.11 48.8655C1016.46 49.549 1016.14 50.4252 1015.4 50.8143Z" fill="black"/>
<path d="M1087.86 20.2873C1085.18 17.3101 1086 11.5817 1089.36 9.85271C1092.46 8.25106 1096.73 8.97812 1098.59 11.4268C1100.42 13.8329 1100.24 18.6411 1098.25 20.6429C1095.94 22.9662 1090.09 22.7657 1087.86 20.2873Z" fill="black"/>
<path fill-rule="evenodd" clip-rule="evenodd" d="M1101.04 25.9413C1088.62 31.3322 1075.25 47.597 1069.14 64.7662C1067.02 70.7387 1066.69 73.6172 1066.72 86.1958C1066.75 102.293 1067.33 103.89 1073.91 106.155C1076.21 106.945 1078.18 108.956 1080.38 112.755C1086.25 122.872 1099.34 129.054 1109.24 126.374C1111.79 125.684 1115.51 123.494 1117.68 121.415C1120.27 118.92 1120.77 118.078 1119.17 118.862C1114.39 121.223 1117.02 118.967 1125.51 113.434C1135.35 107.017 1136.39 106.46 1135.36 108.145C1134.95 108.806 1135.08 109.345 1135.64 109.345C1137.39 109.345 1145.52 98.8147 1146.94 94.6976L1148.3 90.7704H1155.51C1162.01 90.7704 1162.71 90.5634 1162.71 88.6476C1162.71 86.7413 1162.04 86.5354 1156.14 86.6267C1149.6 86.7276 1149.57 86.7138 1150.14 83.9732C1150.67 81.4524 1150.59 81.376 1149.21 83.0753C1147.38 85.3318 1145.97 85.4273 1144.3 83.4085C1142.24 80.91 1137.17 80.3762 1131.8 82.0935C1129.07 82.9692 1122.19 84.3935 1116.52 85.2596C1110.85 86.1247 1105.03 87.6106 1103.59 88.5616C1100.12 90.8458 1100.13 94.9449 1103.6 97.2354C1105.91 98.7553 1107.09 98.8105 1113.09 97.6716C1116.86 96.9573 1120.69 96.6601 1121.6 97.0125C1123.08 97.5846 1123.06 98.0102 1121.35 100.996C1119.25 104.666 1109.6 111.468 1106.5 111.468C1105.42 111.468 1103.67 112.106 1102.61 112.884C1100.92 114.124 1099.92 113.789 1094.55 110.18C1087.98 105.771 1087.77 105.415 1086.69 96.8204C1085.92 90.7556 1087.02 86.7573 1090.97 81.2178C1092.22 79.4665 1093.84 76.4978 1094.58 74.6213C1096.63 69.3833 1112.57 54.5205 1117.6 53.1587C1126.5 50.7515 1131.55 45.3437 1131.54 38.2313C1131.54 33.6227 1130.2 31.3513 1127.99 32.2057C1127.06 32.5645 1126.3 32.435 1126.3 31.9181C1126.3 31.4012 1126.89 30.7771 1127.62 30.5319C1128.62 30.1912 1128.56 29.6265 1127.35 28.1565C1123.02 22.8697 1110.55 21.8199 1101.04 25.9413ZM1076.75 70.45C1076.66 67.148 1080.53 55.2539 1082.99 51.2334C1085.65 46.8816 1086.79 46.7171 1084.59 51.003C1083.68 52.7735 1081.55 58.3851 1079.87 63.4745C1078.18 68.5628 1076.78 71.7024 1076.75 70.45ZM1091.62 51.7641C1090.47 54.4706 1090.49 54.5332 1091.98 52.6227C1092.86 51.4892 1093.58 50.1762 1093.58 49.7039C1093.58 48.0906 1092.86 48.8442 1091.62 51.7641ZM1096.81 42.4769C1096.19 42.4769 1095.69 41.9992 1095.69 41.4155C1095.69 40.8317 1095.9 40.3541 1096.15 40.3541C1096.41 40.3541 1096.91 40.8317 1097.27 41.4155C1097.63 41.9992 1097.42 42.4769 1096.81 42.4769ZM1107.52 26.2906C1106.77 27.3116 1106.49 27.4772 1106.9 26.6567C1107.39 25.642 1107.21 25.4266 1106.31 25.9806C1105.39 26.5549 1105.34 27.128 1106.12 27.9209C1107.42 29.2264 1112.58 27.3063 1112.58 25.5168C1112.58 23.739 1108.98 24.2888 1107.52 26.2906ZM1076.9 52.8457C1081.1 44.9351 1087.99 37.1221 1096.07 31.139C1099.47 28.6182 1102.44 26.5559 1102.67 26.5559C1104.35 26.5559 1102.13 29.0746 1096.79 33.2512C1081.13 45.4806 1070.57 66.2129 1070.25 85.3679C1070.15 91.3414 1070.07 91.5505 1069.19 88.1169C1067.21 80.4016 1070.66 64.6303 1076.9 52.8457ZM1121.47 36.5638C1120.36 37.3853 1119.71 38.331 1120.04 38.6643C1120.38 38.9976 1121.56 38.5985 1122.68 37.7759C1123.8 36.9544 1124.44 36.0087 1124.11 35.6754C1123.78 35.3422 1122.59 35.7412 1121.47 36.5638ZM1125.51 90.2238C1123.93 90.21 1123.89 90.0571 1125.24 89.1783C1127.24 87.8834 1127.35 87.8834 1127.35 89.1783C1127.35 89.7621 1126.52 90.2323 1125.51 90.2238ZM1126.04 92.0037C1126.76 92.2988 1127.95 92.2988 1128.67 92.0037C1129.4 91.7097 1128.81 91.4688 1127.35 91.4688C1125.9 91.4688 1125.31 91.7097 1126.04 92.0037ZM1144.71 89.1783C1143.87 89.1783 1143.19 88.7007 1143.19 88.1169C1143.19 87.5331 1144.17 87.0555 1145.36 87.0555C1146.56 87.0555 1147.24 87.5331 1146.88 88.1169C1146.52 88.7007 1145.55 89.1783 1144.71 89.1783Z" fill="black"/>
<path d="M82.2396 43.994C83.0686 43.305 84.9396 40.55 86.3986 37.871C88.3676 34.253 89.6326 33 91.3196 33C94.8906 33 96.9516 35.709 96.1666 39.374C95.1906 43.925 95.0656 44.008 90.1526 43.334C86.3376 42.811 85.2886 43.068 83.1956 45.034C81.8406 46.307 80.7316 46.875 80.7316 46.297C80.7316 45.718 81.4096 44.682 82.2396 43.994Z" fill="black"/>
<path fill-rule="evenodd" clip-rule="evenodd" d="M37.5426 4.25C35.8506 5.596 34.0466 19.541 35.6966 18.522C37.3486 17.501 37.7176 19.731 36.7896 25.137C36.2846 28.087 35.3536 35.9 34.7216 42.5C33.7506 52.639 33.2186 54.888 31.2936 57C30.0406 58.375 28.1966 60.933 27.1966 62.684C25.6886 65.324 25.5996 66.136 26.6726 67.429C27.7446 68.721 27.6836 69.379 26.3166 71.245C25.4086 72.485 23.5556 75.029 22.1986 76.898C19.3266 80.854 18.7046 88 21.2316 88C23.4556 88 23.0516 89.561 20.3716 91.316C18.8666 92.303 17.9816 93.884 17.9296 95.681C17.8836 97.232 17.8106 99.175 17.7656 100C17.3676 107.304 20.4226 113.55 23.8596 112.46C25.5056 111.937 25.6346 112.666 25.4416 121.457C25.2066 132.154 24.7426 132.787 18.0506 131.532L14.5446 130.874L16.3876 134.049C17.4016 135.795 18.7946 137.446 19.4816 137.718C21.8366 138.652 20.7266 139.77 15.2266 142.002C10.8116 143.794 9.42962 143.994 8.24762 143.014C7.06762 142.034 6.14062 142.161 3.58362 143.655C1.82862 144.68 0.226626 146.015 0.0246264 146.622C-0.467374 148.097 6.52662 156.846 10.8076 160.11L14.2316 162.72L14.1386 156.61C14.0876 153.25 13.5256 149.233 12.8886 147.685C12.8046 147.481 12.725 147.289 12.6501 147.108L12.6497 147.107C12.0282 145.608 11.7349 144.901 11.9646 144.476C12.1699 144.097 12.7928 143.944 13.9726 143.655L13.9777 143.654L13.9885 143.651L13.9989 143.648C14.1507 143.611 14.3114 143.572 14.4816 143.529C18.3316 142.565 41.4456 133.026 52.2316 127.95C67.2326 120.89 92.6296 104.865 101.232 97.032C107.996 90.872 108.523 90.582 110.287 92.045C111.647 93.174 111.053 94.142 105.537 99.782C96.6246 108.895 102.341 105.537 112.402 95.75C122.164 86.253 123.53 83.621 121.771 77.698C116.894 61.269 112.995 57.881 97.2316 56.375C90.6846 55.75 67.9906 59.781 62.7236 62.504C59.2986 64.275 47.3966 64.39 48.4066 62.643C50.9736 58.202 55.9556 53.274 62.3376 48.862C66.4316 46.032 69.5896 43.525 69.3556 43.291C69.1216 43.057 66.6916 44 63.9556 45.386C60.7126 47.03 56.9366 50.336 53.1066 54.887C49.8756 58.725 46.9026 61.896 46.5006 61.933C46.0986 61.97 45.4946 60.762 45.1576 59.25C44.8216 57.738 44.3266 55.695 44.0586 54.71C42.9766 50.735 65.6176 32.294 77.6636 27.338C80.7256 26.078 82.3316 25.047 81.2316 25.047C78.0326 25.047 68.7346 29.24 62.2316 33.615C54.6346 38.726 53.7316 39.249 53.7316 38.539C53.7316 38.22 57.1256 35.744 61.2746 33.036C70.8986 26.753 79.0196 23.644 83.5746 24.498L86.9716 25.136L86.3166 30.068C85.9576 32.781 85.8916 35 86.1716 35C87.0866 35 89.7316 29.147 89.7316 27.122C89.7316 24.526 85.1536 20.991 81.8466 21.034C75.6106 21.116 50.7316 33.913 50.7316 37.039C50.7316 37.632 50.2746 37.835 49.7156 37.49C49.1566 37.144 48.8956 36.544 49.1356 36.156C49.3756 35.768 50.1056 29.916 50.7576 23.152C51.9436 10.856 51.9436 10.854 49.5876 8.332C47.0106 5.574 42.6116 3 40.4726 3C39.7256 3 38.4066 3.563 37.5426 4.25ZM41.2006 105C42.5966 101.684 69.3666 88.484 79.6186 86.056C85.1046 84.758 86.0156 84.828 85.3386 86.5C85.1181 87.0448 84.8016 87.828 84.513 88.5423L84.5076 88.5557L84.1066 89.548C83.6856 90.589 85.1746 90.097 88.6506 88.048C91.4936 86.372 95.0376 85.032 96.5256 85.07C98.8376 85.13 98.9466 85.252 97.2756 85.906C95.4136 86.634 95.4066 86.719 97.1306 87.683C98.8016 88.619 98.8226 88.918 97.4016 91.598C90.6456 104.34 73.6856 116.612 56.7316 121.028C52.0566 122.245 46.4986 123.703 44.3816 124.268C41.5156 125.032 40.3406 124.986 39.7866 124.089C39.3406 123.368 38.0446 123.134 36.5606 123.507C34.1476 124.112 34.0736 123.97 33.8736 118.315C33.7606 115.117 33.4166 111.089 33.1096 109.365C32.7916 107.576 33.0206 105.94 33.6416 105.556C34.2416 105.185 34.7316 105.359 34.7316 105.941C34.7316 106.523 35.4066 107 36.2316 107C37.4216 107 37.7316 108.444 37.7316 114C37.7316 117.85 38.1166 121 38.5876 121C39.0576 121 39.6966 117.738 40.0056 113.75C40.3156 109.762 40.8536 105.825 41.2006 105ZM75.9906 64.969C66.3996 67.206 61.5686 69.415 68.7316 68.289C71.2066 67.9 74.3566 67.634 75.7316 67.699C77.1066 67.763 82.7746 67.372 88.3276 66.829C95.3046 66.147 100.223 66.174 104.247 66.918C107.45 67.51 110.261 67.804 110.494 67.571C110.727 67.338 109.414 66.364 107.575 65.407C102.476 62.753 86.4426 62.531 75.9906 64.969ZM47.7316 80.302C54.3836 76.937 66.9256 72.677 76.7316 70.453C84.8456 68.612 89.8026 68.746 93.3386 70.902C96.7326 72.972 98.9636 77.763 95.9086 76.422C94.9866 76.017 90.4066 75.353 85.7316 74.947L77.2316 74.208L86.4126 74.354C92.9326 74.458 95.1066 74.21 93.9126 73.5C90.6666 71.569 76.7516 72.61 67.7316 75.459C63.0566 76.935 58.0826 78.285 56.6776 78.458C53.2746 78.878 42.9086 84.166 34.0386 90.006C28.9566 93.352 26.6986 94.356 26.3426 93.429C25.8476 92.138 32.9326 87.79 47.7316 80.302ZM38.3986 27.667C38.0316 28.033 37.7806 30.171 37.8416 32.417L37.9506 36.5L38.8206 32.063C39.7046 27.559 39.5996 26.466 38.3986 27.667ZM30.1246 74.885C29.3976 73.573 28.7866 71.938 28.7666 71.25C28.7286 69.901 31.3136 69.515 32.0806 70.756C32.3376 71.171 32.2996 72.807 31.9976 74.391L31.4466 77.271L30.1246 74.885ZM47.2046 44.546C44.4696 47.046 43.1316 48.658 44.2316 48.128C46.1596 47.199 53.6156 40 52.6506 40C52.3896 40 49.9396 42.046 47.2046 44.546ZM30.2606 128.235C27.3686 130.3 27.1166 128.214 28.8536 116.541C29.4696 112.393 30.4056 109 30.9326 109C32.2256 109 31.5866 127.288 30.2606 128.235ZM45.2316 125.486C39.1816 127.28 32.6566 129.209 30.7316 129.772L27.2316 130.796L30.5406 130.898C32.3606 130.954 33.5906 131.419 33.2746 131.931C31.6206 134.607 35.7836 133.475 46.1716 128.423C61.8256 120.81 61.7546 120.585 45.2316 125.486ZM36.1726 127C35.3156 127 34.8916 126.55 35.2316 126C35.5716 125.45 36.2726 125 36.7906 125C37.3086 125 37.7316 125.45 37.7316 126C37.7316 126.55 37.0296 127 36.1726 127Z" fill="black"/>
<path d="M311.925 10.17C305.217 11.8578 299.952 4.59425 305.525 1.33931C309.087 -0.740269 311.953 -0.404115 314.475 2.3899C317.28 5.49707 316.091 9.12077 311.925 10.17Z" fill="black"/>
<path d="M149 51.458C149 50.749 150.066 49.5669 151.366 48.8308C154.006 47.3382 156.567 48.9867 155.158 51.2723C154.041 53.0849 149 53.2366 149 51.458Z" fill="black"/>
<path d="M193.625 134.763C192.881 134.302 192.273 133.316 192.273 132.57C192.273 131.824 192.881 131.591 193.625 132.052C194.369 132.513 194.977 133.5 194.977 134.245C194.977 134.991 194.369 135.224 193.625 134.763Z" fill="black"/>
<path fill-rule="evenodd" clip-rule="evenodd" d="M172.327 18.9886C170.652 19.6122 169.284 20.9205 169.284 21.8965C169.284 22.8713 166.697 24.8735 163.537 26.3458L157.79 29.0219L157.998 36.4346C158.182 43.0001 161.749 57.4772 170.869 88.6709C172.394 93.8902 175.4 102.343 177.549 107.454C179.696 112.564 181.454 118.155 181.454 119.88C181.454 121.897 183.314 124.489 186.674 127.157C189.545 129.437 192.186 131.009 192.543 130.652C192.899 130.294 194.251 131.176 195.546 132.612C197.473 134.747 198.594 134.98 201.696 133.897C205.498 132.569 207.147 128.701 207.147 121.112C207.147 119.382 210.563 111.498 214.739 103.589C223.143 87.6677 224.92 86.6347 229.429 95.0493C230.9 97.7932 233.064 100.29 234.239 100.599C235.413 100.907 238.728 106.585 241.606 113.216C244.484 119.848 248.54 127.075 250.62 129.277C253.925 132.775 254.874 133.112 258.158 131.949C261.169 130.881 261.93 129.762 261.995 126.304C262.04 123.932 262.744 120.595 263.561 118.887C264.377 117.18 266.097 110.004 267.383 102.939C270.006 88.5177 276.826 65.5027 278.846 64.2514C279.573 63.8 280.17 62.5229 280.17 61.4126C280.17 59.8997 289.824 38.6905 294.72 29.4476C294.991 28.9351 293.653 27.4926 291.748 26.2414C288.532 24.1293 288.04 24.1252 284.903 26.1858C283.043 27.4073 281.522 29.2171 281.522 30.2067C281.522 31.7563 275.943 42.7804 264.286 64.269C262.667 67.2515 260.342 71.98 259.116 74.7754C257.89 77.5721 256.417 79.8591 255.844 79.8591C255.269 79.8591 254.548 74.0976 254.241 67.0576C253.793 56.7776 253.162 53.6786 251.041 51.3279C246.079 45.832 241.116 44.2053 231.939 45.0634C217.801 46.3879 213.764 49.6726 203.778 67.993C198.229 78.1673 197.214 79.2287 195.349 76.794C190.746 70.7857 181.776 35.0898 183.5 29.6428C183.993 28.0878 183.139 25.4958 181.325 23.0352C177.723 18.1522 176.295 17.5096 172.327 18.9886ZM176.179 83.0639C167.819 57.7361 164.347 43.4447 165.695 39.9213C166.658 37.4079 169.184 37.1694 169.841 39.5282C170.102 40.4609 172.582 50.6758 175.353 62.2287C180.358 83.0991 185.963 100.243 192.851 115.75C194.831 120.206 196.233 125.392 195.968 127.273C195.187 132.829 185.358 110.87 176.179 83.0639ZM174.832 40.5043C174.629 45.3629 182.767 78.2337 185.749 84.6039C187.146 87.5864 187.918 88.8065 187.467 87.3152C187.014 85.824 184.631 76.3683 182.17 66.3025L181.69 64.3404C176.691 43.888 175.416 38.6719 175.034 38.7365C174.903 38.7586 174.877 39.3996 174.842 40.26C174.839 40.3397 174.836 40.4212 174.832 40.5043ZM275.267 55.06C274.895 54.6872 277.1 49.3757 280.17 43.2563C283.239 37.1368 286.054 32.4355 286.425 32.8083C286.797 33.1811 284.592 38.4925 281.522 44.6119C278.452 50.7314 275.638 55.4328 275.267 55.06Z" fill="black"/>
</svg>
