<svg width="108" height="104" viewBox="0 0 108 104" fill="none" xmlns="http://www.w3.org/2000/svg">
<path d="M39.3352 69.2325C39.3837 69.2852 39.4316 69.3506 39.4791 69.4286C39.5275 69.4813 39.5634 69.5335 39.5865 69.5852C39.6108 69.6115 39.635 69.6379 39.6592 69.6642C39.86 70.0148 40.273 70.4376 40.8985 70.9326C41.5118 71.4145 42.0006 71.6947 42.3647 71.7733C42.7036 71.8509 42.8711 72.086 42.8674 72.4786C42.8646 72.846 42.7259 73.1316 42.4513 73.3355C42.203 73.5152 41.9187 73.4969 41.5983 73.2807C41.2911 73.0524 41.1136 72.7536 41.0657 72.3841C41.0468 72.2313 40.6082 71.6617 39.7499 70.6754C41.0218 75.9998 41.0065 80.2946 39.7039 83.5598C39.5619 84.2254 39.3156 84.9626 38.9649 85.7715C38.3568 87.2792 37.3691 88.6253 36.0017 89.8097C34.6353 90.9688 33.162 91.6546 31.5819 91.8671C32.7089 93.0928 33.3265 93.7776 33.4345 93.9215C33.6031 94.1313 33.6731 94.2736 33.6446 94.3484C33.5898 94.4475 33.4899 94.5637 33.3449 94.697C33.0956 94.9019 32.7694 94.8249 32.3663 94.4659C31.9764 94.0947 31.7475 93.6607 31.6796 93.1637C31.5659 92.8548 31.466 92.6669 31.3802 92.5999C31.2953 92.5077 31.1098 92.3985 30.8237 92.2725C30.5254 92.1333 30.3086 92.0165 30.1732 91.9221C29.9202 91.9115 29.6617 91.8817 29.3977 91.8326C29.0709 91.7682 28.7199 91.6775 28.3447 91.5604C28.6303 92.0031 28.9849 92.3094 29.4086 92.4792C29.6452 92.5779 29.8022 92.7618 29.8796 93.0312C29.957 93.3005 29.9237 93.4892 29.7798 93.5972C29.6006 93.6404 29.3717 93.5104 29.0929 93.2073C28.8274 92.892 28.5761 92.5394 28.339 92.1493C28.1615 91.8504 27.9262 91.5681 27.6333 91.3024C24.9557 90.1892 22.414 87.6498 20.008 83.6843C17.5426 79.6276 15.7516 75.048 14.6351 69.9455C14.274 68.2831 14.0037 67.0237 13.8242 66.1672C13.6457 65.2855 13.4679 64.0869 13.2907 62.5717C13.1145 61.0311 13.0695 59.6861 13.1558 58.5367C13.1182 57.0146 13.2245 55.6886 13.4746 54.5587C13.7083 53.5168 14.3194 52.5414 15.3079 51.6326C16.3095 50.7116 17.3062 50.2085 18.2981 50.1234C19.5946 50.0257 20.5305 50.6731 21.1056 52.0657C21.2989 52.5933 21.2553 53.1807 20.9747 53.8278C20.9046 53.9896 20.7823 54.1872 20.6078 54.4206C20.5946 54.4327 20.5941 54.4454 20.6062 54.4586C20.6183 54.4718 20.6238 54.491 20.6228 54.5163C20.9612 54.3024 21.3952 54.0735 21.925 53.8296C24.2352 52.8241 26.5571 52.9025 28.8905 54.0647C30.1188 54.6864 31.3097 55.5979 32.463 56.7993C33.6164 58.0007 34.6314 59.3294 35.508 60.7853C36.3725 62.228 37.1231 63.6659 37.7599 65.0991C38.3978 66.507 38.9229 67.8848 39.3352 69.2325ZM28.6421 54.5484C26.4694 53.4817 24.312 53.4102 22.1699 54.3341C21.6281 54.5648 21.0962 54.8592 20.5744 55.2175C20.4377 55.7566 20.1185 56.2691 19.6166 56.7549C19.1279 57.2285 18.6137 57.5554 18.074 57.7355C18.0819 57.8499 18.0937 58.0215 18.1094 58.2502C18.1131 58.4658 18.1188 58.6307 18.1267 58.7451C19.0509 57.5548 20.2549 56.6422 21.7386 56.0076C23.3389 55.3144 24.9174 55.1398 26.4742 55.4839C28.0309 55.8279 29.4503 56.578 30.7323 57.7341C32.0143 58.8902 33.1634 60.1928 34.1796 61.6419C35.1838 63.0778 36.0991 64.6684 36.9256 66.4136C37.3134 66.8353 37.8092 67.4009 38.4129 68.1105C37.96 66.8244 37.4246 65.5412 36.8068 64.2609C36.1768 62.9674 35.4577 61.6828 34.6496 60.4072C33.8293 59.1184 32.896 57.9579 31.8495 56.9256C30.8031 55.8934 29.734 55.101 28.6421 54.5484ZM28.5239 83.6612C26.1527 81.5851 24.0633 78.5325 22.2556 74.5034C22.0069 74.3916 21.6601 74.1997 21.2154 73.9276C21.5356 74.752 21.7823 75.3642 21.9556 75.7643C23.7923 80.01 25.9325 83.2105 28.3764 85.3656C29.8422 86.6688 31.1641 87.3261 32.342 87.3375C33.8246 87.3363 34.7517 86.2284 35.1233 84.0139C34.9424 84.3991 34.6938 84.7372 34.3775 85.028C33.8899 85.4764 33.3167 85.6994 32.6579 85.6972C31.4415 85.6969 30.0635 85.0182 28.5239 83.6612ZM35.3012 80.6763L35.3226 80.6202C35.2517 77.4748 34.5716 74.3546 33.2822 71.2595C31.9939 68.1391 30.2773 65.4126 28.1324 63.0799C26.351 61.1426 24.8168 60.1089 23.5298 59.979L24.2496 61.3966C25.5837 62.821 26.3229 63.6249 26.4673 63.8084C26.4794 63.8215 26.4976 63.8413 26.5218 63.8677C26.6783 64.0643 26.7033 64.2237 26.5968 64.346C26.543 64.4197 26.4634 64.5051 26.358 64.602C26.1086 64.807 25.789 64.7239 25.3991 64.3528C25.0092 63.9816 24.7803 63.5476 24.7124 63.0506C24.6767 62.6943 24.3848 62.4033 23.8367 62.1776C23.2897 61.9266 22.9467 61.6461 22.8077 61.3361C22.6554 61.0383 22.461 60.8401 22.2244 60.7415C21.9878 60.6429 21.7662 60.6399 21.5595 60.7326L21.5382 60.7888L21.4986 60.8251C21.478 61.0143 21.4735 61.2739 21.485 61.6038C21.8101 62.0102 22.1223 62.2704 22.4216 62.3843C22.6582 62.4829 22.8152 62.6669 22.8926 62.9362C22.97 63.2056 22.9368 63.3943 22.7929 63.5023C22.5567 63.6951 22.136 63.3037 21.5307 62.328C21.7121 63.742 22.2794 65.0202 23.2325 66.1626C24.1735 67.2917 25.2706 68.022 26.5238 68.3533C27.1003 68.5041 27.5066 68.7873 27.7426 69.2026C27.9786 69.618 28.0212 70.1139 27.8703 70.6905C27.807 70.9919 27.6332 71.3584 27.349 71.79C27.4316 72.541 27.1209 73.3009 26.4172 74.0697C27.9056 75.7413 28.7446 76.7331 28.9343 77.0452C29.135 77.3957 29.5481 77.8185 30.1735 78.3136C30.7869 78.7954 31.2756 79.0757 31.6398 79.1543C31.9787 79.2319 32.1462 79.467 32.1424 79.8596C32.1397 80.2269 32.001 80.5126 31.7264 80.7165C31.4781 80.8961 31.1937 80.8779 30.8734 80.6617C30.5662 80.4334 30.3886 80.1345 30.3408 79.7651C30.2797 79.4077 28.7549 77.6966 25.7664 74.6316C25.1259 75.0989 24.5048 75.2566 23.9029 75.1047C23.5024 74.9865 23.2086 74.8918 23.0215 74.8206C24.7287 78.5288 26.6764 81.3347 28.8647 83.2384C30.3195 84.5031 31.5853 85.139 32.662 85.1462C34.2083 85.135 35.0881 83.645 35.3012 80.6763ZM20.9828 62.248C20.8957 62.8145 20.8818 63.4475 20.9412 64.1469C21.1084 65.5984 21.661 66.9266 22.5988 68.1317C23.5376 69.3114 24.714 70.1147 26.1279 70.5414C26.5912 70.6749 26.9187 70.8723 27.1104 71.1338C27.2497 70.8355 27.3274 70.6424 27.3438 70.5544C27.6086 69.6785 27.2899 69.1203 26.3877 68.8797C24.9959 68.5299 23.7876 67.7317 22.7628 66.485C21.7391 65.213 21.1458 63.8007 20.9828 62.248ZM14.0208 54.6766C13.9312 55.0023 13.8765 55.2471 13.857 55.411C14.176 54.7528 14.6371 54.183 15.2401 53.7014C15.8432 53.2199 16.4546 52.84 17.0745 52.5619C17.6944 52.2838 18.3107 52.24 18.9236 52.4304C19.5365 52.6208 20.0244 53.0721 20.3874 53.7842C20.3884 53.7589 20.4027 53.7215 20.4301 53.6719C20.4575 53.6224 20.4778 53.5916 20.491 53.5795C20.7256 53.1205 20.7629 52.6849 20.6028 52.2727C20.1435 51.1384 19.3992 50.6067 18.3699 50.6776C17.4671 50.7538 16.5676 51.2039 15.6714 52.0279C14.7884 52.8399 14.2382 53.7228 14.0208 54.6766ZM40.1011 79.0719C40.2524 76.6708 39.9446 73.8893 39.1775 70.7274C39.1554 70.6505 39.1233 70.5097 39.0812 70.3052C39.027 70.0876 38.9833 69.921 38.9501 69.8056C38.841 69.687 38.6648 69.5085 38.4213 69.2702C38.1911 69.0198 38.0154 68.8287 37.8942 68.6969C38.4562 70.1016 38.8772 71.3927 39.1573 72.5702C39.7206 74.8492 40.0352 77.0165 40.1011 79.0719ZM62.8117 34.9129C62.8965 35.0051 62.945 35.0578 62.9571 35.071C62.9692 35.0842 62.9995 35.1171 63.048 35.1699C63.0843 35.2094 63.102 35.2418 63.1009 35.2671C63.113 35.2803 63.1307 35.3127 63.1539 35.3644C63.1781 35.3907 63.1897 35.4166 63.1886 35.4419C63.1754 35.454 63.1617 35.4787 63.1475 35.5162C63.1332 35.5536 63.1124 35.597 63.085 35.6466C63.0586 35.6708 63.0191 35.7072 62.9664 35.7556C65.4963 43.1095 67.693 49.347 69.5563 54.4681C69.5795 54.5198 69.6021 54.5841 69.6242 54.661L69.7878 54.8389L69.9514 55.0169C70.2423 55.3332 70.3853 55.7003 70.3804 56.1182L70.317 56.7238C70.2131 57.0869 70.0591 57.4352 69.8551 57.7687L70.2043 58.5056C71.5262 59.9168 72.2594 60.7142 72.4038 60.8976C72.4159 60.9108 72.4341 60.9306 72.4583 60.9569C72.6148 61.1535 72.6398 61.313 72.5333 61.4352C72.4795 61.509 72.3999 61.5944 72.2945 61.6913C72.0451 61.8963 71.7255 61.8132 71.3356 61.442C70.9578 61.0841 70.735 60.6566 70.6671 60.1596C70.5665 59.8386 70.4419 59.637 70.2933 59.5547C70.1579 59.4603 69.9411 59.3435 69.6428 59.2043C69.3446 59.0651 69.1227 58.9164 68.9773 58.7583C68.7532 58.9643 68.4928 59.1308 68.1961 59.2577C68.1829 59.2698 68.1697 59.2819 68.1566 59.2941C68.1313 59.293 68.112 59.2985 68.0988 59.3107C68.2343 59.405 68.3333 59.4599 68.396 59.4752C68.6327 59.5738 68.7836 59.7512 68.8489 60.0073C68.9263 60.2767 68.893 60.4653 68.7491 60.5733C68.5525 60.7298 68.1797 60.4037 67.6308 59.5951C67.6176 59.6072 67.5907 59.6441 67.5501 59.7058C67.4974 59.7543 67.4644 59.7846 67.4513 59.7967C67.1745 60.0512 66.8746 60.254 66.5514 60.4052C66.2911 60.5716 65.9888 60.6793 65.6446 60.7283C65.3884 60.7935 65.1168 60.7758 64.8296 60.6751C64.5908 60.6271 64.3806 60.5042 64.1988 60.3065L64.0352 60.1286C63.9019 59.9836 63.7965 59.7765 63.7191 59.5071C63.4978 59.3458 63.3303 59.1107 63.2165 58.8018C61.8988 55.1734 60.3921 50.9162 58.6963 46.0301L58.7018 46.3534C59.0089 50.8138 59.2437 53.9787 59.4061 55.8481L59.4581 56.4205C59.5364 57.2728 59.625 58.0304 59.7239 58.6934L59.7689 58.9804C59.8021 59.0958 59.8265 59.2679 59.8423 59.4967L59.8407 59.5346C60.19 59.9674 60.4065 60.2426 60.4903 60.3601C60.691 60.7106 61.098 61.1268 61.7114 61.6087C62.3247 62.0906 62.8135 62.3708 63.1776 62.4494C63.5165 62.527 63.684 62.7621 63.6802 63.1547C63.6896 63.5353 63.557 63.8275 63.2824 64.0314C63.0341 64.211 62.7498 64.1928 62.4294 63.9766C62.1101 63.7351 61.9265 63.4297 61.8786 63.0602C61.8376 62.8304 61.2596 62.1093 60.1447 60.8968C60.0602 61.7042 59.6434 62.428 58.8943 63.0681C58.4878 63.3932 58.0593 63.6413 57.6086 63.8125C57.0894 64.4116 56.4768 64.8167 55.7711 65.0279C55.0653 65.239 54.4619 65.125 53.9608 64.6859C53.789 64.552 53.6684 64.4075 53.5989 64.2526C51.0852 61.0428 48.57 57.871 46.0531 54.7371C47.0832 57.9734 47.9429 60.5879 48.6323 62.5808C48.6565 62.6072 48.6797 62.6589 48.7018 62.7358C50.0284 66.4533 51.3923 69.7353 52.7935 72.5816C53.2128 73.4608 52.925 74.4307 51.9302 75.4914C51.9666 75.5309 51.9964 75.5765 52.0195 75.6282C52.068 75.6809 52.0983 75.7138 52.1104 75.727C52.3111 76.0776 52.7182 76.4938 53.3315 76.9756C53.957 77.4707 54.4518 77.7575 54.8159 77.8361C55.1548 77.9137 55.3163 78.1422 55.3004 78.5217C55.3097 78.9022 55.1771 79.1944 54.9025 79.3983C54.6542 79.5779 54.3699 79.5597 54.0495 79.3435C53.7291 79.1273 53.545 78.8345 53.4971 78.4651C53.4682 78.2484 52.7812 77.4087 51.436 75.9458C51.0428 76.2588 50.6659 76.4837 50.3054 76.6207C49.8399 77.146 49.3043 77.529 48.6987 77.7697C48.0809 77.9972 47.5563 77.9689 47.1247 77.6847C45.9897 76.9529 45.1179 76.1371 44.5094 75.2373C44.0684 74.5726 44.1008 73.801 44.6065 72.9226C43.2454 69.7231 41.4519 64.5986 39.226 57.5489C36.988 50.4861 35.0809 45.1984 33.505 41.6858C32.9871 41.0432 32.6262 40.2805 32.4225 39.3977C32.3172 38.8864 32.4165 38.3331 32.7202 37.7376C33.0239 37.1421 33.4438 36.6466 33.9799 36.2509C34.0237 36.1133 34.0857 35.9956 34.1658 35.8976C34.8307 34.8484 35.6556 34.2114 36.6407 33.9867C37.7561 33.3745 38.646 33.4562 39.3103 34.2316C43.4521 39.1062 47.7384 44.3099 52.1693 49.8428C51.1867 34.5965 50.6392 26.1981 50.5268 24.6475C50.4738 23.7964 50.9576 22.9867 51.9781 22.2186C52.1337 21.8323 52.3635 21.4871 52.6677 21.1831C53.5428 20.2568 54.4687 19.7825 55.4453 19.7601C56.0762 19.5204 56.6217 19.5053 57.0817 19.7146C57.467 19.8955 57.732 20.2234 57.8768 20.6983C59.0348 24.206 60.6015 28.8459 62.5769 34.6179C62.6618 34.7102 62.74 34.8085 62.8117 34.9129ZM53.051 21.5603L53.0297 21.6164L52.9901 21.6528C53.3891 21.5048 53.7151 21.4361 53.9681 21.4467C54.4451 21.2513 54.8839 21.2127 55.2844 21.3308C55.6728 21.4358 55.946 21.7197 56.104 22.1825C57.0145 24.9449 57.904 27.6051 58.7724 30.163C59.1487 30.2548 59.404 30.3605 59.5384 30.4802C59.6232 30.5724 59.7654 30.8065 59.9651 31.1823C60.1658 31.5328 60.3417 31.8697 60.4929 32.1928L60.7576 32.679C61.0495 32.97 61.353 33.2869 61.6681 33.6295C60.4252 30.0295 58.9944 25.7755 57.3755 20.8673C57.2628 20.5332 57.0882 20.3168 56.8516 20.2181C56.5159 20.0647 56.0903 20.0912 55.5748 20.2977L55.4791 20.3127C54.6433 20.303 53.8339 20.7188 53.051 21.5603ZM68.3402 58.5415C68.4962 58.4467 68.6071 58.369 68.673 58.3084C68.6499 58.2567 68.5959 58.1848 68.511 58.0925C68.452 58.2928 68.395 58.4424 68.3402 58.5415ZM35.3494 35.32C35.2703 35.3927 35.1507 35.5271 34.9904 35.7231C35.0937 35.6767 35.1646 35.648 35.2031 35.637C36.2141 35.0965 37.0038 35.1486 37.5723 35.7933C42.8236 42.0068 47.7843 48.0498 52.4545 53.9221C52.4308 53.579 52.3954 53.0644 52.3481 52.3782C52.3019 51.6667 52.267 51.1394 52.2434 50.7962C48.5353 46.1553 44.0799 40.7544 38.877 34.5936C38.4055 34.0543 37.729 34.0196 36.8477 34.4895L36.7702 34.5243C36.2974 34.6185 35.8238 34.8837 35.3494 35.32ZM50.9357 75.6398C50.9489 75.6276 50.9747 75.6161 51.0132 75.605C51.0395 75.5808 51.0593 75.5626 51.0725 75.5505L50.9998 75.4714L50.9357 75.6398ZM52.2891 72.8265C50.9574 70.1352 49.6217 66.9368 48.2819 63.2314C48.0104 63.3594 47.6984 63.2449 47.3459 62.888C46.9935 62.5311 46.7893 62.1108 46.7336 61.6269C46.6857 61.2575 46.3382 60.9325 45.6911 60.6519C47.5143 66.1262 49.2903 70.6101 51.0191 74.1037C51.0876 74.284 51.1263 74.4187 51.1352 74.5077C51.1958 74.5736 51.274 74.6719 51.3699 74.8027C51.4669 74.9081 51.5396 74.9872 51.588 75.0399C52.3456 74.1974 52.5793 73.4596 52.2891 72.8265ZM45.2138 53.9037C45.2027 53.8652 45.1862 53.8075 45.164 53.7305C45.1298 53.6404 45.1072 53.5761 45.0961 53.5376C44.446 52.7247 43.5181 51.5835 42.3127 50.1138C42.4807 50.6403 43.2758 53.1318 44.6982 57.5883C44.861 57.6331 44.9849 57.7017 45.0697 57.7939C45.1545 57.8862 45.2968 58.1202 45.4964 58.496C45.6971 58.8466 45.8797 59.1773 46.044 59.4883L46.2708 59.973C46.7808 60.5012 47.2479 60.996 47.672 61.4572C47.1196 59.8248 46.3002 57.307 45.2138 53.9037ZM58.5323 62.6348C58.9003 62.3208 59.1884 61.9464 59.3967 61.5117C59.5928 61.0637 59.6422 60.6413 59.5448 60.2444C59.1328 59.7964 58.5258 59.1627 57.7239 58.3435C57.7912 59.1572 57.8608 59.762 57.9329 60.1578C57.9429 60.2216 57.9695 60.3431 58.0127 60.5223C58.0437 60.6883 58.0577 60.8093 58.0545 60.8852L58.0481 61.037C58.036 61.0238 58.0299 61.0172 58.0299 61.0172L58.0134 60.9595C58.0255 60.9727 58.0371 60.9985 58.0481 61.037C58.0602 61.0502 58.0724 61.0633 58.0845 61.0765L58.0829 61.1145C58.428 61.6484 58.4597 62.2516 58.1781 62.9241C58.2693 62.8645 58.3873 62.7681 58.5323 62.6348ZM58.1437 46.064C58.128 45.8352 58.1038 45.5048 58.0712 45.0726C58.0266 44.6272 58.0024 44.2968 57.9988 44.0812C57.8176 43.5668 57.5459 42.7951 57.1835 41.7663C56.8223 40.7121 56.5516 39.9152 56.3715 39.3754L56.8888 47.4368C57.168 51.6553 57.4028 54.8202 57.593 56.9315C57.9687 57.3401 58.4827 57.9255 59.1349 58.6877L59.0568 58.2853L59.1097 58.3826C59.0697 58.1275 59.0279 57.7646 58.9843 57.294C58.9407 56.8233 58.9144 56.5434 58.9055 56.4544L58.8716 55.9018C58.6667 53.5364 58.4259 50.3649 58.1492 46.3873L58.1437 46.064ZM69.0353 54.6553C67.172 49.5342 64.9753 43.2967 62.4454 35.9429C62.1935 35.907 61.9413 35.7253 61.689 35.398C61.4245 35.0574 61.2683 34.7025 61.2204 34.333C61.2026 34.1548 61.1391 34.0065 61.03 33.8879C60.921 33.7692 60.8042 33.682 60.6799 33.6261C60.5687 33.5581 60.4201 33.4758 60.2341 33.3793C60.0481 33.2828 59.8995 33.2006 59.7883 33.1326C62.462 40.9866 65.1271 48.5932 67.7835 55.9523L67.8049 55.8962C68.3967 55.9844 68.7901 56.1212 68.985 56.3068C69.0588 56.3606 69.249 56.66 69.5556 57.205C69.6115 57.0806 69.6832 56.8809 69.7708 56.6058L69.8112 56.0943C69.7987 55.7897 69.7075 55.5451 69.5379 55.3606L69.3925 55.2025C69.3198 55.1234 69.2586 55.0702 69.2091 55.0428L69.1166 54.9819L69.0834 54.8664C69.0856 54.8158 69.0695 54.7455 69.0353 54.6553ZM77.067 22.4251L77.0472 22.4432C77.0461 22.4685 77.039 22.4872 77.0258 22.4994C79.2282 24.9738 80.5767 26.5065 81.0715 27.0975C83.3766 25.6102 85.3918 24.0855 87.1172 22.5233C87.6575 22.0265 88.2603 21.7033 88.9254 21.5538C89.4915 21.3495 89.9991 21.3327 90.4481 21.5036C90.8849 21.6613 91.2071 21.9852 91.4147 22.4754L98.2891 38.4819C98.4977 38.9468 98.4886 39.4659 98.2618 40.0393C98.0482 40.6005 97.6976 41.1053 97.21 41.5537L97.1902 41.5719L97.6817 42.5428C99.0036 43.954 99.7368 44.7514 99.8811 44.9348C100.062 45.1578 100.131 45.3254 100.088 45.4377C100.021 45.5235 99.9218 45.6271 99.79 45.7483C99.5407 45.9532 99.2211 45.8701 98.8311 45.499C98.4412 45.1279 98.2124 44.6938 98.1445 44.1968C98.1088 43.8405 97.8108 43.5429 97.2506 43.304C96.7157 43.0662 96.3788 42.7923 96.2397 42.4824C96.2165 42.4307 96.1747 42.3719 96.1141 42.306C96.0888 42.305 96.0563 42.3226 96.0168 42.359C95.9905 42.3832 95.9646 42.3948 95.9393 42.3937L95.8239 42.4269C95.6252 42.634 95.4077 42.8339 95.1715 43.0268C95.4887 43.3188 95.7161 43.4868 95.8537 43.5305C96.0903 43.6292 96.2473 43.8131 96.3247 44.0825C96.4153 44.3397 96.3886 44.5223 96.2447 44.6303C96.114 44.7262 95.8911 44.6028 95.576 44.2601C95.273 43.9307 95.0272 43.5973 94.8387 43.2599C94.2398 43.6403 93.6561 43.8122 93.0875 43.7757C92.5441 43.7402 92.151 43.445 91.9082 42.89L90.716 40.046C90.2031 40.4934 89.5763 40.9359 88.8357 41.3737C87.9559 42.1097 86.922 42.7443 85.7339 43.2773L86.189 44.2087C87.511 45.6199 88.2441 46.4172 88.3885 46.6007C88.5571 46.8105 88.6205 46.9589 88.5789 47.0458C88.5372 47.1328 88.4373 47.2489 88.2792 47.3944C88.0298 47.5993 87.7102 47.5162 87.3203 47.1451C86.9425 46.7871 86.7197 46.3597 86.6518 45.8626C86.6161 45.5064 86.3181 45.2088 85.7579 44.9699C85.2109 44.7189 84.8679 44.4384 84.7289 44.1285C84.6946 44.0383 84.6169 43.9274 84.4957 43.7956C84.354 43.853 83.9428 43.9878 83.2624 44.2C83.559 44.6813 83.9318 45.0073 84.3808 45.1782C84.6174 45.2768 84.7683 45.4542 84.8336 45.7104C84.911 45.9797 84.8778 46.1684 84.7338 46.2764C84.5546 46.3196 84.3257 46.1896 84.047 45.8865C83.7814 45.5712 83.5301 45.2186 83.293 44.8285C83.175 44.6208 83.0494 44.4445 82.9161 44.2995C81.6464 44.6644 80.691 44.9348 80.0501 45.1107C79.3971 45.2734 78.5098 45.4326 77.3882 45.5883C76.2798 45.7319 75.3164 45.7422 74.498 45.6192C75.1018 46.3287 75.445 46.7549 75.5277 46.8977C75.7284 47.2483 76.1415 47.6711 76.767 48.1661C77.3803 48.648 77.8691 48.9282 78.2332 49.0068C78.5721 49.0844 78.7462 49.3134 78.7556 49.694C78.7397 50.0734 78.5944 50.3651 78.3198 50.569C78.0715 50.7486 77.7872 50.7304 77.4668 50.5142C77.1464 50.2981 76.9623 50.0052 76.9144 49.6358C76.8544 49.2531 75.5791 47.7869 73.0885 45.237C71.867 44.7549 70.8901 43.8777 70.1578 42.6052C69.8744 42.1119 69.6366 41.5887 69.4444 41.0358C69.24 40.4697 69.0702 39.8354 68.935 39.1328C68.7876 38.4171 68.691 37.8492 68.6453 37.4291C68.5742 37.008 68.494 36.3521 68.4047 35.4614C68.3153 34.5706 68.2506 33.9977 68.2106 33.7427C67.8205 30.3558 67.503 27.0481 67.2582 23.8194C67.0854 21.5948 66.8655 18.0757 66.5985 13.2622C66.5838 13.0082 66.5457 12.5568 66.4842 11.908C66.4227 11.2592 66.3928 10.7638 66.3945 10.4217C66.384 10.0665 66.396 9.62985 66.4304 9.11179C66.4648 8.59372 66.5664 8.13549 66.7351 7.7371C66.9171 7.32658 67.1672 6.95061 67.4856 6.60918C67.5955 5.80284 68.0811 5.10096 68.9424 4.50353C69.2525 3.75627 69.752 3.17535 70.4409 2.76075C71.3913 2.15438 72.2852 1.98913 73.1226 2.26498C73.5595 2.42268 73.9349 2.6855 74.2489 3.05346C74.6588 3.55214 74.7731 4.15246 74.5916 4.85442L79.6278 18.4651C79.8895 19.1729 79.7434 19.9397 79.1892 20.7655C78.623 21.578 77.9348 22.1257 77.1247 22.4085L77.0867 22.4069L77.067 22.4251ZM73.9594 28.0917C73.7428 26.0046 73.5886 24.3953 73.4966 23.2637C73.4239 23.1846 73.3412 23.0418 73.2485 22.8352C73.2143 22.745 73.1563 22.6159 73.0747 22.4477C73.0062 22.2675 72.9549 22.1323 72.9206 22.0421C72.8522 21.8619 72.8135 21.7272 72.8045 21.6381C72.6908 21.3293 72.5196 20.8786 72.291 20.2862C72.0756 19.6816 71.9171 19.2315 71.8154 18.9358C71.8312 19.1645 71.8488 19.501 71.8682 19.9453C71.9007 20.3775 71.9254 20.6953 71.9422 20.8988C72.0929 23.0465 72.2129 24.5657 72.3023 25.4564C72.3871 25.5486 72.5294 25.7827 72.729 26.1585C72.9297 26.509 73.1057 26.8458 73.2569 27.169L73.5034 27.6354C73.6377 27.7551 73.7898 27.9072 73.9594 28.0917ZM74.4927 32.5996C74.4558 32.2686 74.3996 31.7974 74.3238 31.186C74.2481 30.5746 74.1963 30.148 74.1684 29.9061C74.0515 29.6731 73.9841 29.4675 73.9662 29.2894C73.9483 29.1113 73.8849 28.9629 73.7758 28.8443C73.6667 28.7257 73.55 28.6384 73.4257 28.5825C73.3145 28.5145 73.1719 28.4388 72.998 28.3555C72.812 28.259 72.6634 28.1768 72.5522 28.1087C72.8224 30.7303 73.0443 32.6909 73.2179 33.9906C73.2279 34.0544 73.2663 34.3474 73.3331 34.8697C73.3878 35.3789 73.4307 35.7164 73.4617 35.8825C73.4806 36.0353 73.5312 36.3415 73.6133 36.8011C73.6954 37.2607 73.7822 37.6065 73.8739 37.8384C73.9534 38.0571 74.0556 38.3402 74.1804 38.6875C74.3052 39.0349 74.4508 39.3387 74.6173 39.5991C74.7838 39.8595 74.9766 40.0957 75.1958 40.3076C75.4271 40.5327 75.6919 40.7149 75.9902 40.8541C76.2763 40.9801 76.5322 41.0732 76.7577 41.1334C76.9843 41.1682 77.2945 41.1749 77.6882 41.1534C78.083 41.1066 78.3694 41.0742 78.5476 41.0564C78.7268 41.0132 79.0467 40.9379 79.5073 40.8305C79.968 40.7231 80.2495 40.6589 80.3517 40.6378C81.6182 40.3488 82.5137 40.1456 83.0382 40.0282C83.5636 39.8855 84.2138 39.6404 84.9886 39.2927C85.7766 38.933 86.4023 38.5157 86.8657 38.041C86.0382 38.4371 84.5178 38.8865 82.3047 39.3893L81.9402 39.469C81.6588 39.5332 81.4411 39.5875 81.2872 39.6317C80.7749 39.7623 80.3593 39.8526 80.0404 39.9025C79.7215 39.9525 79.3334 39.9933 78.8759 40.0248C78.4195 40.031 77.9981 39.9563 77.6119 39.8007C77.2256 39.6451 76.8744 39.4087 76.5583 39.0913C76.1209 38.6422 75.7532 38.0439 75.4551 37.2965C75.157 36.5491 74.9619 35.9137 74.8698 35.3903C74.7788 34.8416 74.6759 34.1214 74.5613 33.2297C74.5513 33.1659 74.5429 33.0642 74.536 32.9245C74.5171 32.7717 74.5026 32.6633 74.4927 32.5996ZM80.3755 28.2847L80.7858 28.0168L80.7495 27.9773C80.6583 28.0368 80.5336 28.1393 80.3755 28.2847ZM79.0851 29.1429C79.3503 28.5585 79.7839 28.0381 80.3859 27.5819C78.8205 25.9324 77.4182 24.4735 76.179 23.2051C75.3967 23.7298 74.6997 23.8843 74.0878 23.6686C74.2602 25.6018 74.4234 27.3002 74.5774 28.7638C75.2682 29.515 75.6433 29.9362 75.7029 30.0274C75.715 30.0406 75.7453 30.0736 75.7938 30.1263C75.8422 30.179 75.8659 30.218 75.8649 30.2433C75.877 30.2565 75.8946 30.2889 75.9178 30.3405C75.942 30.3669 75.947 30.3988 75.9328 30.4362C75.9196 30.4483 75.9054 30.4857 75.8901 30.5485C75.8758 30.5859 75.8424 30.6288 75.7897 30.6773C75.7501 30.7136 75.6974 30.7621 75.6315 30.8227C75.4217 30.9913 75.1445 30.9543 74.7999 30.7118C74.9177 31.5277 75 32.133 75.0468 32.5278C75.0568 32.5915 75.0713 32.6999 75.0902 32.8527C75.0971 32.9924 75.1055 33.0941 75.1155 33.1579C75.218 34.0365 75.3159 34.7248 75.409 35.2229C75.49 35.7077 75.6675 36.3107 75.9414 37.0318C76.2031 37.7396 76.5345 38.2984 76.9354 38.708C77.2031 38.9726 77.4987 39.1751 77.8223 39.3154C78.1469 39.4304 78.5187 39.4776 78.9377 39.4572C79.3567 39.4367 79.7064 39.407 79.9868 39.3681C80.2551 39.316 80.6454 39.2247 81.1577 39.0941C81.1962 39.083 81.4265 39.0293 81.8487 38.933L82.1752 38.8517C83.1856 38.6279 83.9337 38.4629 84.4197 38.3566C84.9067 38.2249 85.4788 38.0272 86.1361 37.7633C86.7945 37.4741 87.34 37.1549 87.7728 36.8056C88.0865 36.2739 88.3286 35.6378 88.499 34.8974C88.2099 34.2391 87.7827 33.2455 87.2175 31.9167C86.6524 30.5879 86.2252 29.5943 85.936 28.936C85.1517 29.5113 84.5639 29.9301 84.1728 30.1925C84.5548 30.4493 84.8834 30.6214 85.1585 30.709C85.5964 30.8414 85.8245 31.1424 85.8428 31.612C85.8612 32.0816 85.7072 32.4299 85.3809 32.6569C85.081 32.8598 84.7279 32.8196 84.3216 32.5365C83.9164 32.2281 83.6667 31.8375 83.5724 31.3647C83.5503 31.2878 83.4797 31.1581 83.3607 30.9757C83.0718 31.217 82.7086 31.4172 82.2711 31.5762C81.6981 32.2491 80.9696 32.7001 80.0857 32.9291C80.0088 32.9512 79.8933 32.9844 79.7394 33.0286C79.5866 33.0476 79.4717 33.0681 79.3947 33.0902C78.9341 33.1976 78.5193 33.1168 78.1505 32.848C77.7948 32.567 77.6012 32.1977 77.5697 31.7402C77.5078 30.8 78.0129 29.9342 79.0851 29.1429ZM70.7452 3.21065C70.4463 3.38819 70.1498 3.66085 69.8556 4.02864C70.4723 3.82642 71.0183 3.79863 71.4936 3.94527C71.8689 4.06237 72.2014 4.29172 72.4911 4.63331C72.8536 5.05398 72.9381 5.6087 72.7445 6.29749C73.3143 7.81655 74.1625 10.1012 75.2891 13.1514C76.4166 16.1764 77.2588 18.4544 77.8155 19.9856C77.9856 20.4616 77.9522 20.9543 77.7155 21.4639C78.2505 21.0936 78.6556 20.648 78.9309 20.1274C79.2072 19.5815 79.2658 19.0898 79.1068 18.6523L74.001 4.88668L74.024 4.79261C74.2002 4.21713 74.1373 3.75201 73.8354 3.39724C73.6062 3.12154 73.3106 2.91908 72.9486 2.78986C72.2608 2.57097 71.5264 2.71123 70.7452 3.21065ZM89.0747 22.0732C88.4865 22.2006 87.9486 22.4885 87.461 22.9369C87.3951 22.9975 87.2963 23.0884 87.1645 23.2095C87.0337 23.3054 86.942 23.3776 86.8893 23.4261C86.9278 23.415 87.1075 23.3592 87.4285 23.2586C88.5211 22.8863 89.2457 23.1321 89.6023 23.996C90.3639 25.7765 91.5124 28.4539 93.0478 32.0281C94.5843 35.577 95.7333 38.2417 96.4949 40.0222C96.5413 40.1256 96.5723 40.2916 96.5881 40.5203C96.6123 40.5467 96.6421 40.5923 96.6774 40.6571C96.7248 40.7351 96.7661 40.8065 96.8014 40.8714C96.862 40.9373 96.91 41.0026 96.9453 41.0675C97.804 40.2292 98.0777 39.4424 97.7665 38.7071L90.9118 22.6824C90.6005 21.9471 89.9882 21.7441 89.0747 22.0732ZM82.1767 27.0298C82.0987 27.0772 81.9745 27.167 81.8043 27.2992C81.6219 27.4183 81.4917 27.5015 81.4137 27.549L81.4318 27.5687C81.5098 27.5213 81.64 27.4381 81.8224 27.319C81.9927 27.1868 82.1108 27.0904 82.1767 27.0298Z" fill="#FA1317"/>
</svg>
