<svg width="91" height="74" viewBox="0 0 91 74" fill="none" xmlns="http://www.w3.org/2000/svg">
<path d="M88.5827 3.06127C88.8207 2.35527 88.3367 1.27727 87.5067 0.665269C86.0017 -0.442731 82.2507 -0.0847306 82.5907 1.13427C82.6887 1.48827 81.4347 3.75727 79.8047 6.17727C77.2387 9.98327 75.4837 12.6833 74.6007 14.1833C74.4687 14.4063 71.1477 11.3693 67.2197 7.43327C60.1477 0.347269 57.0537 -1.09973 53.6287 1.07727C50.3377 3.16927 49.0257 11.4023 48.0567 36.0553C47.9657 38.3663 46.1437 36.7733 43.4707 32.0453C42.0237 29.4863 39.8527 26.1763 38.6467 24.6893C36.5927 22.1563 36.0887 22.0233 30.6467 22.5803C26.3317 23.0223 24.4867 23.7023 23.4677 25.2263C22.7127 26.3543 21.5257 27.2773 20.8277 27.2773C20.1307 27.2773 18.9627 29.3023 18.2317 31.7773C17.5007 34.2523 16.5247 36.2773 16.0627 36.2773C15.5997 36.2773 15.4997 36.7273 15.8397 37.2773C16.1797 37.8273 15.9457 38.2773 15.3187 38.2773C14.5127 38.2773 14.3837 36.3803 14.8757 31.7813C15.5227 25.7433 15.4057 25.1473 13.2057 23.3153C10.0677 20.7003 6.78766 20.7753 3.85266 23.5273C0.0976639 27.0473 -0.945335 30.8253 0.868668 34.3333C1.70567 35.9523 2.82966 37.2773 3.36566 37.2773C4.95667 37.2773 4.56966 52.3623 2.93066 54.1983C0.435661 56.9933 0.590652 61.9313 3.25266 64.4103C6.08865 67.0533 14.7817 68.0523 16.0597 65.8833C16.4887 65.1553 18.9737 64.3273 21.5807 64.0423C25.9087 63.5703 26.6287 63.8133 29.8307 66.8343C29.8307 66.8343 35.3447 75.5883 35.3697 72.5273C35.3947 69.4663 35.5897 69.1023 36.4317 70.5483C36.9987 71.5223 37.8847 72.0583 38.4007 71.7393C38.9177 71.4203 39.3397 71.6363 39.3397 72.2183C39.3397 72.8003 41.3397 72.1523 41.3397 70.7773C41.3397 69.4023 41.7377 68.2773 42.2227 68.2773C42.7087 68.2773 43.4347 67.2643 43.8367 66.0273C44.8977 62.7573 45.1737 58.2773 44.3137 58.2773C43.9067 58.2773 43.3257 57.3323 43.0237 56.1763C42.7067 54.9643 42.0047 54.3663 41.3637 54.7623C40.7517 55.1403 39.6007 54.9083 38.8047 54.2483C37.1817 52.9013 29.0387 52.5493 25.5897 53.6763C22.7117 54.6173 22.5287 52.3213 25.2827 49.8283C26.3517 48.8613 27.5007 46.8793 27.8347 45.4233C28.1697 43.9683 29.4697 41.5143 30.7247 39.9713L33.0047 37.1643L36.4447 40.9713C44.6347 50.0323 49.3127 51.4753 53.6777 46.2873C56.6677 42.7333 57.7847 35.7623 57.0777 25.0683C56.5337 16.8543 57.5117 12.9693 59.9977 13.4543C60.9067 13.6323 61.7537 14.4523 61.8787 15.2773C62.3067 18.0863 67.4857 28.0993 69.4137 29.8443C71.5067 31.7383 78.3397 32.6673 78.3397 31.0583C78.3397 30.5113 79.0017 30.3173 79.8107 30.6283C81.6317 31.3263 83.5757 29.4383 86.9317 23.7103C89.7357 18.9263 91.0967 7.89427 89.1707 5.57327C88.6097 4.89727 88.3447 3.76727 88.5827 3.06127Z" fill="#FA1317"/>
</svg>
