<svg width="91" height="74" viewBox="0 0 91 74" fill="none" xmlns="http://www.w3.org/2000/svg">
<path d="M1.48766 3.06127C1.24966 2.35527 1.73365 1.27727 2.56365 0.665269C4.06865 -0.442731 7.81965 -0.0847306 7.47965 1.13427C7.38165 1.48827 8.63566 3.75727 10.2657 6.17727C12.8317 9.98327 14.5867 12.6833 15.4697 14.1833C15.6017 14.4063 18.9226 11.3693 22.8506 7.43327C29.9226 0.347269 33.0167 -1.09973 36.4417 1.07727C39.7327 3.16927 41.0447 11.4023 42.0137 36.0553C42.1047 38.3663 43.9267 36.7733 46.5997 32.0453C48.0467 29.4863 50.2176 26.1763 51.4236 24.6893C53.4776 22.1563 53.9816 22.0233 59.4236 22.5803C63.7386 23.0223 65.5836 23.7023 66.6026 25.2263C67.3576 26.3543 68.5446 27.2773 69.2426 27.2773C69.9396 27.2773 71.1077 29.3023 71.8387 31.7773C72.5697 34.2523 73.5456 36.2773 74.0076 36.2773C74.4706 36.2773 74.5706 36.7273 74.2307 37.2773C73.8907 37.8273 74.1246 38.2773 74.7516 38.2773C75.5576 38.2773 75.6867 36.3803 75.1947 31.7813C74.5477 25.7433 74.6647 25.1473 76.8647 23.3153C80.0027 20.7003 83.2827 20.7753 86.2177 23.5273C89.9726 27.0473 91.0156 30.8253 89.2016 34.3333C88.3646 35.9523 87.2407 37.2773 86.7047 37.2773C85.1136 37.2773 85.5006 52.3623 87.1396 54.1983C89.6347 56.9933 89.4797 61.9313 86.8177 64.4103C83.9817 67.0533 75.2887 68.0523 74.0107 65.8833C73.5816 65.1553 71.0967 64.3273 68.4897 64.0423C64.1617 63.5703 63.4417 63.8133 60.2397 66.8343C60.2397 66.8343 54.7257 75.5883 54.7007 72.5273C54.6757 69.4663 54.4807 69.1023 53.6387 70.5483C53.0717 71.5223 52.1856 72.0583 51.6697 71.7393C51.1527 71.4203 50.7307 71.6363 50.7307 72.2183C50.7307 72.8003 48.7307 72.1523 48.7307 70.7773C48.7307 69.4023 48.3327 68.2773 47.8477 68.2773C47.3617 68.2773 46.6357 67.2643 46.2337 66.0273C45.1727 62.7573 44.8967 58.2773 45.7567 58.2773C46.1637 58.2773 46.7447 57.3323 47.0466 56.1763C47.3637 54.9643 48.0657 54.3663 48.7067 54.7623C49.3187 55.1403 50.4697 54.9083 51.2657 54.2483C52.8887 52.9013 61.0317 52.5493 64.4807 53.6763C67.3587 54.6173 67.5417 52.3213 64.7877 49.8283C63.7187 48.8613 62.5697 46.8793 62.2357 45.4233C61.9007 43.9683 60.6007 41.5143 59.3457 39.9713L57.0657 37.1643L53.6257 40.9713C45.4357 50.0323 40.7577 51.4753 36.3927 46.2873C33.4027 42.7333 32.2856 35.7623 32.9926 25.0683C33.5366 16.8543 32.5586 12.9693 30.0726 13.4543C29.1636 13.6323 28.3167 14.4523 28.1917 15.2773C27.7637 18.0863 22.5846 28.0993 20.6566 29.8443C18.5636 31.7383 11.7307 32.6673 11.7307 31.0583C11.7307 30.5113 11.0687 30.3173 10.2597 30.6283C8.43866 31.3263 6.49465 29.4383 3.13865 23.7103C0.334651 18.9263 -1.02635 7.89427 0.899653 5.57327C1.46065 4.89727 1.72566 3.76727 1.48766 3.06127Z" fill="#FA1317"/>
</svg>
