<svg width="244" height="187" viewBox="0 0 244 187" fill="none" xmlns="http://www.w3.org/2000/svg">
<path fill-rule="evenodd" clip-rule="evenodd" d="M199.904 107.713C199.933 106.867 199.704 106.465 199.355 106.752C199.026 107.022 198.52 106.957 198.232 106.606C197.943 106.255 198.219 105.798 198.845 105.589C199.47 105.38 199.782 104.967 199.538 104.67C199.293 104.373 199.605 103.959 200.231 103.75C202.298 103.061 200.545 102.305 198.359 102.943C196.67 103.436 196.53 103.391 197.698 102.727C198.654 102.184 198.943 101.598 198.513 101.074C198.147 100.629 197.514 100.52 197.108 100.834C196.701 101.147 196.936 100.295 197.63 98.9412C198.323 97.5865 198.722 96.485 198.515 96.4929C196.595 96.5696 191.867 97.6676 192.511 97.8873C192.968 98.0437 193.204 98.2852 193.035 98.424C192.554 98.8198 188.285 96.8368 188.343 96.2445C188.372 95.9541 187.85 95.898 187.185 96.1194C186.381 96.3876 186.293 96.6616 186.923 96.9394C187.445 97.1689 187.127 97.2089 186.215 97.0278C185.304 96.8466 184.264 96.9418 183.903 97.239C183.541 97.5361 183.032 97.5199 182.772 97.2029C182.511 96.8859 181.949 96.9132 181.522 97.2639C181.096 97.6146 179.851 97.7688 178.756 97.6064C177.661 97.4439 176.512 97.52 176.202 97.7749C175.892 98.0294 174.694 98.078 173.541 97.8823C172.388 97.6866 171.582 97.6928 171.749 97.8956C171.916 98.0991 169.617 98.6074 166.641 99.0259L161.228 99.7861L157.321 95.9035C155.171 93.7689 153.431 91.8391 153.453 91.6154C153.474 91.3922 155.236 90.235 157.367 89.0449C159.499 87.8544 162.651 85.974 164.371 84.8663C166.093 83.7588 168.112 82.7306 168.86 82.5814C169.607 82.4327 170.7 81.8867 171.288 81.3673C172.896 79.9481 184.842 72.3683 186.148 71.9375C189.693 70.7698 194.585 67.3855 206.654 57.7503C213.006 52.6789 218.477 48.5565 218.811 48.589C219.145 48.621 219.714 47.9296 220.076 47.0526C220.599 45.7847 221.044 45.5365 222.244 45.8444C223.085 46.0605 223.704 45.8612 223.641 45.3954C223.575 44.914 227.021 41.7428 231.761 37.9206C237.833 33.026 239.903 31.0449 239.647 30.3769C239.456 29.8779 239.654 29.1789 240.087 28.8225C240.52 28.4666 240.77 27.5012 240.64 26.6775C240.436 25.3714 240.57 25.2298 241.694 25.5695C242.775 25.8955 242.843 25.7627 242.112 24.7424C241.634 24.0734 241.052 23.3571 240.818 23.1503C240.585 22.9437 240.768 22.4664 241.226 22.0901C241.684 21.7139 241.988 20.4977 241.902 19.3872C241.816 18.2772 242 17.6776 242.31 18.0551C242.631 18.4447 243.145 18.2653 243.5 17.6404C243.992 16.7724 243.885 16.5721 242.99 16.6937C242.108 16.8129 242.006 16.5802 242.531 15.6545C243.4 14.1239 242.037 13.6113 241.057 15.0992C240.385 16.1194 240.361 16.0874 240.796 14.7356C241.059 13.9194 241.724 13.1906 242.273 13.1164C242.955 13.0244 242.844 12.6706 241.925 12.0042C241.044 11.367 240.754 10.5716 241.089 9.71469C241.376 8.97929 241.207 8.37541 240.705 8.3423C240.211 8.30953 239.958 8.70474 240.144 9.21959C240.329 9.73491 240.063 10.2131 239.552 10.2825C238.957 10.3629 239.029 10.5628 239.75 10.8373C240.37 11.0743 239.767 11.1417 238.41 10.9875C236.031 10.7178 235.958 10.6487 236.37 9.04228C236.736 7.61588 236.663 7.48785 235.857 8.15038C235.339 8.57595 234.974 9.35411 235.046 9.88005C235.218 11.1506 228.612 15.3389 226.726 15.1549C225.769 15.0616 223.99 13.4021 221.136 9.93863C215.609 3.23518 212.832 0.826783 211.917 1.94786C211.331 2.66781 212.307 4.12071 217.581 10.3776C221.758 15.3324 223.746 18.1086 223.349 18.4347C222.973 18.7437 221.173 17.0227 218.595 13.8915C212.119 6.02674 205.918 -0.193319 205.39 0.645779C205.091 1.11969 207.604 4.8367 212.542 11.2224C216.729 16.638 219.929 21.2182 219.652 21.4006C219.376 21.5831 218.851 22.6876 218.487 23.8549C218.063 25.2136 217.244 26.2051 216.212 26.6081C213.813 27.5462 211.881 29.13 212.767 29.4327C213.216 29.5863 212.849 30.0196 211.896 30.4594C210.99 30.8778 210.14 31.7783 210.009 32.46C209.838 33.3535 209.389 33.6983 208.403 33.6939C207.387 33.6891 207.069 33.9417 207.168 34.6751C207.242 35.2176 206.707 35.9363 205.98 36.272C205.253 36.6072 204.82 37.0781 205.017 37.3173C205.214 37.5571 204.03 38.7955 202.386 40.0691C200.742 41.3428 199.43 42.6329 199.47 42.9358C199.512 43.2389 197.912 44.6938 195.914 46.1694C193.725 47.7859 192.474 49.0846 192.765 49.4385C193.031 49.7619 192.257 50.8033 191.046 51.7534C189.835 52.704 185.735 56.0442 181.934 59.176C178.134 62.3084 174.161 65.407 173.106 66.0622C172.05 66.7173 168.461 69.2251 165.13 71.6357C161.799 74.0462 157.17 77.1402 154.844 78.5117C152.518 79.8825 149.895 81.4503 149.014 81.9947C148.134 82.5397 146.638 83.3639 145.691 83.8271C144.743 84.2903 142.886 85.3708 141.564 86.2294C140.241 87.087 138.603 87.7866 137.923 87.7838C137.243 87.7806 136.664 88.0104 136.635 88.2944C136.578 88.8784 129.515 91.7243 124.79 93.0669C123.067 93.5562 121.472 94.0828 121.244 94.2377C121.017 94.3916 120.477 94.4835 120.044 94.4413C119.611 94.3996 118.802 94.7379 118.247 95.1943C117.068 96.1639 106.227 98.504 105.326 97.9831C104.988 97.7884 104.403 97.8834 104.025 98.1943C103.646 98.5057 101.839 98.6819 100.008 98.5871C98.1769 98.4922 96.5609 98.7593 96.4174 99.1816C96.2729 99.6037 95.8488 99.5767 95.4739 99.1208C95.0995 98.6655 94.1622 98.2904 93.3912 98.2868C92.6192 98.283 91.0695 97.3229 89.9463 96.1531C87.3466 93.446 86.2958 94.2018 88.1793 97.4253C89.3481 99.426 89.0132 99.1856 86.4106 96.1554C80.6807 89.4841 76.7018 85.8833 75.8413 86.5909C75.1918 87.125 76.182 88.4785 81.3603 94.1312C86.4886 99.7303 87.6694 101.338 87.6651 102.713C87.6521 106.852 88.4541 108.391 91.6145 110.301C93.2715 111.302 95.0478 112.064 95.5615 111.995C96.2179 111.906 96.604 112.415 96.8618 113.712C97.1998 115.405 97.3074 115.437 98.1712 114.104C98.87 113.027 99.152 112.935 99.2619 113.748C99.3604 114.478 99.5248 114.51 99.7525 113.844C99.9515 113.26 101.109 112.95 102.531 113.101C103.871 113.243 107.794 113.425 111.249 113.507C114.703 113.589 120.693 113.88 124.56 114.154C128.426 114.429 132.189 114.548 132.921 114.418C134.231 114.186 136.97 114.259 146.012 114.765C150.027 114.989 150.373 115.13 148.923 115.956C144.981 118.202 140.541 120.185 132.32 123.372C117.445 129.139 111.657 131.525 100.977 136.29C95.3171 138.814 89.0734 141.562 87.1017 142.395C85.13 143.228 81.303 144.918 78.5968 146.15C59.9681 154.633 50.8388 158.48 52.0514 157.336C53.322 156.137 53.8522 155.479 56.5918 151.697C57.7117 150.151 59.8779 147.406 61.4047 145.596C63.2199 143.444 64.4108 141.131 64.8446 138.912C65.4419 135.86 65.2749 135.235 63.1773 132.684C60.949 129.974 60.7141 129.882 57.855 130.606C55.1393 131.295 54.591 131.122 51.8964 128.736C48.0697 125.347 47.1478 126.108 50.3433 130.017C54.1484 134.67 54.1639 136.196 50.4728 142.786C48.6961 145.957 47.16 148.45 47.0581 148.326C46.9562 148.202 46.1417 149.459 45.2488 151.119C42.8038 155.662 28.4161 167.379 23.1177 169.142C21.0318 169.836 18.9169 170.436 18.418 170.476C17.4306 170.554 12.6395 172.372 10.827 173.356C10.2067 173.693 9.66997 173.935 9.63491 173.892C9.59984 173.85 8.44345 174.558 7.06456 175.466C5.68568 176.373 3.63548 177.707 2.509 178.429C0.0321779 180.016 -0.12983 181.797 1.98362 184.222C4.3325 186.919 7.46869 186.692 16.3098 183.185C24.4055 179.973 36.7412 176.57 46.4281 174.876C49.3313 174.368 51.6009 173.824 51.4715 173.666C51.163 173.291 58.0493 172.972 58.7609 173.329C59.0622 173.479 59.5486 173.406 59.842 173.164C60.3198 172.772 64.0772 172.719 68.0511 173.05C68.8546 173.117 69.5385 172.9 69.5709 172.567C69.603 172.233 70.5681 172.149 71.7162 172.378C73.3896 172.712 73.8306 172.533 73.9426 171.472C74.1199 169.801 75.6016 168.508 75.7857 169.865C75.8674 170.473 76.0451 170.505 76.2359 169.946C76.4094 169.439 76.0915 168.763 75.5303 168.445C74.3163 167.756 74.1672 167.849 73.3569 169.814C72.927 170.857 72.5806 171.142 72.2422 170.73C71.9726 170.403 72.0295 169.906 72.369 169.626C72.709 169.347 73.056 168.409 73.1405 167.543C73.225 166.677 73.0683 166.153 72.7916 166.381C72.5155 166.608 72.2416 167.286 72.1828 167.888C72.1087 168.648 71.6259 168.897 70.607 168.701C69.7994 168.546 69.3617 168.228 69.6345 167.996C69.9064 167.764 69.5499 167.647 68.841 167.735C68.1321 167.823 67.5878 167.534 67.6304 167.091C67.6741 166.648 68.4709 166.186 69.4026 166.065C71.5687 165.782 71.6455 165.701 71.1545 164.229C70.8395 163.284 70.5345 163.292 69.8325 164.26C69.2835 165.019 68.4371 165.332 67.7079 165.047C66.661 164.638 66.4772 164.854 66.3577 166.633C66.2529 168.202 65.9364 168.654 65.0285 168.526C63.7206 168.342 63.6273 166.75 64.8551 165.565C66.7408 163.744 66.8031 163.54 65.4453 163.639C64.4106 163.714 64.1956 163.522 64.5602 162.849C65.2354 161.606 63.727 161.238 63.0254 162.475C62.5684 163.279 62.7915 163.623 64.1326 164.178C65.6479 164.807 65.6545 164.875 64.2027 164.872C63.3176 164.871 62.0736 164.238 61.4385 163.466C60.803 162.693 60.165 162.408 60.0208 162.832C59.8761 163.255 59.1965 163.238 58.5104 162.794C57.8249 162.349 56.8746 162.363 56.3979 162.825C55.9223 163.288 55.1894 163.46 54.7697 163.208C53.3956 162.382 57.4695 160.427 72.0248 154.927C85.4631 149.851 89.8058 148.374 93.1716 147.738C93.9704 147.587 95.0943 147.077 95.6689 146.604C96.2441 146.131 97.1434 145.764 97.6681 145.788C98.1926 145.813 101.382 144.959 104.755 143.892C108.129 142.826 111.957 141.666 113.262 141.314C114.567 140.963 115.862 140.482 116.14 140.247C116.418 140.01 116.986 139.908 117.401 140.018C117.817 140.128 120.41 139.522 123.164 138.671C125.929 137.817 128.35 137.496 128.572 137.956C128.822 138.474 129.31 138.322 129.868 137.551C130.394 136.826 131.161 136.542 131.729 136.865C132.26 137.166 133.118 137.065 133.634 136.64C134.738 135.732 140.059 134.269 141.138 134.576C141.548 134.693 142.058 134.52 142.27 134.19C142.774 133.41 147.812 131.857 148.855 132.16C149.3 132.29 150.367 131.936 151.227 131.373C152.088 130.812 153.585 130.193 154.555 129.999C155.525 129.807 156.178 129.478 156.007 129.27C155.835 129.061 156.407 128.894 157.278 128.898C158.148 128.902 159.728 128.224 160.789 127.392C161.851 126.561 163.291 125.872 163.992 125.861C164.692 125.851 166.52 125.388 168.055 124.831C169.59 124.275 170.982 123.984 171.148 124.187C171.314 124.388 172.399 123.832 173.558 122.949C174.718 122.066 176.1 121.285 176.628 121.213C177.253 121.129 177.204 120.952 176.489 120.708C175.68 120.432 175.74 120.215 176.714 119.891C177.442 119.649 178.214 119.312 178.43 119.142C178.646 118.973 178.654 119.345 178.449 119.968C178.197 120.735 179.035 120.528 181.044 119.325C182.677 118.348 184.465 117.695 185.019 117.872C186.169 118.242 188.549 116.837 187.423 116.454C187.019 116.315 186.94 115.994 187.25 115.739C187.559 115.485 188.145 115.487 188.554 115.743C189.591 116.395 192.809 114.151 193.611 112.218C194.218 110.756 194.278 110.761 194.275 112.274C194.273 113.793 194.4 113.794 195.73 112.282C196.532 111.37 197.38 110.43 197.616 110.193C197.851 109.957 197.747 109.661 197.385 109.538C197.024 109.415 197.215 108.847 197.812 108.275C198.699 107.427 198.896 107.493 198.89 108.637C198.882 110.474 199.838 109.601 199.904 107.713ZM196.348 110.19C196.088 109.873 195.6 109.84 195.264 110.116C194.929 110.391 195.027 110.745 195.484 110.901C195.94 111.057 196.428 111.091 196.568 110.975C196.708 110.86 196.609 110.507 196.348 110.19ZM79.1227 167.937C79.0581 167.459 78.7301 167.294 78.3947 167.57C78.0592 167.846 77.9976 168.331 78.2582 168.648C78.5189 168.965 78.8462 169.131 78.9863 169.015C79.1264 168.9 79.1874 168.415 79.1227 167.937ZM153.926 96.4391L150.437 92.5362L144.697 94.9552C141.541 96.2854 136.707 98.3367 133.955 99.5135C131.203 100.69 128.238 101.842 127.366 102.074C125.394 102.598 121.114 104.457 121.316 104.702C121.45 104.866 125.329 104.546 143.328 102.887C146.376 102.606 150.264 102.09 151.968 101.739C153.671 101.39 155.194 101.26 155.353 101.452C155.511 101.644 156.039 101.473 156.528 101.072C157.259 100.47 156.8 99.6521 153.926 96.4391ZM77.1073 165.29C76.7277 164.828 76.3111 164.762 76.1806 165.143C76.0508 165.523 76.1451 166.078 76.3905 166.377C76.636 166.675 77.0526 166.741 77.3166 166.524C77.5811 166.307 77.4869 165.752 77.1073 165.29ZM72.6738 160.682C72.4919 159.768 72.213 159.128 72.0545 159.259C71.896 159.389 71.9156 160.242 72.0974 161.155C72.2792 162.069 72.5582 162.709 72.7167 162.578C72.8752 162.448 72.8556 161.595 72.6738 160.682ZM68.8441 161.898C69.0876 161.136 68.9728 160.851 68.5554 161.184C68.1741 161.49 67.9149 162.131 67.9796 162.609C68.1261 163.689 68.3256 163.525 68.8441 161.898Z" fill="#FA1317"/>
</svg>
