<svg width="177" height="76" viewBox="0 0 177 76" fill="none" xmlns="http://www.w3.org/2000/svg">
<path fill-rule="evenodd" clip-rule="evenodd" d="M73.3702 0.445623C73.3216 0.486116 71.1824 0.516465 68.6166 0.513153C66.0509 0.509491 62.9755 0.534529 61.7826 0.568213C60.5897 0.601897 57.2702 0.56232 54.4062 0.480237C51.5419 0.398137 49.2616 0.452641 49.3382 0.600856C49.4148 0.749072 49.328 0.863538 49.1452 0.854824C48.9623 0.84611 48.7226 0.667313 48.6126 0.457504C48.4858 0.216016 48.2285 0.300251 47.9108 0.687232C47.5535 1.12215 47.4412 1.15153 47.5214 0.788679C47.6061 0.403927 47.3468 0.292271 46.4648 0.333051C45.8219 0.363119 45.1409 0.49243 44.9515 0.620953C44.7621 0.749476 44.3097 0.801955 43.9462 0.737615C41.3304 0.274357 38.8664 0.345021 38.2864 0.899863C37.9788 1.19469 37.757 1.24728 37.7677 1.02357C37.7799 0.766601 37.3555 0.686726 36.5291 0.790511C35.5938 0.907701 35.4042 0.859364 35.7884 0.60082C36.2363 0.299696 36.23 0.249571 35.7398 0.221301C35.4291 0.203687 35.0091 0.457368 34.8065 0.785621C34.6021 1.1166 34.4431 1.18727 34.4491 0.944033C34.4627 0.391682 32.7367 0.28452 32.1937 0.804281C31.8878 1.09708 31.6798 1.08542 31.3369 0.755734C31.0186 0.449677 30.6242 0.410535 30.0079 0.623631C29.4509 0.816393 29.0657 0.801195 28.9505 0.582015C28.7602 0.219249 24.2794 0.116612 23.9135 0.466907C23.7965 0.578881 23.4378 0.504946 23.1158 0.302932C22.7431 0.069022 22.4536 0.0538182 22.318 0.262103C22.2008 0.441438 21.8893 0.489054 21.6262 0.367739C21.363 0.246774 21.1397 0.282453 21.1302 0.447268C21.1207 0.612083 20.0275 0.734029 18.7013 0.718204C16.0942 0.686957 13.4159 1.09374 12.1037 1.72001L11.2809 2.11275L13.1368 4.19563L14.993 6.27819L17.3384 6.33136C18.6284 6.36054 20.4384 6.28503 21.3607 6.16336C22.2828 6.04203 23.8639 5.90474 24.8742 5.85849C25.8845 5.81189 28.4427 5.62466 30.5591 5.44164C42.8007 4.38421 54.7301 4.44563 80.5328 5.69798C95.8883 6.44337 102.049 7.01378 100.045 7.50462C99.5455 7.62681 97.2083 7.89615 94.8508 8.10312C87.4844 8.74968 85.6973 8.92172 80.1842 9.51624C77.2366 9.83439 73.922 10.16 72.8185 10.2404C71.7149 10.3211 70.6953 10.4525 70.5528 10.5331C70.2443 10.7069 59.9456 11.7474 57.0774 11.8946C49.5572 12.2798 47.5559 12.3605 47.3261 12.2875C47.1826 12.2421 46.0128 12.2653 44.7264 12.3387C43.4399 12.4121 39.8325 12.5894 36.7099 12.7322C33.5873 12.8753 30.2771 13.1081 29.354 13.2491C28.4308 13.3903 26.0927 13.681 24.158 13.8959C22.2233 14.1104 18.8257 14.6046 16.6077 14.9944C14.3898 15.3838 11.5928 15.8614 10.3923 16.0551C3.41018 17.1821 2.39685 17.8524 1.03688 22.2446C0.236152 24.8311 0.223942 24.9825 0.728073 26.0957C1.06456 26.8387 1.96748 27.7162 3.24476 28.542C5.6484 30.0948 5.9044 30.9744 4.28556 32.1134C2.9681 33.0402 2.19446 34.6455 1.99683 36.8628C1.88226 38.1483 2.06792 39.0214 2.8211 40.7334C3.7853 42.9265 3.78965 42.9681 3.33522 45.7981C2.15834 53.1314 1.24806 63.1361 1.75543 63.1603C2.23753 63.1833 2.4034 62.122 3.55244 51.6666C4.02317 47.3825 4.92362 42.8502 5.32754 42.7305C5.54486 42.6665 5.77073 43.2555 5.86019 44.1194C6.04198 45.878 5.68343 53.878 5.24309 57.8877C5.07427 59.4236 4.7926 62.1246 4.61685 63.8896C4.30784 66.9968 3.75874 70.2679 3.03742 73.3C2.70113 74.7138 2.75256 75.138 3.26292 75.1624C3.70612 75.1835 4.82236 70.2207 5.36854 65.801C5.66575 63.3961 6.14585 59.5448 6.4355 57.2427C6.72515 54.9407 7.06667 51.0884 7.19433 48.6821C7.32232 46.2758 7.52649 43.9493 7.64797 43.512C7.92392 42.5184 10.3968 40.9955 14.6324 39.2106C19.0597 37.345 23.1928 35.7598 23.5808 35.7783C23.7583 35.7867 24.5266 35.5177 25.2878 35.1806C26.9664 34.4371 30.4814 33.3751 32.3698 33.0405C34.7852 32.6127 39.4584 31.4055 40.2621 31.0017C40.6881 30.7876 41.173 30.7107 41.3392 30.8306C41.5055 30.9504 41.9168 30.9065 42.2533 30.7331C43.0558 30.3197 47.0175 29.3797 49.7665 28.95C50.9668 28.7626 53.0066 28.4401 54.2994 28.2333C55.5922 28.0268 56.8748 27.8602 57.1496 27.8631C57.4243 27.8661 58.4786 27.771 59.4923 27.6523C63.5173 27.1799 66.4793 26.9456 69.0255 26.8981C70.4931 26.8705 72.7448 26.8217 74.0293 26.7895C75.3138 26.7574 77.6406 26.7062 79.1999 26.6759C82.2572 26.616 106.07 27.7342 107.509 28.0052C107.988 28.0958 113.367 28.5163 119.461 28.94C137.935 30.2249 138.347 30.2424 138.37 29.7565C138.396 29.203 138.811 29.2151 139.301 29.7834C139.596 30.1248 139.686 30.0965 139.707 29.656C139.748 28.7972 139.419 27.9468 139.114 28.1252C138.965 28.2125 138.767 28.0407 138.675 27.7432C138.541 27.313 138.628 27.2793 139.104 27.5781C139.432 27.7842 139.825 27.8461 139.976 27.7154C140.127 27.5847 140.135 27.6676 139.994 27.9001C139.823 28.1801 139.906 28.263 140.241 28.146C140.518 28.049 140.675 27.7424 140.588 27.4646C140.502 27.1871 140.597 26.9678 140.799 26.9774C141.002 26.9871 141.16 27.1396 141.152 27.3164C141.143 27.4932 141.215 27.8913 141.312 28.2012C141.438 28.6051 141.289 28.7552 140.787 28.7313C140.3 28.7081 140.076 28.9192 140.052 29.423C140.02 30.0888 140.063 30.1046 140.578 29.6115C141.04 29.169 141.226 29.1582 141.634 29.5489C142.066 29.9625 142.114 29.8984 142.002 29.0524C141.932 28.5185 141.979 28.0863 142.107 28.0924C142.235 28.0985 142.382 27.5922 142.434 26.9676C142.523 25.9086 142.457 25.8297 141.461 25.8036C140.873 25.7883 140.247 25.6795 140.069 25.5619C139.663 25.293 138.501 25.1201 134.94 24.7985C128.487 24.2152 123.941 23.6056 124.383 23.3832C125.756 22.6917 145.306 22.8187 146.286 23.5251C146.481 23.6656 146.524 24.2199 146.384 24.801C146.198 25.5775 146.261 25.8341 146.641 25.8523C146.953 25.8671 147.25 25.4142 147.421 24.6613C147.68 23.5238 147.777 23.4522 148.928 23.5401C149.605 23.5916 150.527 23.7626 150.978 23.9206C151.891 24.2406 151.892 24.2986 151.107 28.8722C150.424 32.8471 150.157 39.0957 150.676 38.9404C150.948 38.8593 151.173 37.9009 151.315 36.2224C151.436 34.7965 151.732 32.5337 151.973 31.1942C152.905 26.0192 153.24 24.4242 153.465 24.0788C154.163 23.0106 154.219 24.8642 153.712 32.1652C153.322 37.763 153.261 40.2033 153.51 40.2151C153.877 40.2326 153.922 40.0941 154.131 38.3148C155.427 27.2748 155.844 24.1942 156.069 23.9786C156.584 23.4853 156.952 24.4428 156.883 26.0978C156.813 27.7724 156.848 27.8639 157.327 27.2594C157.614 26.8983 157.869 26.1697 157.894 25.6404C157.919 25.1107 158.062 24.6059 158.212 24.5183C158.661 24.2555 163.172 25.1806 163.851 25.6751C164.343 26.0337 164.591 26.0465 164.985 25.7344C165.536 25.2964 166.426 25.5589 166.624 26.2174C166.757 26.6568 166.248 31.2488 165.324 37.971C164.391 44.7499 164.319 45.3128 163.708 50.526C163.383 53.3088 163.015 56.4195 162.891 57.4385C162.698 59.0308 162.745 59.279 163.231 59.2057C163.959 59.0955 164.464 55.1271 163.755 55.0845C163.406 55.0633 163.407 55.008 163.763 54.7944C164.051 54.6211 164.453 52.6746 164.93 49.1533C165.331 46.1961 165.9 42.0512 166.195 39.9424C166.49 37.8335 166.969 34.0808 167.259 31.6029C167.624 28.4848 167.943 26.948 168.294 26.6111C168.739 26.1852 168.846 26.2212 169.15 26.8978C169.341 27.3227 169.459 27.9389 169.412 28.2669C169.365 28.5948 169.241 31.0304 169.136 33.6788C168.976 37.7078 169.026 38.4983 169.443 38.5182C169.964 38.543 169.945 38.7045 170.46 30.2621C170.671 26.8078 170.968 26.0851 171.707 27.2228C172.096 27.8203 172.105 28.7373 171.761 32.488C171.531 34.986 171.206 37.9512 171.037 39.0776C170.788 40.7346 170.818 41.0989 171.197 40.986C171.757 40.819 172.674 35.9604 173.115 30.8171C173.397 27.543 173.466 27.3053 174.319 26.7133C176.251 25.3723 177.251 21.971 176.502 19.2858C176.334 18.6855 175.702 17.8027 175.098 17.324C174.493 16.8454 174.007 16.2569 174.017 16.016C174.037 15.5356 173.183 15.3713 172.901 15.8018C172.617 16.2381 170.398 16.1629 169.647 15.6913C169.085 15.3382 168.893 15.3603 168.627 15.8069C168.352 16.2696 167.625 16.3237 164.078 16.1452C159.187 15.8992 158.525 15.5939 158.873 13.7442C159.323 11.3546 158.122 8.48958 156.287 7.57578C155.507 7.18702 152.129 6.83764 143.304 6.23218C136.743 5.78234 131.3 5.36054 131.209 5.29514C131.118 5.22974 128.729 4.96468 125.901 4.70568C123.072 4.44703 120.237 4.14108 119.601 4.02551C118.965 3.91029 117.252 3.676 115.794 3.50512C114.336 3.33423 111.95 3.04266 110.493 2.85706C109.036 2.67182 106.649 2.40196 105.19 2.25803C102.229 1.96604 73.5093 0.330143 73.3702 0.445623ZM50.9988 3.08954C50.9907 3.25969 51.2452 3.42305 51.5646 3.45336C51.8841 3.48332 52.4129 3.57484 52.7403 3.65641C53.0772 3.74088 53.2884 3.62919 53.2274 3.39926C53.1015 2.92307 51.0205 2.63407 50.9988 3.08954ZM119.196 12.5297C117.092 12.5339 115.695 12.7484 115.938 13.0299C116.03 13.1367 120.566 13.5034 126.019 13.845C132.834 14.2722 135.694 14.3446 135.171 14.0776C134.751 13.8635 134.275 13.7668 134.111 13.8625C133.948 13.9582 133.53 13.8296 133.183 13.5769C132.683 13.213 132.443 13.204 132.026 13.5344C131.643 13.8386 131.329 13.8429 130.864 13.5505C130.513 13.3303 129.127 13.0948 127.785 13.027C126.442 12.9591 124.373 12.8188 123.186 12.7149C122 12.611 120.204 12.5279 119.196 12.5297ZM136.764 14.504C136.755 14.6966 136.897 14.8612 137.08 14.8699C137.263 14.8787 137.42 14.7282 137.429 14.5357C137.438 14.3431 137.296 14.1785 137.113 14.1698C136.93 14.161 136.773 14.3115 136.764 14.504ZM80.8118 17.3257C70.734 17.556 69.8252 17.5857 68.2958 17.7353C67.4672 17.8162 66.109 17.9971 65.2775 18.1368C64.4461 18.2768 62.1088 18.5496 60.0834 18.7437C58.0581 18.9374 55.2676 19.2791 53.8823 19.503C52.497 19.7271 50.5336 20.0195 49.5192 20.1526C47.6226 20.4019 45.4224 20.8104 40.4414 21.8384C38.8681 22.1631 36.5974 22.6107 35.3955 22.8327C34.1935 23.0551 32.3002 23.4505 31.1881 23.7119C29.2442 24.1684 24.3548 25.1435 22.609 25.4228C20.2913 25.7934 18.6627 26.1159 17.8992 26.3549C17.434 26.5008 16.1464 26.7742 15.0377 26.9628C13.929 27.1514 12.4102 27.5552 11.6625 27.8603C10.9149 28.1653 9.84576 28.5727 9.28676 28.765C7.89158 29.2455 6.95717 29.9589 7.17621 30.3764C7.28375 30.5812 8.4392 30.3482 9.98575 29.8099C14.2158 28.337 20.9452 26.2874 22.5828 25.9728C23.4151 25.8128 25.0804 25.482 26.2834 25.2372C29.5801 24.5665 48.4611 22.2174 55.951 21.5462C57.2395 21.4307 60.6994 21.2022 63.6397 21.0385C66.58 20.8744 70.2646 20.6506 71.8277 20.5412C74.7841 20.3337 82.9896 19.9675 91.0299 19.6839C105.955 19.1579 106.562 19.1275 108.619 18.803C109.779 18.6197 109.229 18.5209 105.924 18.3192C91.2701 17.4255 85.8389 17.2105 80.8118 17.3257ZM143.182 26.6678C143.173 26.853 143.398 27.2269 143.681 27.4993C144.126 27.9276 144.183 27.9043 144.105 27.3283C144.013 26.6418 143.211 26.0685 143.182 26.6678ZM137.316 28.1533C137.189 28.3476 137.243 28.6196 137.434 28.7579C137.913 29.1028 138.1 28.8556 137.797 28.278C137.635 27.9688 137.465 27.9246 137.316 28.1533ZM143.219 29.5289C142.892 30.4523 143.025 30.6735 143.568 30.1088C143.791 29.8773 143.863 29.4821 143.73 29.228C143.555 28.8948 143.414 28.9779 143.219 29.5289Z" fill="#FA1317"/>
</svg>
