<svg width="218" height="216" viewBox="0 0 218 216" fill="none" xmlns="http://www.w3.org/2000/svg">
<path fill-rule="evenodd" clip-rule="evenodd" d="M204.369 47.1765C204.282 47.3822 204.378 47.6222 204.584 47.7098C204.789 47.7975 205.029 47.701 205.117 47.4953C205.205 47.2896 205.108 47.0496 204.903 46.9619C204.697 46.8742 204.457 46.9708 204.369 47.1765ZM202.396 47.6608C202.308 47.8665 202.404 48.1065 202.61 48.1941C202.816 48.2818 203.056 48.1853 203.143 47.9796C203.231 47.7739 203.134 47.5339 202.929 47.4462C202.723 47.3585 202.483 47.4551 202.396 47.6608ZM199.174 48.488C198.871 48.8402 198.502 49.0305 198.353 48.9113C198.204 48.7918 196.999 49.2761 195.674 49.9878C194.35 50.6994 193.084 51.2037 192.862 51.1088C192.64 51.014 192.521 51.0933 192.598 51.2853C192.675 51.4772 192.031 51.8999 191.166 52.2255C190.302 52.5508 189.531 52.9663 189.453 53.1488C189.375 53.3316 187.875 54.2845 186.12 55.2664C184.365 56.2483 182.902 57.1163 182.868 57.1955C182.734 57.5082 178.944 58.8748 178.608 58.7315C178.411 58.6475 178.278 58.7671 178.313 58.9973C178.348 59.2274 176.927 60.0225 175.156 60.7646C173.385 61.5062 171.867 62.2737 171.783 62.47C171.699 62.6667 171.46 62.7548 171.252 62.6659C170.709 62.4343 165.528 64.7509 165.266 65.343C165.144 65.6157 164.868 65.6812 164.651 65.4888C164.311 65.188 162.561 65.6514 159.379 66.8842C158.931 67.0578 158.456 67.1537 158.324 67.0973C158.026 66.9704 156.329 67.6364 156.05 67.99C155.937 68.1327 155.672 68.1874 155.462 68.1114C154.911 67.9121 151.128 68.217 150.146 68.5396C149.688 68.6899 147.628 68.4119 145.568 67.9221C143.509 67.4323 141.494 67.164 141.091 67.326C140.259 67.6609 139.74 67.1661 140.082 66.3639C140.208 66.0674 140.173 65.802 140.002 65.7736C139.33 65.6615 137.216 63.6467 136.611 62.5412C136.248 61.8799 135.665 61.3599 135.27 61.3455C134.762 61.327 134.699 61.1857 135.041 60.8329C135.338 60.5265 135.246 59.7533 134.793 58.745C133.207 55.2167 132.573 50.25 133.363 47.547C133.688 46.4333 133.966 45.2591 133.98 44.9375C133.994 44.6161 134.148 43.8167 134.322 43.1616C135.072 40.3304 135.458 35.7491 135.028 34.779C134.771 34.2005 134.709 33.3788 134.891 32.9536C135.126 32.402 135.023 32.173 134.532 32.1551C134.154 32.1413 133.731 32.0847 133.592 32.0291C133.454 31.9739 133.524 32.197 133.748 32.5252C134.317 33.357 133.013 34.2192 131.949 33.7154C131.394 33.4528 131.147 33.5325 131.13 33.9781C131.118 34.3296 129.971 35.5918 128.582 36.7825C127.194 37.9734 125.852 39.3631 125.6 39.8703C125.348 40.3781 125.047 40.7529 124.93 40.7033C124.814 40.6541 124.054 41.1255 123.241 41.751C122.428 42.3767 121.605 42.8214 121.412 42.7393C121.22 42.6572 121.042 42.7307 121.017 42.9022C120.924 43.5426 119.621 44.6931 118.341 45.2651C117.614 45.5905 116.886 46.1684 116.723 46.5499C116.561 46.9313 116.298 47.1877 116.139 47.12C115.98 47.0522 115.3 47.4366 114.626 47.9742C113.953 48.5118 112.337 49.4159 111.035 49.9835C109.589 50.6135 108.657 51.2679 108.642 51.6629C108.629 52.0193 108.432 52.231 108.205 52.134C107.977 52.0369 107.871 51.7698 107.969 51.5402C108.067 51.3106 107.169 51.4347 105.974 51.8163C103.168 52.7118 102.635 52.8525 102.408 52.756C102.22 52.6755 99.0134 53.2057 98.0895 53.4702C97.0569 53.7658 91.3966 52.2581 87.973 50.7762C83.6207 48.8915 83.5222 48.8243 79.9362 45.2772C79.0225 44.3731 77.6004 42.3882 76.6259 40.6569C76.3556 40.1771 76.0218 39.7364 75.8838 39.6776C74.9138 39.2639 70.6021 28.4129 69.6142 23.8991C69.4494 23.146 68.9881 21.6636 68.5892 20.6047C67.858 18.6625 67.7095 18.0834 67.2591 15.4133C66.939 13.5147 65.9078 12.2543 64.4213 11.9443C63.7543 11.8053 63.1319 11.4312 62.9934 11.0866C62.5474 9.97672 61.553 10.7628 61.7598 12.0619C61.8574 12.6764 61.7683 13.9028 61.5617 14.787C61.3552 15.6713 61.2645 16.6588 61.3596 16.9818C61.4716 17.3606 61.3572 17.5956 61.0379 17.6441C60.7654 17.6853 60.3989 18.0558 60.2235 18.4672C60.0481 18.8785 60.1077 19.1841 60.3562 19.1465C60.6046 19.1088 60.8186 18.7903 60.8314 18.4391C60.8446 18.0881 61.0412 17.8798 61.2688 17.9768C61.4965 18.0739 61.5511 18.4618 61.3903 18.8388C61.2294 19.2161 61.165 19.6916 61.2472 19.8955C61.3289 20.0996 61.3234 20.5436 61.2343 20.8821C61.1451 21.2207 61.0746 21.8315 61.0776 22.2389C61.0804 22.6467 61.0355 23.2162 60.9768 23.505C60.7621 24.567 60.8271 27.9505 61.0643 28.053C61.199 28.1113 61.0909 28.4413 60.8237 28.7861C60.5569 29.1311 60.473 29.6045 60.6377 29.8378C60.8022 30.0714 60.7259 30.7571 60.4679 31.3622C60.2099 31.9672 60.1596 32.5305 60.3559 32.6142C60.5521 32.6979 60.5569 33.446 60.3672 34.2764C60.1773 35.1071 60.096 36.0581 60.1865 36.3897C60.2773 36.7219 60.1993 37.1005 60.0135 37.2317C59.8277 37.3628 59.717 38.0192 59.7678 38.6905C59.8186 39.3619 59.6503 40.7181 59.3938 41.7039C59.1377 42.6899 59.0873 43.5642 59.2817 43.6471C59.4761 43.73 59.4783 43.9082 59.2867 44.0435C59.0953 44.1785 58.8624 45.1235 58.7695 46.1433C58.4297 49.8752 58.2644 50.9755 57.8686 52.137C57.5171 53.1685 57.5922 53.3508 58.4472 53.5368C59.162 53.6922 59.3198 53.8713 59.0258 54.1928C58.8031 54.4364 58.3757 54.5074 58.0753 54.351C57.6694 54.1394 57.3805 54.4419 56.9506 55.5287C56.6324 56.3331 56.5033 57.0471 56.6637 57.1155C56.9623 57.2428 56.4583 58.1306 54.294 61.2905C53.3213 62.7107 52.6834 63.1945 51.2049 63.6345C50.18 63.939 48.9355 64.1256 48.4389 64.0491C47.9426 63.9727 47.3287 64.1246 47.0753 64.3865C46.7572 64.7149 46.5185 64.6883 46.3066 64.3005C46.1377 63.9911 44.9936 63.1859 43.7644 62.5106C41.0891 61.0414 39.5612 59.5471 38.2288 57.097C37.684 56.0953 37.3483 55.6675 37.4825 56.1464C37.8303 57.3881 37.3054 57.4162 36.7076 56.1877C36.4299 55.6175 36.2987 55.113 36.4156 55.0656C36.5324 55.0186 36.1716 54.8082 35.6135 54.5972C34.0328 54.0005 31.6299 54.4564 31.2103 55.4323C31.0117 55.8948 30.6631 56.1934 30.4354 56.0963C30.2078 55.9992 30.222 55.7132 30.4662 55.4606C31.035 54.8736 30.5185 54.1133 29.7586 54.4191C29.3432 54.5862 29.3677 54.994 29.846 55.8675C30.2124 56.5364 30.3685 57.1846 30.1935 57.308C30.0184 57.4318 30.1015 57.7518 30.3775 58.0193C30.7641 58.3941 30.7315 58.5826 30.2358 58.8375C29.7405 59.0926 29.7065 59.2801 30.0885 59.6502C30.3616 59.9152 30.407 60.2572 30.1891 60.4109C29.9711 60.5646 30.0131 60.9033 30.282 61.1638C30.5504 61.4241 30.7036 61.7944 30.6218 61.9862C30.4457 62.3991 31.0305 65.3448 31.3586 65.6973C31.4836 65.832 31.5157 66.1059 31.4302 66.3064C31.3446 66.5072 31.1198 66.452 30.9301 66.1842C30.7409 65.9161 30.7014 66.3351 30.8424 67.1151C31.4553 70.4994 31.4368 72.6323 30.7838 73.9016C30.4141 74.6204 30.1501 75.4633 30.1976 75.7757C30.3038 76.4787 27.1421 84.2008 26.6698 84.3906C26.481 84.4665 26.2604 84.9465 26.1793 85.4569C26.0984 85.9678 25.8026 86.4202 25.5215 86.4629C25.2405 86.5053 24.7793 87.0763 24.4964 87.7313C24.2136 88.3864 23.4083 89.5536 22.7066 90.3248C22.0053 91.0962 21.4216 91.9906 21.4099 92.3132C21.3981 92.6352 21.242 92.8364 21.0633 92.7603C20.731 92.6186 18.1834 95.7295 17.9112 96.6092C17.828 96.8778 17.6375 97.0449 17.4872 96.9808C17.337 96.9167 16.6986 97.4896 16.0683 98.2541C15.438 99.0182 13.9983 100.339 12.869 101.189C11.7402 102.039 10.5683 102.981 10.2652 103.283C9.96205 103.584 9.54584 103.76 9.34025 103.672C9.13429 103.584 8.95392 103.838 8.93921 104.236C8.92027 104.751 8.81115 104.816 8.56119 104.462C8.01748 103.691 7.9078 105.761 8.42797 106.971C8.71419 107.636 9.18682 108.02 9.84645 108.125L10.8359 108.282L5.89284 119.823C0.855151 131.585 -0.488241 135.722 0.581585 136.178C1.62113 136.621 3.24093 133.306 7.1048 122.828C8.4216 119.257 10.312 114.395 11.3053 112.023L13.1118 107.711L14.5577 107.665C15.3531 107.639 16.0968 107.41 16.211 107.154C16.3997 106.733 16.9698 106.736 17.6523 107.164C17.7959 107.254 17.9479 107.193 17.9893 107.029C18.2359 106.047 18.622 105.918 19.5973 106.488C20.1808 106.829 20.7248 106.952 20.8061 106.761C20.8875 106.57 20.7738 106.338 20.5536 106.244C20.0897 106.046 20.7451 105.782 23.5378 105.043C25.7034 104.47 28.5392 104.166 28.3867 104.524C28.3338 104.648 29.0292 104.452 29.9314 104.089C30.8337 103.726 31.8115 103.531 32.1042 103.656C32.3969 103.781 32.7079 103.714 32.7956 103.509C32.8833 103.303 33.2509 103.256 33.6127 103.405C33.9746 103.554 34.8313 103.526 35.5168 103.343C36.2024 103.16 36.9435 103.083 37.1634 103.171C37.3836 103.26 38.0784 103.146 38.7069 102.918C39.3357 102.691 39.8151 102.587 39.772 102.688C39.7289 102.789 40.6021 102.956 41.7126 103.058C42.8229 103.161 44.1784 103.363 44.7241 103.507C45.27 103.652 46.355 103.904 47.1353 104.069C49.4696 104.56 50.6633 105.119 50.4488 105.622C50.3391 105.88 50.5018 106.197 50.8102 106.329C51.1186 106.46 51.4785 106.315 51.6101 106.007C51.7417 105.698 51.9442 105.487 52.0609 105.536C52.5917 105.763 56.6602 110.533 56.7332 111.014C56.7785 111.312 57.013 111.526 57.255 111.489C57.4967 111.452 57.6235 111.589 57.5365 111.793C57.4496 111.997 57.657 112.404 57.9977 112.696C58.3383 112.99 58.579 113.792 58.5323 114.478C58.4856 115.165 58.6867 116.069 58.9784 116.487C59.302 116.951 59.3242 117.487 59.0351 117.861C58.7745 118.197 58.7206 118.541 58.9161 118.625C59.1113 118.708 59.2076 118.998 59.1306 119.268C58.6958 120.792 58.5847 121.426 58.6625 121.94C58.7102 122.255 58.5582 123.101 58.3246 123.821C58.0913 124.541 57.9157 125.316 57.9347 125.543C57.99 126.207 56.6452 129.791 54.1614 135.601C51.9602 140.749 49.8323 144.336 48.5728 145.021C48.2706 145.186 48.0569 145.542 48.0981 145.813C48.1393 146.085 48.0139 146.239 47.8195 146.156C47.1848 145.885 45.4813 149.1 45.6578 150.236C45.7459 150.804 45.4228 152.319 44.9398 153.603C43.813 156.598 43.5817 158.271 44.2538 158.557C44.6583 158.73 45.166 158.036 46.3497 155.694C47.9457 152.536 48.7956 151.434 49.427 151.703C49.6229 151.786 49.7528 151.657 49.7162 151.414C49.6797 151.172 50.1456 150.868 50.7514 150.738C51.691 150.538 51.7943 150.412 51.4525 149.889C51.1576 149.438 51.2972 149.454 51.9777 149.952C52.7694 150.531 52.954 150.512 53.2495 149.819C53.4395 149.373 53.3933 149.039 53.1463 149.077C52.8997 149.114 52.6619 148.738 52.6176 148.241C52.565 147.642 52.6973 147.314 53.0115 147.266C53.2722 147.226 53.6982 146.695 53.9582 146.085C54.3212 145.234 54.6944 144.986 55.5645 145.021C56.4561 145.056 56.6539 144.918 56.4924 144.376C56.2584 143.59 57.6043 141.931 58.2514 142.207C58.4622 142.297 58.6699 142.237 58.7137 142.073C58.9313 141.254 60.1252 140.328 60.4978 140.689C60.7758 140.958 61.1775 140.698 61.7073 139.904C62.1433 139.25 62.65 138.779 62.8324 138.857C63.0152 138.935 63.2767 138.736 63.4133 138.416C63.55 138.095 63.7802 138.001 63.925 138.206C64.0698 138.411 64.6548 138.268 65.2248 137.889C65.7947 137.509 66.3043 137.305 66.3574 137.436C66.4099 137.568 66.8784 137.525 67.3975 137.342C67.9168 137.158 68.9117 136.812 69.6083 136.573C70.9707 136.104 74.6771 136.161 76.9625 136.686C79.5007 137.267 82.0273 138.276 81.8701 138.645C81.7854 138.843 81.8955 138.979 82.1151 138.946C82.3343 138.912 83.2404 139.585 84.1288 140.439C85.0168 141.294 85.8022 141.87 85.8735 141.719C85.9453 141.569 86.0498 141.813 86.1059 142.262C86.1622 142.711 86.4216 143.17 86.6825 143.282C86.9438 143.393 87.3438 144.061 87.5712 144.765C87.799 145.47 88.1643 146.123 88.3833 146.217C88.6027 146.31 88.6262 146.497 88.4357 146.631C88.2453 146.765 88.4112 147.124 88.8048 147.429C89.4391 147.92 89.4287 148.03 88.7131 148.408C88.1947 148.682 88.1164 148.806 88.4936 148.753C88.8166 148.708 89.0045 148.85 88.9117 149.068C88.8189 149.285 88.9952 149.571 89.3035 149.703C89.6179 149.837 89.722 150.275 89.5404 150.701C89.3621 151.119 89.4258 151.664 89.6819 151.912C89.938 152.16 90.2692 153.588 90.4188 155.085C90.5681 156.582 90.8196 157.863 90.9777 157.93C91.1359 157.997 91.0858 158.473 90.8665 158.987C90.6473 159.502 90.5965 159.977 90.7535 160.044C91.1317 160.205 91.1947 163.833 90.8294 164.391C90.6722 164.632 90.7609 165.039 91.027 165.296C91.293 165.554 91.3366 166.173 91.1241 166.672C90.9113 167.17 90.9474 167.782 91.2044 168.031C91.4613 168.28 91.5259 168.587 91.3478 168.712C90.8146 169.088 90.9027 172.483 91.4518 172.717C91.7314 172.836 91.7737 173.126 91.5456 173.362C91.2995 173.616 91.4088 174.005 91.814 174.319C92.1899 174.61 92.5669 174.684 92.6524 174.484C92.7379 174.283 93.0805 174.354 93.4139 174.641C93.8455 175.012 94.1705 174.969 94.5407 174.491C95.1461 173.709 96.6341 173.627 96.5727 174.379C96.5156 175.079 97.1686 175.289 97.438 174.657C97.5595 174.372 97.6132 173.55 97.5573 172.829C97.5015 172.11 97.3608 171.74 97.2445 172.009C97.1286 172.278 96.9096 172.322 96.7583 172.107C96.2538 171.391 96.7499 171.058 97.8404 171.382C99.3415 171.828 99.7474 170.73 98.3087 170.116C97.7098 169.861 97.2409 169.385 97.2667 169.058C97.2925 168.731 97.4351 168.636 97.5833 168.847C97.8237 169.188 98.5796 168.454 100.456 166.06C100.777 165.65 101.196 165.381 101.388 165.463C101.58 165.545 101.885 165.265 102.065 164.842C102.273 164.355 102.511 164.237 102.712 164.522C102.907 164.801 102.998 164.766 102.947 164.432C102.85 163.789 104.799 162.531 105.476 162.8C105.736 162.903 105.847 163.226 105.722 163.518C105.598 163.809 105.254 164.033 104.958 164.015C104.662 163.997 104.474 164.137 104.541 164.327C104.738 164.883 106.057 164.771 106.854 164.131C107.451 163.652 107.502 163.386 107.122 162.746C106.684 162.009 106.845 161.883 109.435 160.935C110.966 160.374 112.341 159.968 112.491 160.033C112.642 160.097 113.18 159.957 113.688 159.723C114.196 159.489 115.577 159.235 116.758 159.159C117.938 159.084 119.025 158.972 119.174 158.91C119.321 158.848 120.111 158.744 120.929 158.679C121.963 158.596 122.358 158.697 122.229 159.012C122.084 159.363 122.149 159.391 122.518 159.138C123.337 158.576 130.082 160.086 132.768 161.432C136.442 163.274 136.932 163.883 136.173 165.663C135.82 166.493 135.305 167.133 134.997 167.127C134.559 167.118 134.54 167.162 134.904 167.345C135.235 167.512 134.929 168.58 133.777 171.283C131.896 175.694 131.791 176.384 133.018 176.275C133.812 176.204 134.095 175.718 136.162 170.884C137.412 167.962 138.478 165.813 138.53 166.108C138.583 166.404 139.14 167.011 139.769 167.457C140.424 167.922 140.867 168.576 140.806 168.989C140.747 169.386 141.236 170.285 141.893 170.987C142.55 171.689 142.925 172.378 142.727 172.518C142.529 172.658 142.622 172.881 142.935 173.014C143.247 173.147 143.734 173.902 144.017 174.691C144.3 175.48 144.669 176.184 144.837 176.256C145.163 176.395 146.338 178.889 148.418 183.86C149.13 185.561 149.864 187.018 150.049 187.097C150.235 187.176 150.259 187.54 150.103 187.905C149.947 188.271 150.083 189.323 150.406 190.244C150.728 191.165 150.909 191.883 150.807 191.84C150.705 191.796 150.882 192.342 151.199 193.052C151.516 193.762 151.714 194.493 151.639 194.676C151.563 194.859 151.987 196.197 152.58 197.649C153.172 199.101 153.595 200.435 153.52 200.613C153.444 200.79 153.651 201.538 153.98 202.274C154.309 203.01 154.472 203.568 154.342 203.512C154.212 203.457 154.488 204.253 154.954 205.281C155.42 206.309 156.017 207.116 156.281 207.075C157.145 206.938 157.92 207.288 158.31 207.992C158.653 208.609 158.666 208.581 158.439 207.724C158.203 206.833 158.238 206.806 158.934 207.341C159.346 207.658 159.654 207.724 159.618 207.489C159.583 207.253 159.713 207.128 159.909 207.212C160.104 207.295 160.583 206.803 160.974 206.119C161.365 205.435 161.567 204.825 161.423 204.764C161.278 204.702 161.529 203.909 161.981 203.002C162.433 202.095 162.694 201.198 162.56 201.009C162.427 200.819 162.463 200.563 162.64 200.438C162.97 200.205 165.127 196.302 166.205 193.986C166.535 193.276 166.962 192.66 167.154 192.617C167.345 192.573 167.86 191.898 168.3 191.116C168.739 190.335 169.295 189.481 169.536 189.219C171.237 187.372 173.047 184.935 172.991 184.567C172.954 184.325 173.237 184.139 173.619 184.152C174.016 184.167 174.325 183.899 174.338 183.529C174.351 183.172 174.525 182.949 174.724 183.034C174.923 183.119 175.201 182.92 175.34 182.593C175.48 182.266 176.11 181.715 176.739 181.37C177.369 181.025 177.856 180.555 177.821 180.325C177.787 180.096 177.937 179.984 178.154 180.077C178.372 180.17 178.658 179.993 178.789 179.685C178.921 179.376 179.207 179.2 179.424 179.293C179.642 179.386 179.788 179.249 179.749 178.989C179.709 178.729 179.855 178.593 180.073 178.685C180.29 178.778 180.608 178.528 180.778 178.128C180.949 177.729 181.304 177.37 181.568 177.33C181.832 177.289 182.02 177.074 181.987 176.851C181.953 176.628 182.306 176.482 182.771 176.526C183.237 176.571 183.644 176.481 183.675 176.327C183.783 175.797 185.61 174.197 187.024 173.394C187.804 172.952 188.52 172.405 188.617 172.179C188.713 171.953 189.085 171.779 189.444 171.792C189.803 171.805 190.2 171.575 190.325 171.279C190.451 170.984 191.036 170.529 191.625 170.267C192.214 170.006 192.675 169.65 192.649 169.477C192.622 169.304 193.029 169.066 193.553 168.948C194.075 168.83 194.602 168.502 194.723 168.219C194.961 167.66 196.894 166.379 198.828 165.499C199.499 165.194 200.024 164.786 199.995 164.592C199.965 164.398 200.28 164.267 200.694 164.301C201.109 164.335 202.212 163.892 203.146 163.315C204.161 162.688 205.077 162.415 205.424 162.635C205.76 162.849 206.049 162.773 206.113 162.453C206.173 162.149 206.666 161.758 207.209 161.584C208.009 161.326 210.431 159.354 210.689 158.75C210.849 158.374 209.054 157.01 208.715 157.249C208.141 157.652 203.252 158.516 202.751 158.302C202.504 158.197 202.079 158.192 201.806 158.29C201.092 158.548 196.238 158.177 195.346 157.797C194.931 157.62 194.412 157.548 194.192 157.636C193.972 157.725 193.335 157.626 192.776 157.417C191.684 157.009 188.449 156.146 187.75 156.076C187.515 156.052 185.962 154.831 184.297 153.361C181.504 150.896 181.201 150.472 180.37 147.873C179.82 146.152 179.598 144.509 179.798 143.651C179.979 142.879 180.249 141.588 180.398 140.782C180.809 138.563 184.642 131.134 185.243 131.39C185.417 131.465 185.885 131.07 186.282 130.512C186.679 129.956 187.2 129.47 187.44 129.433C187.68 129.397 188.047 128.966 188.256 128.477C188.465 127.987 188.843 127.554 189.095 127.516C189.348 127.478 190.092 126.938 190.748 126.317C191.405 125.695 192.274 124.931 192.68 124.618C193.086 124.304 194.428 123.176 195.663 122.111C198.675 119.513 202.54 116.934 210.112 112.469C212.806 110.88 213.979 108.874 212.674 108.084C211.753 107.525 211.995 106.845 213.035 107.07C213.936 107.264 215.818 106.377 215.73 105.799C215.698 105.583 215.151 105.597 214.514 105.831C213.878 106.064 212.906 106.062 212.354 105.826C211.802 105.591 211.277 105.571 211.187 105.781C211.095 105.997 210.479 105.857 209.777 105.462C209.091 105.075 208.48 104.878 208.418 105.021C208.357 105.165 207.509 104.978 206.535 104.605C205.561 104.233 204.519 103.994 204.221 104.075C203.923 104.155 203.116 103.994 202.428 103.717C201.74 103.439 200.911 103.284 200.587 103.372C200.263 103.459 199.738 103.44 199.421 103.329C191.218 100.462 188.907 99.4519 186.174 97.5412C183.016 95.334 180.878 92.6183 181.049 91.0318C181.112 90.4453 181.001 90.2378 180.753 90.4818C180.48 90.7503 180.252 90.4922 180.028 89.6613C179.848 88.9941 179.771 88.2854 179.856 88.0861C179.941 87.8864 179.848 87.4063 179.649 87.0187C179.094 85.9387 179.456 85.6105 180.644 86.1172C181.497 86.481 181.843 86.3977 182.299 85.7182C182.877 84.858 182.626 84.3574 181.88 84.8835C181.662 85.0374 181.381 85.0184 181.256 84.841C181.131 84.6634 180.825 84.7288 180.576 84.9858C180.027 85.5527 179.401 85.3605 179.67 84.7076C179.776 84.4492 179.974 83.6384 180.109 82.9062C180.314 81.792 180.434 81.6528 180.848 82.0532C181.464 82.6501 181.705 82.144 181.402 80.89C181.195 80.0317 181.284 79.9026 182.27 79.6315L183.369 79.3297L182.627 78.7381C181.826 78.0991 181.959 77.1682 182.849 77.1835C183.249 77.1908 183.319 77.0616 183.105 76.7038C182.945 76.4349 183.036 75.8121 183.308 75.3202C183.579 74.8282 183.979 74.0684 184.196 73.6312C184.414 73.1945 184.951 72.6925 185.391 72.5153C186.041 72.2539 186.105 72.1313 185.734 71.8569C185.367 71.5853 185.875 70.6591 188.352 67.0849C190.042 64.6459 191.635 62.4412 191.891 62.1857C193.081 60.9989 194.592 59.0656 194.806 58.4565C194.935 58.0862 195.199 57.8509 195.392 57.9331C195.585 58.0154 195.858 57.8123 195.999 57.4817C196.161 57.101 196.427 57.0473 196.724 57.3352C196.982 57.5849 197.263 57.6263 197.347 57.4274C197.432 57.228 197.33 56.9918 197.121 56.9026C196.717 56.7303 197.535 55.4577 198.906 54.1278C199.34 53.7056 199.792 53.202 199.909 53.0088C200.026 52.8155 200.522 52.0803 201.011 51.3747C201.614 50.5055 201.828 49.8488 201.676 49.3381C201.349 48.237 199.833 47.7219 199.174 48.488ZM137.81 27.1442C137.732 27.3278 137.871 27.6756 138.12 27.9171C138.423 28.2106 138.581 28.1471 138.597 27.7254C138.622 27.0371 138.039 26.6065 137.81 27.1442ZM137.31 29.0704C137.158 29.1917 136.965 29.7591 136.881 30.331L136.728 31.3708L137.376 30.4211C137.979 29.5379 137.931 28.5727 137.31 29.0704ZM135.306 29.9068C135.17 30.2273 135.27 30.4575 135.53 30.4181C135.79 30.3786 136.07 30.1882 136.153 29.9945C136.235 29.8007 136.134 29.5708 135.929 29.4832C135.723 29.3955 135.443 29.5863 135.306 29.9068ZM63.6093 0.78552C63.3906 0.939788 63.3459 1.25614 63.5096 1.4886C63.933 2.08902 64.5113 1.76062 64.2361 1.07578C64.0822 0.692831 63.8759 0.59737 63.6093 0.78552ZM62.8843 2.34276C62.6551 2.50404 62.5137 2.75088 62.5698 2.89062C62.626 3.03036 62.8823 2.92753 63.1396 2.66199C63.6732 2.11083 63.5074 1.90309 62.8843 2.34276ZM62.5717 5.16223C62.3462 6.58419 62.3933 6.69443 63.2388 6.72569C63.8599 6.74838 63.9047 6.6362 63.71 5.54596C63.4222 3.93558 62.7995 3.72575 62.5717 5.16223ZM175.394 52.9671C175.301 53.1848 175.437 53.3309 175.697 53.2915C175.957 53.252 176.201 53.1457 176.24 53.0548C176.278 52.964 176.142 52.8182 175.936 52.7305C175.731 52.6429 175.486 52.7495 175.394 52.9671ZM63.6634 8.32813C63.559 8.57307 62.9729 8.75406 62.3612 8.72969C61.349 8.68963 60.9094 9.42632 61.7355 9.77858C62.2114 9.9815 64.157 8.6376 63.9894 8.22142C63.9146 8.03528 63.7679 8.08318 63.6634 8.32813ZM59.3472 9.64408C59.3866 9.90396 59.4928 10.1481 59.5836 10.1868C59.6744 10.2256 59.8202 10.0889 59.9079 9.88318C59.9956 9.6775 59.8891 9.43319 59.6715 9.34042C59.454 9.24765 59.3078 9.38421 59.3472 9.64408ZM60.496 10.5759C60.4083 10.7816 60.5048 11.0216 60.7104 11.1093C60.916 11.197 61.1559 11.1004 61.2436 10.8947C61.3314 10.6891 61.2349 10.449 61.0293 10.3614C60.8237 10.2737 60.5837 10.3703 60.496 10.5759ZM161.73 61.6994C161.515 61.8509 161.518 62.0509 161.735 62.1436C161.953 62.2364 162.203 62.1442 162.291 61.9385C162.378 61.7328 162.376 61.533 162.285 61.4942C162.195 61.4555 161.945 61.5479 161.73 61.6994ZM168.937 72.507C168.554 72.6902 167.833 73.2203 167.335 73.6853C166.837 74.1509 166.11 74.6679 165.721 74.8351C165.331 75.0018 164.709 75.5819 164.338 76.1237C163.967 76.6652 163.548 77.0591 163.406 76.9985C162.91 76.7873 160.862 78.8867 161.067 79.3961C161.19 79.7017 160.826 80.0876 160.119 80.402C159.488 80.6822 159.029 81.0565 159.1 81.2336C159.171 81.411 158.816 81.8321 158.309 82.1698C157.802 82.5071 157.377 83.0876 157.363 83.4591C157.349 83.8316 157.143 84.0511 156.902 83.9486C156.663 83.8464 156.497 83.9607 156.533 84.2026C156.57 84.4446 156.38 84.6757 156.112 84.7165C155.844 84.7572 155.654 84.9884 155.691 85.2304C155.727 85.4722 155.59 85.5988 155.385 85.5114C155.18 85.4241 154.727 86.0496 154.377 86.9012C154.028 87.7532 153.531 88.486 153.274 88.5302C152.854 88.6024 151.668 90.1268 150.917 91.5613C150.76 91.8593 150.425 92.2183 150.171 92.3591C149.916 92.4999 149.265 93.3842 148.724 94.3245C148.182 95.2644 147.411 96.2968 147.01 96.619C146.482 97.0433 146.424 97.1827 146.8 97.1257C147.086 97.0823 147.25 97.2109 147.164 97.4118C147.079 97.6122 146.812 97.7606 146.573 97.7412C146.333 97.7215 145.866 98.2347 145.534 98.8811C145.203 99.5278 144.808 100.004 144.655 99.9395C144.504 99.8752 144.232 100.207 144.052 100.677C143.872 101.148 143.435 101.906 143.081 102.363C141.918 103.865 141.726 104.21 141.788 104.684C141.916 105.652 141.53 106.359 140.768 106.548C140.268 106.673 139.9 107.119 139.757 107.775C139.634 108.341 139.37 108.736 139.171 108.651C138.972 108.566 138.798 108.79 138.785 109.149C138.772 109.508 138.629 109.746 138.468 109.677C138.308 109.608 137.851 110.408 137.454 111.454C137.057 112.5 136.573 113.288 136.378 113.205C136.183 113.122 136.05 113.225 136.082 113.435C136.113 113.644 135.734 114.378 135.237 115.066C134.714 115.792 134.441 116.466 134.586 116.673C134.725 116.869 134.638 117.17 134.394 117.342C133.813 117.752 132.464 120.738 132.265 122.058C132.178 122.629 131.841 123.38 131.515 123.728C131.072 124.199 131.059 123.859 131.464 122.38C131.763 121.292 132.013 119.959 132.022 119.419C132.031 118.878 132.23 118.238 132.465 117.995C132.7 117.752 132.76 117.366 132.598 117.137C132.437 116.907 132.547 116.15 132.844 115.455C133.14 114.759 133.251 114.002 133.089 113.773C132.927 113.544 132.96 113.185 133.163 112.976C133.5 112.628 134.435 107.755 134.463 106.201C134.477 105.426 135.474 98.9482 135.803 97.4913C136.105 96.1517 136.227 91.0416 135.984 89.8728C135.878 89.3626 135.891 87.9374 136.012 86.7059C136.19 84.9124 136.051 84.2994 135.316 83.6308C134.488 82.8762 134.216 82.8725 132.503 83.5908C131.46 84.0284 130.378 84.7 130.098 85.0836C129.067 86.4979 126.308 92.8056 126.36 93.6287C126.401 94.2684 126.329 94.3575 126.069 93.9886C125.857 93.6872 125.753 93.6911 125.8 93.9994C125.842 94.2748 125.228 96.2449 124.436 98.3781C123.643 100.511 123.02 102.416 123.049 102.611C123.078 102.806 122.848 103.837 122.536 104.903C121.384 108.844 121.101 110.075 120.687 112.923C119.109 123.793 119.035 124.982 119.887 125.807C120.935 126.823 121.428 126.021 122.711 121.208C123.397 118.634 124.031 116.161 124.119 115.712C124.413 114.217 124.893 112.526 125.519 110.785C125.861 109.836 126.121 108.858 126.099 108.611C126.077 108.363 126.356 107.389 126.721 106.445C127.086 105.502 128.515 101.731 129.898 98.067C131.28 94.4026 132.476 91.5615 132.556 91.7533C132.694 92.0897 131.844 96.9775 131.403 98.3773C131.284 98.752 131.297 99.1057 131.43 99.1626C131.564 99.2196 131.472 99.6276 131.226 100.07C130.81 100.818 130.076 104.593 130.056 106.09C130.051 106.452 129.858 107.364 129.626 108.116C129.394 108.868 129.077 110.225 128.921 111.13C128.766 112.037 128.459 113.497 128.24 114.376C128.021 115.255 127.92 116.238 128.015 116.561C128.127 116.937 128.02 117.174 127.719 117.219C127.418 117.265 127.208 117.93 127.135 119.067C127.072 120.044 126.907 120.89 126.767 120.946C126.628 121.002 126.546 121.412 126.585 121.856C126.624 122.301 126.48 123.356 126.263 124.202C126.047 125.048 125.81 126.013 125.737 126.346C124.721 130.983 125.562 138.676 127.155 139.312C128.044 139.666 129.421 139.101 130.07 138.116C130.415 137.592 130.984 136.934 131.334 136.653C131.684 136.372 132.133 135.749 132.332 135.268C132.743 134.276 134.924 130.043 135.006 130.078C135.152 130.14 136.084 128.532 136.855 126.888C137.329 125.875 138.014 124.732 138.376 124.348C138.748 123.954 138.924 123.494 138.78 123.29C138.626 123.072 138.81 122.634 139.244 122.183C139.639 121.772 140.108 121.133 140.285 120.763C141.995 117.195 143.392 114.59 143.809 114.195C144.087 113.932 144.481 113.218 144.684 112.609C144.888 112 145.158 111.649 145.285 111.829C145.564 112.224 146.532 110.009 146.414 109.244C146.368 108.946 146.612 108.713 146.956 108.725C147.648 108.751 148.313 107.336 148.069 106.358C147.951 105.891 148.045 105.858 148.428 106.228C148.811 106.601 148.951 106.549 148.97 106.028C148.984 105.642 149.182 105.406 149.41 105.503C149.637 105.6 149.899 105.501 149.992 105.284C150.085 105.066 149.916 104.925 149.616 104.97C149.297 105.019 149.241 104.933 149.482 104.763C149.708 104.604 150.294 103.779 150.785 102.93C151.275 102.082 152.379 100.494 153.239 99.402C154.099 98.3101 155.058 96.9293 155.371 96.3336C156.02 95.0994 157.826 92.7431 159.041 91.5458C159.494 91.1005 159.987 90.3414 160.139 89.859C160.291 89.3764 160.605 89.0632 160.837 89.1621C161.07 89.2613 161.232 89.1549 161.197 88.9253C161.162 88.696 161.851 87.7139 162.728 86.7425C163.604 85.7714 164.265 84.8366 164.197 84.6653C164.127 84.494 164.254 84.4317 164.477 84.5267C164.854 84.6875 169.63 78.5657 169.744 77.7765C169.772 77.5803 170.031 77.2931 170.319 77.1381C170.745 76.9091 171.446 75.3741 171.99 73.4773C172.141 72.9532 169.656 72.1637 168.937 72.507ZM116.085 52.1834C115.55 52.4585 115.41 52.7261 115.578 53.1458C115.904 53.9549 117.209 53.9242 117.385 53.1035C117.587 52.1658 116.969 51.7286 116.085 52.1834ZM126.399 58.5664C126.438 58.8263 126.628 59.1063 126.822 59.1888C127.016 59.2714 127.246 59.1706 127.333 58.9649C127.421 58.7592 127.23 58.479 126.91 58.3424C126.59 58.2058 126.359 58.3065 126.399 58.5664ZM66.1773 33.9369C65.5085 34.6276 65.7501 35.2286 66.5649 34.9008C67.046 34.7073 67.1362 34.4987 66.9457 34.0245C66.7549 33.5498 66.5721 33.5289 66.1773 33.9369ZM182.532 83.6886C182.756 83.9116 183.084 84.0357 183.261 83.9645C183.438 83.8932 183.255 83.7109 182.854 83.559C182.411 83.3913 182.285 83.4421 182.532 83.6886ZM71.5708 39.0954C71.3521 39.2496 71.3074 39.566 71.4711 39.7984C71.8945 40.3989 72.4728 40.0705 72.1976 39.3856C72.0437 39.0027 71.8374 38.9072 71.5708 39.0954ZM129.415 66.6754C129.34 67.0488 129.45 67.4171 129.66 67.4939C130.228 67.7009 130.483 66.821 129.983 66.3786C129.713 66.1398 129.501 66.2511 129.415 66.6754ZM215.831 104.215C215.743 104.421 215.839 104.661 216.045 104.749C216.25 104.836 216.49 104.74 216.578 104.534C216.666 104.328 216.569 104.088 216.364 104.001C216.158 103.913 215.918 104.009 215.831 104.215ZM182.651 90.4396C182.432 90.5939 182.387 90.9102 182.551 91.1427C182.974 91.7431 183.553 91.4147 183.277 90.7299C183.123 90.3469 182.917 90.2514 182.651 90.4396ZM213.01 104.613C212.789 105.133 212.876 105.188 213.619 104.998C214.096 104.876 214.577 104.759 214.688 104.737C214.798 104.715 214.524 104.542 214.079 104.352C213.581 104.14 213.169 104.24 213.01 104.613ZM69.4092 43.5461C69.3215 43.7518 69.4179 43.9918 69.6235 44.0794C69.8291 44.1671 70.0691 44.0705 70.1568 43.8649C70.2445 43.6592 70.148 43.4192 69.9424 43.3315C69.7368 43.2438 69.4969 43.3404 69.4092 43.5461ZM162.145 84.2201C162.006 84.9168 162.585 85.354 163.011 84.873C163.159 84.7053 163.054 84.3478 162.776 84.0787C162.428 83.7411 162.232 83.7849 162.145 84.2201ZM74.0869 48.6345C74.1263 48.8943 74.2324 49.1385 74.3233 49.1772C74.4141 49.216 74.5599 49.0792 74.6476 48.8736C74.7353 48.6679 74.6287 48.4236 74.4112 48.3308C74.1936 48.238 74.0475 48.3746 74.0869 48.6345ZM204.599 105.171C204.639 105.431 204.745 105.675 204.836 105.714C204.927 105.753 205.072 105.616 205.16 105.411C205.248 105.205 205.141 104.961 204.924 104.868C204.706 104.775 204.56 104.912 204.599 105.171ZM126.671 74.1844C126.651 74.4368 126.794 74.7117 126.989 74.7949C127.184 74.8781 127.481 74.791 127.649 74.6013C127.817 74.4117 127.674 74.137 127.332 73.9908C126.989 73.8447 126.692 73.9319 126.671 74.1844ZM204.55 107.36C204.589 107.62 204.695 107.864 204.786 107.903C204.877 107.942 205.023 107.805 205.11 107.599C205.198 107.393 205.091 107.149 204.874 107.056C204.656 106.964 204.51 107.1 204.55 107.36ZM189.092 101.652C189.004 101.858 189.1 102.098 189.306 102.186C189.512 102.273 189.751 102.177 189.839 101.971C189.927 101.765 189.83 101.525 189.625 101.438C189.419 101.35 189.179 101.447 189.092 101.652ZM115.845 70.8107C115.88 71.0408 115.528 71.3385 115.063 71.4716C114.336 71.6795 114.295 71.6531 114.768 71.2852C115.217 70.9357 115.156 70.9166 114.434 71.1802C113.947 71.3581 113.366 71.8564 113.143 72.287C112.919 72.7182 112.604 73.0142 112.442 72.9452C112.28 72.8762 112.01 73.1429 111.842 73.5374C111.674 73.9323 110.867 75.1297 110.05 76.1986C109.233 77.2675 108.238 78.6991 107.84 79.3799C107.441 80.0607 107.048 80.6886 106.966 80.7752C106.884 80.8618 106.783 81.067 106.742 81.232C106.7 81.3968 106.526 81.4713 106.354 81.398C106.182 81.3247 105.723 81.9357 105.335 82.7562C104.947 83.5766 104.308 84.5054 103.916 84.8204C103.524 85.135 103.127 85.7005 103.035 86.0771C102.943 86.4538 102.62 86.9346 102.317 87.1453C102.014 87.3561 101.473 88.0885 101.115 88.7725C100.299 90.3319 100.176 90.375 99.2085 89.4435C98.3982 88.6626 93.5966 86.7044 91.5258 86.3102C90.8877 86.1883 89.8291 85.9473 89.1739 85.7744C87.3764 85.2996 84.2698 84.6347 81.107 84.0476C79.5469 83.758 78.1691 83.3764 78.0448 83.1997C77.4493 82.3553 78.5165 81.7828 80.8674 81.6848C82.2895 81.6256 83.5634 81.4749 83.6976 81.3496C83.8323 81.2245 84.2306 81.2455 84.5835 81.3959C84.9364 81.5464 85.493 81.5619 85.8205 81.4302C86.1479 81.2984 86.8191 81.1374 87.3123 81.0719C90.755 80.6161 96.8452 78.8416 97.9176 77.9823C98.9377 77.1648 98.8885 75.7759 97.8086 74.9009C94.9216 72.5627 90.7693 70.3218 84.253 67.586C78.2486 65.065 77.0598 64.4559 76.7789 63.7563C76.4885 63.0336 76.5666 62.8265 77.3774 62.1756C78.0519 61.6341 78.2243 61.3054 78.0006 60.9877C77.8305 60.7464 77.7723 60.0365 77.8717 59.4107C78.3048 56.6784 76.7451 57.1359 75.3439 60.1523C74.7881 61.349 74.1239 62.4757 73.8681 62.6561C73.5464 62.8831 72.2146 62.4446 69.544 61.2325C65.7903 59.5293 64.4269 59.3068 64.5965 60.4257C64.7437 61.3984 69.0948 64.6575 72.0804 66.031C72.3344 66.1481 72.5132 66.3472 72.4777 66.474C72.1709 67.5748 71.3529 69.8796 69.5377 74.7591C68.2672 78.1747 67.1781 81.832 66.8361 83.8327C66.1793 87.6749 66.0019 88.2215 65.599 87.6497C65.4396 87.4235 64.5318 87.5716 63.582 87.9789C62.6321 88.3862 61.7351 88.6136 61.5883 88.4834C61.1737 88.117 57.0363 89.2157 53.8133 90.5484C50.9846 91.7182 50.9092 91.7832 51.2497 92.7708C51.7122 94.1114 53.9911 94.8838 57.2765 94.8144C60.0932 94.7546 61.7413 94.8669 62.0961 95.1433C62.2327 95.2497 62.4166 95.1686 62.5043 94.9629C62.5921 94.7572 63.0821 94.7673 63.5935 94.9854C64.316 95.2935 64.5176 95.748 64.4989 97.0288C64.3935 104.309 64.6693 106.045 65.9016 105.858C66.3952 105.783 66.7669 104.679 67.903 99.9167C68.909 95.6998 69.2058 95.0525 70.0337 95.2681C70.4353 95.3726 71.1703 95.3179 71.6662 95.1466C72.1625 94.9751 72.6819 94.8832 72.821 94.9425C73.3349 95.1617 81.8457 94.6841 82.0993 94.4219C82.2445 94.2721 82.6018 94.2516 82.8941 94.3763C83.555 94.6581 86.456 94.5123 91.9528 93.9212C95.7907 93.5083 98.2854 93.7828 97.2617 94.5051C97.0438 94.6588 96.7057 95.2558 96.5104 95.8319C96.3151 96.408 95.9403 96.912 95.6777 96.9517C95.4151 96.9917 94.9857 97.5272 94.7235 98.142C94.1842 99.4068 92.2493 100.239 90.0698 100.145C88.7075 100.086 86.8876 100.941 87.6677 101.273C87.8871 101.367 87.9066 101.557 87.711 101.694C87.5156 101.832 88.2918 102.082 89.4363 102.249L91.5173 102.553L91.0927 103.548C90.8592 104.094 89.7885 105.857 88.7137 107.465C87.6389 109.073 86.5777 110.709 86.3564 111.1C86.1346 111.492 85.6862 112.062 85.3598 112.367C84.9669 112.734 84.879 113.203 85.1006 113.753C85.4911 114.725 86.6138 114.882 87.3216 114.063C87.5941 113.749 88.1007 113.214 88.4473 112.876C89.3743 111.972 90.4527 110.406 91.1525 108.947C91.4909 108.24 92.0361 107.618 92.363 107.563C92.6904 107.508 93.1293 107.061 93.3391 106.569C93.5488 106.077 93.907 105.646 94.1347 105.612C94.3624 105.577 95.0566 104.88 95.6771 104.063C96.4283 103.075 97.0894 102.606 97.6552 102.66C98.1229 102.705 98.5764 102.575 98.6633 102.371C98.7504 102.167 98.9344 102.16 99.0723 102.356C99.4579 102.903 102.19 102.456 102.217 101.842C102.229 101.544 102.389 101.363 102.571 101.441C102.753 101.519 102.892 101.761 102.88 101.98C102.859 102.345 103.974 102.36 107.292 102.041C108.277 101.947 108.487 101.782 108.286 101.264C108.083 100.742 108.297 100.783 109.322 101.462C110.182 102.031 110.673 102.178 110.791 101.902C110.889 101.673 111.165 101.57 111.405 101.672C111.644 101.774 111.701 101.915 111.529 101.983C111.358 102.052 111.141 103.176 111.047 104.481C110.953 105.787 110.721 106.964 110.532 107.097C110.342 107.231 110.393 107.428 110.645 107.536C110.897 107.643 110.957 107.79 110.778 107.862C110.599 107.934 110.582 108.796 110.74 109.777C110.955 111.104 110.874 111.624 110.425 111.804C109.977 111.984 109.938 112.096 110.271 112.238C110.518 112.343 110.617 112.671 110.491 112.966C110.365 113.261 110.254 114.059 110.244 114.739C110.234 115.419 110.146 116.339 110.048 116.783C109.95 117.228 110.009 117.717 110.18 117.87C110.35 118.024 110.359 118.455 110.201 118.827C110.042 119.199 110.124 119.709 110.384 119.961C110.643 120.212 110.732 120.588 110.58 120.796C110.429 121.004 110.551 121.509 110.852 121.918C111.153 122.328 111.526 122.939 111.681 123.276C112.202 124.411 114.988 124.759 115.743 123.784C116.022 123.424 116.243 122.393 116.235 121.493C116.221 119.876 116.242 119.545 116.404 118.914C116.449 118.736 116.303 118.083 116.079 117.463C115.855 116.843 115.769 116.222 115.889 116.083C116.194 115.729 116.193 112.886 115.888 112.1C115.749 111.741 115.869 111.145 116.154 110.777C116.44 110.408 116.512 110.038 116.315 109.954C116.119 109.87 116.143 108.737 116.369 107.435C116.596 106.134 116.673 104.9 116.54 104.691C116.399 104.472 116.632 104.046 117.094 103.675C117.531 103.323 117.834 102.896 117.765 102.726C117.696 102.555 117.541 102.65 117.419 102.936C117.293 103.231 117.092 102.956 116.954 102.3C116.683 101.015 116.432 101.161 120.491 100.243C122.549 99.778 123.525 99.1447 123.558 98.2539C123.589 97.3958 121.276 96.3987 119.685 96.5849C119.046 96.6597 118.314 96.6389 118.059 96.5392C117.426 96.2904 117.286 93.7918 117.871 93.1874C118.131 92.9187 118.158 92.6191 117.931 92.5221C117.703 92.425 117.652 92.0296 117.816 91.6433C117.981 91.2574 117.964 90.6459 117.778 90.2853C117.593 89.9243 117.667 89.3379 117.942 88.9816C118.218 88.6257 118.439 87.9817 118.435 87.5506C118.43 87.1194 118.433 86.6704 118.442 86.5527C118.451 86.4349 118.464 85.7812 118.471 85.0999C118.478 84.4189 118.568 83.6616 118.67 83.4171C119.369 81.753 119.273 73.0245 118.545 71.9078C118.126 71.266 115.769 70.3081 115.845 70.8107ZM59.013 49.278C58.9253 49.4837 59.1059 49.7596 59.4143 49.8911C59.7226 50.0226 60.0467 49.9619 60.1344 49.7562C60.2221 49.5506 60.0416 49.2747 59.7332 49.1432C59.4248 49.0117 59.1007 49.0724 59.013 49.278ZM173.809 99.53C171.757 99.7204 169.764 100.398 167.43 101.697C166.317 102.316 165.205 102.935 164.957 103.073C164.71 103.21 164.001 103.585 163.383 103.906C162.765 104.226 162.204 104.619 162.136 104.779C162.068 104.938 161.63 105.222 161.163 105.41C160.696 105.598 160.183 105.94 160.023 106.171C159.595 106.787 158.098 108.247 156.166 109.931C155.23 110.747 154.258 111.725 154.007 112.104C153.755 112.483 153.338 113.001 153.079 113.256C151.674 114.637 149.775 116.993 149.038 118.272C148.577 119.072 147.89 119.975 147.512 120.279C147.135 120.582 146.878 120.96 146.942 121.119C147.006 121.277 146.63 121.846 146.107 122.382C145.585 122.919 144.834 124.114 144.439 125.04C144.045 125.966 143.581 126.762 143.409 126.81C143.156 126.881 140.517 131.559 139.892 133.045C137.764 138.101 136.254 145.78 137.22 146.638C137.395 146.794 137.44 147.152 137.32 147.434C137.2 147.716 137.343 148.546 137.637 149.28C137.932 150.013 138.115 150.75 138.044 150.916C137.913 151.223 140.752 154.973 141.031 154.861C141.114 154.828 141.661 153.814 142.248 152.607C143.185 150.678 143.264 150.154 142.903 148.251C142.319 145.177 142.817 140.709 144.079 137.703C144.923 135.692 148.285 128.683 148.435 128.622C148.69 128.518 151.003 124.687 152.201 122.383C152.408 121.985 152.782 121.449 153.033 121.191C154.028 120.17 155.674 117.709 155.616 117.328C155.582 117.106 155.841 116.777 156.191 116.597C156.541 116.417 157.051 115.938 157.324 115.532C158.452 113.86 161.608 110.655 164.93 107.809C170.694 102.87 175.487 101.632 176.543 104.809C176.992 106.163 177.025 108.98 176.611 110.694C176.451 111.355 176.23 112.331 176.12 112.862C176.009 113.394 175.517 115.073 175.026 116.595C173.557 121.15 173.303 122.542 173.896 122.795C175.347 123.414 179.763 113.331 180.125 108.572C180.574 102.669 178.103 99.1315 173.809 99.53ZM200.261 111.719C200.173 111.924 200.27 112.165 200.475 112.252C200.681 112.34 200.921 112.243 201.009 112.038C201.096 111.832 201 111.592 200.794 111.504C200.589 111.417 200.349 111.513 200.261 111.719ZM189.85 108.163C189.762 108.369 189.858 108.609 190.064 108.696C190.269 108.784 190.509 108.687 190.597 108.482C190.685 108.276 190.588 108.036 190.383 107.948C190.177 107.861 189.937 107.957 189.85 108.163ZM184.671 106.839C184.583 107.044 184.67 107.28 184.863 107.363C185.057 107.445 185.391 107.389 185.606 107.237C185.82 107.086 185.734 106.85 185.413 106.713C185.093 106.577 184.759 106.633 184.671 106.839ZM193.697 111.572C193.61 111.777 193.716 112.022 193.934 112.114C194.151 112.207 194.297 112.071 194.258 111.811C194.219 111.551 194.112 111.307 194.022 111.268C193.931 111.229 193.785 111.366 193.697 111.572ZM113.441 80.553C113.091 80.9507 112.661 81.5132 112.487 81.8034C111.731 83.0615 110.401 85.1658 110.067 85.6333C109.868 85.9128 109.233 86.8848 108.656 87.7939C108.08 88.703 107.449 89.3785 107.255 89.2956C107.06 89.2127 106.936 89.3704 106.977 89.6458C107.019 89.9217 106.693 90.5282 106.253 90.9942C103.842 93.5474 100.297 98.5255 101.27 97.9925C101.532 97.849 102.507 97.5785 103.438 97.3909C104.368 97.2034 105.306 96.9378 105.522 96.8002C105.739 96.6631 106.141 96.7692 106.416 97.0359C106.691 97.3027 106.974 97.3845 107.045 97.2181C107.117 97.0513 108.26 96.8184 109.585 96.7005C110.911 96.5821 112.077 96.463 112.175 96.4352C112.273 96.4077 112.47 95.1066 112.613 93.5443C112.755 91.9819 113.004 90.6505 113.166 90.5851C113.329 90.5196 113.376 89.9882 113.272 89.4041C113.168 88.82 113.209 87.8274 113.364 87.1982C113.519 86.5689 113.648 85.9557 113.65 85.8353C113.653 85.7148 113.742 85.4833 113.849 85.3211C113.955 85.1584 113.951 84.7181 113.839 84.3419C113.727 83.9657 113.791 83.5477 113.982 83.4132C114.456 83.0786 114.82 80.1465 114.409 79.9712C114.227 79.8936 113.791 80.1552 113.441 80.553ZM180.876 110.718C180.801 111.091 180.912 111.459 181.122 111.536C181.689 111.743 181.944 110.863 181.445 110.421C181.175 110.182 180.962 110.293 180.876 110.718ZM86.2116 71.4831C86.1239 71.6888 86.2203 71.9288 86.4259 72.0165C86.6315 72.1041 86.8715 72.0076 86.9592 71.8019C87.0469 71.5962 86.9504 71.3562 86.7448 71.2685C86.5393 71.1809 86.2993 71.2774 86.2116 71.4831ZM75.4479 69.2087C75.2717 69.9265 74.8371 71.6822 74.482 73.1108C73.4507 77.2595 73.3229 78.0637 73.7363 77.8007C73.9499 77.6646 74.8334 77.5238 75.6992 77.4877C76.565 77.4516 77.9091 77.3008 78.6863 77.1523C79.4632 77.0036 80.1998 77.0251 80.3228 77.1996C80.4455 77.3739 80.6224 77.3383 80.7152 77.1207C80.808 76.9031 81.3046 76.904 81.8186 77.1232C82.3325 77.3423 82.8073 77.3945 82.8736 77.2389C82.94 77.0834 83.635 76.9692 84.4176 76.9851C85.2004 77.0007 86.1627 76.959 86.5558 76.8919C86.9487 76.8252 87.5604 76.7894 87.9151 76.8121C88.2698 76.8352 89.9123 76.7957 91.5655 76.7242L94.5713 76.5947L88.3671 73.8647C84.9548 72.3637 80.7242 70.4081 78.9656 69.5198L75.7679 67.9039L75.4479 69.2087ZM195.826 124.191C195.695 124.5 195.735 124.815 195.915 124.892C196.095 124.969 196.56 124.869 196.948 124.67C197.536 124.367 197.522 124.251 196.859 123.969C196.403 123.774 195.964 123.869 195.826 124.191ZM27.4301 53.9309C27.3424 54.1365 27.4389 54.3766 27.6444 54.4642C27.85 54.5519 28.09 54.4553 28.1777 54.2497C28.2654 54.044 28.169 53.804 27.9634 53.7163C27.7578 53.6286 27.5178 53.7252 27.4301 53.9309ZM132.898 99.7882C132.81 99.9939 132.916 100.238 133.134 100.331C133.352 100.424 133.498 100.287 133.458 100.027C133.419 99.7674 133.313 99.5233 133.222 99.4846C133.131 99.4458 132.985 99.5825 132.898 99.7882ZM104.494 90.7699C104.406 90.9756 104.513 91.2199 104.73 91.3127C104.948 91.4055 105.094 91.2689 105.054 91.009C105.015 90.7492 104.909 90.505 104.818 90.4663C104.727 90.4276 104.581 90.5643 104.494 90.7699ZM192.178 128.602C192.09 128.808 192.187 129.048 192.393 129.136C192.598 129.223 192.838 129.127 192.926 128.921C193.013 128.715 192.917 128.475 192.711 128.388C192.506 128.3 192.266 128.397 192.178 128.602ZM82.6805 88.0518C82.0145 88.1218 79.8147 87.5082 74.3896 85.7389C71.4002 84.7638 70.8959 84.8607 70.9337 86.4038C70.9604 87.5148 70.9938 87.5392 72.1913 87.3251C72.8675 87.2042 74.1529 87.3342 75.0478 87.6141C75.9422 87.8943 76.8594 87.9924 77.0861 87.8327C77.3124 87.6729 77.6226 87.7194 77.7748 87.9355C77.9273 88.1517 78.2452 88.1294 78.4812 87.8858C78.7172 87.6421 79.1821 87.6499 79.5139 87.9036C79.8459 88.157 81.1837 88.4283 82.4868 88.5062C83.7899 88.5841 84.5227 88.4975 84.1153 88.3132C83.7078 88.1292 83.0621 88.0117 82.6805 88.0518ZM157.137 122.61C155.341 123.186 153.907 124.442 152.666 126.529C152.097 127.484 151.485 128.37 151.305 128.497C151.125 128.624 150.477 129.914 149.864 131.363C148.644 134.25 148.654 136.704 149.89 137.768C150.814 138.562 151.011 138.39 152.332 135.636C153.399 133.411 154.551 132.343 154.801 133.349C154.937 133.9 155.965 134.201 156.49 133.844C156.756 133.663 157.183 133.718 157.438 133.965C157.694 134.213 158.179 134.346 158.516 134.26C158.853 134.174 160.199 134.294 161.507 134.527C163.176 134.824 163.892 134.777 163.907 134.371C163.918 134.053 164.077 133.856 164.259 133.933C164.441 134.011 164.577 134.259 164.562 134.485C164.545 134.734 165.128 135.003 166.047 135.171C167.213 135.383 167.554 135.588 167.536 136.068C167.491 137.285 163.874 142.663 162.435 143.652C161.943 143.99 161.642 144.308 161.764 144.361C162.106 144.506 158.82 146.988 155.9 148.789C154.46 149.678 153.218 150.54 153.14 150.706C152.934 151.142 149.048 152.046 147.51 152.015C146.79 152 145.832 151.806 145.38 151.583C144.615 151.204 144.494 151.329 143.604 153.416C143.079 154.648 142.77 155.722 142.917 155.804C143.065 155.886 143.455 156.134 143.785 156.355C144.115 156.577 144.547 156.644 144.746 156.504C144.945 156.363 145.223 156.412 145.364 156.611C145.505 156.81 146.106 156.871 146.7 156.746C147.294 156.62 148.072 156.642 148.428 156.794C148.785 156.947 150.072 156.699 151.287 156.245C152.502 155.791 153.665 155.492 153.872 155.58C154.078 155.668 154.193 155.604 154.126 155.438C154.059 155.272 154.959 154.711 156.124 154.191C157.291 153.671 158.295 153.133 158.358 152.994C158.419 152.855 158.777 152.607 159.151 152.442C159.525 152.276 160.449 151.612 161.204 150.965C161.958 150.318 163.184 149.353 163.928 148.819C164.672 148.286 165.883 147.012 166.618 145.988C167.354 144.965 168.162 143.918 168.414 143.66C169.155 142.904 169.31 142.529 169.152 141.876C169.048 141.449 169.182 141.336 169.588 141.509C170.022 141.694 170.4 141.311 171.045 140.031C173.125 135.907 172.883 132.82 170.321 130.819C169.229 129.967 165.55 128.371 165.413 128.691C165.373 128.785 163.521 128.23 160.846 127.323C159.645 126.916 158.443 126.616 158.175 126.657C157.858 126.705 157.948 126.318 158.432 125.553C159.138 124.436 159.315 122.543 158.736 122.298C158.589 122.235 157.87 122.376 157.137 122.61ZM69.2135 91.6416C68.3005 91.78 68.5594 92.2038 69.5916 92.2603C70.0505 92.2854 70.3048 92.1335 70.1562 91.9225C70.0074 91.7119 69.5834 91.5855 69.2135 91.6416ZM168.822 134.133C168.221 134.557 168.549 135.135 169.234 134.86C169.617 134.706 169.713 134.499 169.525 134.233C169.37 134.014 169.054 133.969 168.822 134.133ZM185.426 143.401C185.338 143.607 185.435 143.847 185.64 143.935C185.846 144.022 186.086 143.926 186.173 143.72C186.261 143.514 186.165 143.274 185.959 143.187C185.753 143.099 185.513 143.196 185.426 143.401ZM211.031 156.994C210.74 157.588 211.056 158.75 211.567 158.968C211.732 159.038 212.018 158.741 212.202 158.308C212.429 157.777 212.335 157.513 211.914 157.497C211.57 157.485 211.294 157.238 211.299 156.951C211.304 156.631 211.199 156.649 211.031 156.994ZM217.275 159.881C217.138 160.202 217.242 160.431 217.506 160.391C217.77 160.351 217.956 160.121 217.919 159.879C217.82 159.223 217.555 159.224 217.275 159.881ZM216.08 160.292C215.631 160.473 216.195 162.27 216.775 162.508C217.07 162.629 217.105 162.55 216.898 162.229C216.74 161.983 216.574 161.413 216.531 160.962C216.487 160.511 216.284 160.21 216.08 160.292ZM212.029 159.904C211.018 160.358 211.325 160.907 212.358 160.491C212.814 160.307 213.093 160.026 212.978 159.865C212.862 159.704 212.435 159.722 212.029 159.904ZM213.867 160.738C213.354 161.15 213.37 161.315 213.943 161.56C214.383 161.747 214.771 161.607 214.946 161.198C215.102 160.831 215.068 160.461 214.87 160.377C214.672 160.292 214.22 160.455 213.867 160.738ZM201.516 155.97C201.312 156.114 201.263 156.397 201.407 156.601C201.55 156.804 201.834 156.853 202.037 156.71C202.24 156.566 202.289 156.283 202.146 156.079C202.003 155.876 201.719 155.827 201.516 155.97ZM166.586 141.997C166.499 142.203 166.605 142.447 166.823 142.54C167.04 142.633 167.187 142.496 167.147 142.236C167.108 141.977 167.002 141.732 166.911 141.694C166.82 141.655 166.674 141.792 166.586 141.997ZM184.37 150.022C183.758 150.128 183.749 150.187 184.306 150.431C184.664 150.587 185.029 150.547 185.117 150.341C185.312 149.885 185.269 149.867 184.37 150.022ZM211.097 161.419C210.882 161.571 210.874 161.766 211.08 161.854C211.285 161.942 211.629 161.89 211.844 161.738C212.059 161.587 212.066 161.391 211.861 161.303C211.655 161.215 211.311 161.268 211.097 161.419ZM31.4351 104.195C31.1629 104.387 30.9983 104.688 31.069 104.864C31.2608 105.342 31.8355 105.005 31.8858 104.386C31.9215 103.952 31.8333 103.914 31.4351 104.195ZM139.307 151.579C139.347 151.839 139.453 152.083 139.544 152.122C139.635 152.161 139.78 152.024 139.868 151.818C139.956 151.613 139.849 151.368 139.632 151.275C139.414 151.183 139.268 151.319 139.307 151.579ZM63.4433 119.697C63.3505 119.915 63.487 120.061 63.7468 120.022C64.0066 119.982 64.2507 119.876 64.2894 119.785C64.3282 119.694 64.1916 119.548 63.986 119.461C63.7804 119.373 63.5361 119.48 63.4433 119.697ZM42.47 112.937C42.3823 113.143 42.4787 113.383 42.6843 113.471C42.8899 113.559 43.1299 113.462 43.2176 113.256C43.3053 113.051 43.2088 112.811 43.0032 112.723C42.7976 112.635 42.5577 112.732 42.47 112.937ZM24.2818 105.488C23.6813 105.73 23.658 106.242 24.2359 106.488C24.5443 106.619 24.864 106.569 24.9466 106.375C25.1477 105.904 24.7078 105.317 24.2818 105.488ZM40.1225 113.262C40.0348 113.468 40.1313 113.708 40.3369 113.796C40.5425 113.883 40.7825 113.787 40.8702 113.581C40.9579 113.375 40.8614 113.135 40.6558 113.048C40.4502 112.96 40.2103 113.057 40.1225 113.262ZM42.7271 114.666C41.9567 114.651 41.6109 115.665 42.2882 115.954C42.5996 116.086 42.9907 115.86 43.1679 115.445C43.3433 115.034 43.4388 114.692 43.3807 114.687C43.3227 114.681 43.0284 114.672 42.7271 114.666ZM175.841 171.577C174.997 171.58 174.994 171.598 175.786 171.965C176.243 172.176 176.688 172.181 176.775 171.976C176.863 171.77 176.888 171.596 176.83 171.588C176.772 171.581 176.327 171.576 175.841 171.577ZM21.9159 107.267C21.8282 107.472 21.9247 107.712 22.1303 107.8C22.3358 107.888 22.5758 107.791 22.6635 107.585C22.7512 107.38 22.6548 107.14 22.4492 107.052C22.2436 106.964 22.0036 107.061 21.9159 107.267ZM40.52 115.064C39.8827 115.321 39.7517 116.198 40.3146 116.438C40.623 116.569 40.9787 116.435 41.1051 116.138C41.3716 115.513 41.0179 114.864 40.52 115.064ZM38.332 115.015C37.7315 115.257 37.7082 115.769 38.2861 116.015C38.5945 116.146 38.9143 116.096 38.9969 115.902C39.198 115.431 38.7581 114.844 38.332 115.015ZM42.4104 116.945C42.5552 117.309 42.8079 117.552 42.9717 117.486C43.136 117.42 43.0177 117.122 42.709 116.824C42.2628 116.395 42.2016 116.419 42.4104 116.945ZM19.871 108.067C19.26 108.018 18.6912 109.277 19.0774 109.825C19.4445 110.346 20.5866 110.01 21.2172 109.195C21.6924 108.581 21.2095 108.176 19.871 108.067ZM17.4354 108.45C17.3477 108.655 17.4442 108.895 17.6498 108.983C17.8554 109.071 18.0953 108.974 18.183 108.769C18.2707 108.563 18.1743 108.323 17.9687 108.235C17.7631 108.147 17.5231 108.244 17.4354 108.45ZM36.7138 117.112C36.6261 117.318 36.7225 117.558 36.9281 117.646C37.1337 117.733 37.3737 117.637 37.4614 117.431C37.5491 117.225 37.4526 116.985 37.247 116.898C37.0414 116.81 36.8015 116.907 36.7138 117.112ZM14.939 110.302C14.3269 110.861 14.3638 110.98 15.2566 111.321C15.9144 111.573 16.3057 111.507 16.3781 111.133C16.4397 110.817 16.746 110.519 17.0595 110.472C17.3884 110.422 17.2074 110.234 16.6306 110.027C16.0263 109.811 15.3581 109.919 14.939 110.302ZM17.7869 111.251C17.8263 111.511 17.9325 111.755 18.0233 111.794C18.1142 111.833 18.2599 111.696 18.3477 111.49C18.4354 111.285 18.3288 111.04 18.1113 110.948C17.8937 110.855 17.7476 110.991 17.7869 111.251ZM63.7648 130.857C63.55 131.009 63.5526 131.209 63.7702 131.301C63.9878 131.394 64.2378 131.302 64.3255 131.096C64.4132 130.891 64.411 130.691 64.3201 130.652C64.2293 130.613 63.9796 130.706 63.7648 130.857ZM12.6452 109.479C12.6004 110.029 13.0759 110.335 13.3129 109.907C13.3919 109.764 13.2834 109.495 13.0718 109.307C12.8602 109.12 12.6682 109.197 12.6452 109.479ZM18.8428 112.401C18.5612 113.062 19.415 113.29 19.9416 112.695C20.1274 112.485 20.0126 112.2 19.687 112.062C19.3618 111.923 18.9817 112.076 18.8428 112.401ZM68.0413 135.333C68.0807 135.592 68.1868 135.837 68.2777 135.875C68.3685 135.914 68.5143 135.777 68.602 135.572C68.6897 135.366 68.5831 135.122 68.3656 135.029C68.148 134.936 68.0019 135.073 68.0413 135.333ZM12.1128 112.843C12.0922 113.095 12.2348 113.37 12.4303 113.453C12.6258 113.536 12.9228 113.449 13.0907 113.26C13.2586 113.07 13.116 112.795 12.7732 112.649C12.4304 112.503 12.1334 112.59 12.1128 112.843ZM63.8523 135.314C63.7646 135.52 63.861 135.76 64.0666 135.847C64.2722 135.935 64.5122 135.839 64.5999 135.633C64.6876 135.427 64.5911 135.187 64.3856 135.1C64.18 135.012 63.94 135.108 63.8523 135.314ZM62.4119 135.584C62.3242 135.79 62.4207 136.03 62.6263 136.117C62.8319 136.205 63.0719 136.108 63.1596 135.903C63.2473 135.697 63.1508 135.457 62.9452 135.369C62.7396 135.282 62.4997 135.378 62.4119 135.584ZM58.998 136.338C58.9103 136.544 59.0067 136.784 59.2123 136.871C59.4179 136.959 59.6579 136.862 59.7456 136.657C59.8333 136.451 59.7369 136.211 59.5313 136.123C59.3257 136.036 59.0857 136.132 58.998 136.338ZM108.801 161.995C108.587 162.146 108.589 162.346 108.807 162.439C109.024 162.532 109.274 162.439 109.362 162.234C109.45 162.028 109.448 161.828 109.357 161.789C109.266 161.751 109.016 161.843 108.801 161.995ZM164.316 188.761C164.229 188.967 164.325 189.207 164.531 189.294C164.736 189.382 164.976 189.286 165.064 189.08C165.152 188.874 165.055 188.634 164.85 188.546C164.644 188.459 164.404 188.555 164.316 188.761ZM161.227 187.913C161.201 188.221 161.37 188.642 161.602 188.847C161.842 189.06 162.042 188.979 162.068 188.659C162.093 188.351 161.925 187.93 161.693 187.726C161.453 187.513 161.253 187.593 161.227 187.913ZM53.1921 142.701C53.1044 142.907 53.2008 143.147 53.4064 143.235C53.612 143.322 53.852 143.226 53.9397 143.02C54.0274 142.814 53.9309 142.574 53.7253 142.487C53.5198 142.399 53.2798 142.496 53.1921 142.701ZM54.6873 143.339C54.5996 143.545 54.696 143.785 54.9016 143.872C55.1072 143.96 55.3472 143.863 55.4349 143.658C55.5226 143.452 55.4262 143.212 55.2206 143.124C55.015 143.037 54.775 143.133 54.6873 143.339ZM106.407 166.056C106.275 166.365 106.331 166.687 106.53 166.772C106.729 166.856 106.903 166.632 106.916 166.273C106.929 165.914 106.874 165.592 106.793 165.558C106.712 165.523 106.538 165.748 106.407 166.056ZM57.2268 146.19C57.012 146.341 57.0146 146.541 57.2321 146.634C57.4497 146.727 57.6998 146.634 57.7875 146.429C57.8752 146.223 57.8729 146.023 57.7821 145.985C57.6913 145.946 57.4416 146.038 57.2268 146.19ZM54.3187 146.275C54.2309 146.481 54.3274 146.721 54.533 146.809C54.7386 146.897 54.9786 146.8 55.0663 146.594C55.154 146.389 55.0575 146.149 54.8519 146.061C54.6463 145.973 54.4064 146.07 54.3187 146.275ZM101.258 166.733C101.171 166.939 101.277 167.183 101.495 167.276C101.712 167.369 101.859 167.232 101.819 166.973C101.78 166.713 101.674 166.469 101.583 166.43C101.492 166.391 101.346 166.528 101.258 166.733ZM158.589 191.854C158.715 192.278 158.928 192.581 159.063 192.527C159.432 192.378 159.208 191.444 158.757 191.252C158.508 191.146 158.445 191.373 158.589 191.854ZM100.628 168.697C100.028 169.12 100.356 169.699 101.041 169.423C101.424 169.269 101.519 169.063 101.331 168.796C101.177 168.578 100.861 168.533 100.628 168.697ZM98.6976 172.739C98.6048 172.957 98.7413 173.103 99.0011 173.063C99.2609 173.024 99.505 172.918 99.5438 172.827C99.5825 172.736 99.4459 172.59 99.2403 172.502C99.0347 172.415 98.7904 172.521 98.6976 172.739ZM157.878 199.716C157.79 199.922 157.887 200.162 158.092 200.25C158.298 200.337 158.538 200.241 158.625 200.035C158.713 199.829 158.617 199.589 158.411 199.502C158.205 199.414 157.965 199.511 157.878 199.716ZM90.9552 175.356C90.8279 175.654 90.3521 175.954 89.898 176.022C89.1835 176.129 89.204 176.185 90.0508 176.44C90.7257 176.644 91.178 176.49 91.5079 175.945C91.7708 175.51 91.8062 175.078 91.5864 174.984C91.3662 174.89 91.0823 175.058 90.9552 175.356ZM92.3042 176.064C92.1603 176.185 91.825 176.719 91.5588 177.252C91.2028 177.966 91.249 178.267 91.7347 178.395C92.3675 178.561 93.3165 177.88 93.7919 176.919C94.0321 176.433 92.7458 175.693 92.3042 176.064ZM94.8198 177.689C94.7321 177.894 94.8185 178.13 95.0121 178.213C95.2058 178.295 95.5396 178.239 95.7544 178.087C95.9692 177.936 95.8824 177.7 95.5621 177.563C95.2417 177.427 94.9075 177.483 94.8198 177.689ZM90.1403 179.08C90.3532 179.293 90.7737 179.473 91.0749 179.478C91.3762 179.484 91.2019 179.31 90.688 179.09C90.174 178.871 89.9277 178.866 90.1403 179.08ZM155.428 208.652C155.26 209.096 155.311 209.222 155.557 208.975C155.78 208.751 155.904 208.422 155.833 208.245C155.762 208.068 155.58 208.251 155.428 208.652ZM91.0372 181.379C90.9495 181.585 91.046 181.825 91.2516 181.913C91.4572 182 91.6972 181.904 91.7849 181.698C91.8726 181.492 91.7761 181.252 91.5705 181.165C91.3649 181.077 91.125 181.174 91.0372 181.379ZM155.947 209.942C155.432 210.306 155.58 211.196 156.142 211.111C156.716 211.024 157.144 210.011 156.689 209.817C156.496 209.734 156.162 209.791 155.947 209.942ZM156.804 212.075C156.844 212.335 156.95 212.579 157.041 212.618C157.132 212.657 157.277 212.52 157.365 212.315C157.453 212.109 157.346 211.865 157.129 211.772C156.911 211.679 156.765 211.816 156.804 212.075ZM155.501 214.613C155.414 214.819 155.52 215.063 155.738 215.156C155.955 215.249 156.101 215.112 156.062 214.853C156.023 214.593 155.916 214.349 155.826 214.31C155.735 214.271 155.589 214.408 155.501 214.613Z" fill="#FA1317"/>
</svg>
