<svg width="46" height="45" viewBox="0 0 46 45" fill="none" xmlns="http://www.w3.org/2000/svg">
<circle cx="23.4434" cy="22.5" r="22.5" fill="#D9D9D9"/>
<path d="M27.9174 14.5767C19.3238 18.0668 9.471 22.6742 9.36172 23.2538C9.21859 24.0137 12.6789 25.3895 14.8762 25.4466C16.3191 25.4843 16.8522 25.2068 21.4185 22.0442C24.153 20.1508 26.6271 18.5094 26.9169 18.3971C28.2749 17.8717 27.1215 19.4053 23.5676 22.8506C20.8686 25.4674 19.7291 26.8069 19.8157 27.2605C19.9662 28.0479 28.1981 33.7627 29.1822 33.7627C30.3807 33.7627 30.8468 32.358 31.9786 25.336C33.4138 16.4286 33.6428 13.7231 32.9959 13.3101C32.2568 12.8382 32.1046 12.8759 27.9174 14.5767Z" fill="black"/>
</svg>
