<svg width="45" height="45" viewBox="0 0 45 45" fill="none" xmlns="http://www.w3.org/2000/svg">
<circle cx="22.5" cy="22.499" r="22.5" fill="#D9D9D9"/>
<path fill-rule="evenodd" clip-rule="evenodd" d="M18.1501 14.3245C17.225 14.0886 18.0336 13.5212 19.8007 13.1663C21.3838 12.8484 23.6976 13.0002 24.6041 13.4814C25.2245 13.8109 25.2574 13.9479 25.2001 15.963C25.106 19.2747 25.129 19.9298 25.3545 20.3603C25.5196 20.6755 25.6169 20.7517 25.8855 20.7763C26.1589 20.8013 26.3019 20.7287 26.7359 20.3441C27.6594 19.526 29.2885 16.9554 30.2017 14.8754C30.3867 14.4541 30.6344 14.0563 30.7607 13.978C30.9466 13.8626 31.5124 13.8386 33.9111 13.8442C35.6685 13.8483 36.9117 13.8899 37.0271 13.9485C37.2981 14.0858 37.376 14.4859 37.2317 14.9994C37.0205 15.7518 36.2294 16.9514 34.5404 19.0809C32.9546 21.0802 32.5417 21.702 32.5379 22.0971C32.5345 22.4394 32.8821 22.8384 34.6398 24.5093C36.8947 26.6531 37.6462 27.7364 37.3318 28.3901C37.1057 28.86 36.7219 28.9137 33.8229 28.8812C31.9879 28.8606 31.2006 28.8747 30.562 28.5897C30.0098 28.3433 29.5689 27.8732 28.6578 26.9636C27.0624 25.3709 26.6112 25.0905 26.0519 25.3445C25.5534 25.5708 25.2954 26.1654 25.2101 27.2845C25.086 28.9132 25.025 28.95 22.5729 28.8716C20.5353 28.8063 19.563 28.608 18.2216 27.9839C16.5403 27.2016 15.1632 26.0119 13.5273 23.9284C11.8849 21.8366 10.0126 18.7883 8.65438 15.9947C8.16025 14.9783 7.87732 14.4425 8.05174 14.1603C8.25751 13.8273 9.09977 13.8472 10.9827 13.8472C12.7602 13.8472 13.4313 13.8085 13.8379 14.1002C14.1411 14.3179 14.2973 14.7195 14.6558 15.4583C16.4068 19.0662 17.982 21.0689 18.8273 20.7616C19.6115 20.4765 19.89 16.5288 19.2163 15.2463C18.9723 14.7817 18.5661 14.4305 18.1501 14.3245Z" fill="black"/>
</svg>
