<svg width="46" height="45" viewBox="0 0 46 45" fill="none" xmlns="http://www.w3.org/2000/svg">
<circle cx="23.3867" cy="22.5" r="22.5" fill="#D9D9D9"/>
<path fill-rule="evenodd" clip-rule="evenodd" d="M21.1297 5.04516C19.2454 5.234 15.956 6.30429 14.5511 7.18583C14.4033 7.27855 14.2287 7.32307 14.1631 7.28468C14.0923 7.24309 14.07 7.25469 14.1083 7.31336C14.1765 7.41824 13.7203 7.74696 13.5065 7.74696C13.4365 7.74696 13.3986 7.76545 13.4223 7.7879C13.4461 7.81044 13.0167 8.17179 12.4684 8.59087C11.92 9.01005 11.4483 9.40979 11.4203 9.47912C11.3922 9.54854 11.2972 9.594 11.2091 9.58014C11.1209 9.56618 11.0475 9.61853 11.0459 9.69634C11.0418 9.89395 10.3897 10.5514 10.2684 10.4802C10.2123 10.4473 10.1996 10.469 10.2392 10.5299C10.328 10.6663 9.70955 11.4093 9.57372 11.3296C9.51848 11.2972 9.50178 11.3145 9.53666 11.368C9.57144 11.4215 9.39635 11.757 9.14754 12.1136C8.13153 13.5694 7.25662 15.6282 6.80789 17.6195C6.48366 19.0585 6.47829 21.8317 6.79696 23.3314C7.14056 24.9488 7.69244 26.4073 8.58941 28.0682L8.85809 28.5657L7.44681 32.5485C6.67056 34.7391 6.0222 36.595 6.00601 36.6728C5.96706 36.8598 6.086 36.8429 7.31793 36.4863C7.89176 36.3202 8.62955 36.1073 8.95746 36.0131C9.28536 35.9189 10.202 35.6439 10.9944 35.4021C13.4227 34.661 14.9381 34.2204 15.0585 34.2204C15.1217 34.2204 15.5088 34.3715 15.9188 34.5562C17.0001 35.0433 18.8731 35.604 20.1458 35.8215C24.1579 36.5073 28.2996 35.7796 31.7121 33.7893C32.04 33.598 32.3623 33.4399 32.4282 33.4379C32.494 33.436 32.5311 33.4084 32.5104 33.3767C32.4898 33.345 32.7466 33.1292 33.0813 32.8972C33.9879 32.2686 35.3896 30.9684 36.055 30.139C36.3964 29.7133 36.6885 29.4327 36.7516 29.4696C36.8172 29.5082 36.8317 29.4897 36.7881 29.4228C36.7486 29.3619 36.8147 29.1606 36.9354 28.9754C37.104 28.7165 37.1766 28.6678 37.2499 28.7648C37.3206 28.8588 37.3303 28.8479 37.2874 28.722C37.2549 28.6265 37.3289 28.4007 37.4573 28.2032C37.9716 27.4131 38.6154 25.9738 38.9608 24.8423C39.8782 21.8376 39.8057 18.5213 38.7585 15.5782C38.2392 14.1183 36.8696 11.7216 36.1157 10.9531C36.0049 10.8402 35.9447 10.7013 35.9819 10.6442C36.0189 10.5872 36.0122 10.5522 35.9669 10.5665C35.9216 10.5807 35.4246 10.1574 34.8625 9.62579C34.3005 9.09418 33.5952 8.48712 33.2953 8.27687C32.9791 8.05512 32.7785 7.85081 32.8178 7.79045C32.8566 7.73074 32.8403 7.71291 32.7795 7.74866C32.7212 7.7828 32.3007 7.59114 31.845 7.3227C29.7996 6.11743 27.1799 5.25381 25.005 5.06771C24.0832 4.98876 21.8236 4.97574 21.1297 5.04516ZM21.8253 7.58095C20.5463 7.71829 19.4912 7.93985 18.3972 8.30083C16.9584 8.77556 14.0822 10.4119 14.2369 10.6678C14.2746 10.7301 14.2687 10.7496 14.224 10.7112C14.1128 10.6154 13.8626 10.8256 13.9422 10.9478C13.9789 11.0041 13.9581 11.0179 13.8936 10.9801C13.7428 10.8915 13.0605 11.4899 13.1263 11.6529C13.1549 11.7235 13.136 11.7565 13.0843 11.7262C12.9467 11.6454 12.3658 12.2664 11.6789 13.2285C10.0371 15.528 9.30146 17.8196 9.29431 20.6568C9.29093 22.0129 9.46204 23.1192 9.86784 24.3636C10.1142 25.1189 11.1127 27.0519 11.2231 26.9871C11.2781 26.9548 11.2929 26.975 11.2559 27.0319C11.2187 27.0888 11.3469 27.3706 11.5405 27.6579L11.8926 28.1803L11.0486 30.5457C10.3779 32.4254 10.2398 32.9008 10.376 32.8613C10.4702 32.8341 11.6408 32.4877 12.9774 32.0917L15.4074 31.3719L16.4552 31.8941C17.682 32.5057 18.7274 32.8841 20.0367 33.1906C20.8638 33.3842 21.2267 33.412 22.968 33.4151C24.5228 33.4179 25.1391 33.3814 25.7999 33.2474C28.4932 32.7012 30.7829 31.5503 32.6857 29.7859C33.454 29.0737 33.6459 28.8443 33.5955 28.6985C33.55 28.5671 33.5588 28.5499 33.6261 28.6389C33.7372 28.7862 34.0564 28.432 34.7747 27.3639C35.6602 26.0471 36.1209 24.983 36.5431 23.2789C36.7299 22.525 36.7663 22.0985 36.7724 20.5907C36.7803 18.673 36.6843 18.0212 36.1611 16.4405C35.8692 15.5584 34.9743 13.8162 34.8504 13.8888C34.8036 13.9164 34.7714 13.8651 34.7789 13.7748C34.7864 13.6841 34.7336 13.6224 34.6609 13.6367C34.5885 13.6509 34.5568 13.6203 34.5905 13.5686C34.6693 13.4476 34.3516 12.9829 34.2362 13.0506C34.1882 13.0787 34.1715 13.0458 34.1992 12.9773C34.2511 12.8488 32.8868 11.2972 32.4067 10.9387C32.2577 10.8275 32.0895 10.7637 32.0329 10.7969C31.9758 10.8304 31.9594 10.812 31.996 10.7557C32.0325 10.6998 31.9164 10.5564 31.7382 10.4372C31.5599 10.3178 31.3264 10.144 31.2193 10.0507C30.8974 9.77067 29.4798 8.99514 28.6318 8.63539C26.9948 7.94089 25.4943 7.63415 23.4648 7.57878C22.7543 7.55945 22.0166 7.56039 21.8253 7.58095ZM17.0961 13.4766C16.6353 13.6036 15.8059 14.4964 15.4175 15.2835C14.6228 16.8937 14.9434 18.6093 16.4429 20.7698C18.0131 23.0324 20.2558 25.1415 22.1745 26.16C23.2793 26.7465 25.5809 27.5601 26.8236 27.8033C27.6325 27.9617 28.5793 27.7969 29.5725 27.325C30.5351 26.8677 31.0972 26.3157 31.3082 25.6207C31.4753 25.0702 31.5363 24.2212 31.4213 24.0446C31.335 23.9121 28.3996 22.5075 27.8633 22.3422C27.3647 22.1883 27.2177 22.2545 26.6942 22.8678C25.9386 23.753 25.4254 24.2221 25.2127 24.2221C24.9417 24.2221 22.9889 23.262 22.4514 22.8645C21.7165 22.3211 21.1298 21.7714 21.1551 21.6503C21.1685 21.5863 21.1235 21.5446 21.055 21.5576C20.9865 21.5706 20.763 21.408 20.5582 21.1962C20.1871 20.8126 19.2418 19.5264 19.2418 19.4052C19.2418 19.3701 19.5294 18.9753 19.881 18.5276C20.2326 18.0801 20.5492 17.6268 20.5848 17.5204C20.7082 17.1513 19.1382 13.6691 18.7623 13.4781C18.5232 13.3566 17.535 13.3557 17.0961 13.4766Z" fill="black"/>
</svg>
