<svg width="267" height="119" viewBox="0 0 267 119" fill="none" xmlns="http://www.w3.org/2000/svg">
<path fill-rule="evenodd" clip-rule="evenodd" d="M108.833 0.0473013C108.762 0.112538 105.523 0.314128 101.635 0.495399C97.7464 0.676136 93.0881 0.937612 91.2829 1.07557C89.4776 1.21353 84.4446 1.39427 80.0989 1.47715C75.7526 1.56004 72.3012 1.80868 72.4279 2.02899C72.5547 2.24929 72.4315 2.43003 72.1537 2.43003C71.876 2.43003 71.4998 2.17497 71.318 1.86322C71.1084 1.50442 70.7247 1.65147 70.2712 2.26427C69.7612 2.95299 69.593 3.00593 69.6885 2.44714C69.789 1.85467 69.388 1.70334 68.0544 1.82953C67.0824 1.92204 66.0598 2.16855 65.7821 2.37816C65.5043 2.58777 64.8226 2.7006 64.2672 2.62895C60.2699 2.11294 56.5412 2.39955 55.7024 3.28719C55.2576 3.75882 54.9253 3.85507 54.9253 3.51338C54.9253 3.1209 54.2764 3.02999 53.0317 3.24816C51.6228 3.49467 51.332 3.43478 51.8955 3.01288C52.5525 2.52147 52.5393 2.44554 51.7945 2.43805C51.3224 2.43377 50.7043 2.85086 50.421 3.3658C50.1352 3.88502 49.8994 4.00426 49.8908 3.63316C49.8716 2.79044 47.2483 2.75247 46.4631 3.58397C46.0207 4.05239 45.7046 4.04971 45.1613 3.5722C44.6568 3.12892 44.0564 3.0979 43.1379 3.4674C42.3077 3.8016 41.7229 3.80641 41.5326 3.48076C41.218 2.94176 34.4206 3.11073 33.8914 3.67113C33.7223 3.85026 33.1734 3.76364 32.6709 3.47916C32.0892 3.14977 31.6494 3.14763 31.459 3.47488C31.2944 3.75668 30.8258 3.85186 30.4183 3.6861C30.0108 3.52087 29.675 3.59146 29.6724 3.84331C29.6699 4.09517 28.0222 4.36038 26.0114 4.43257C22.0586 4.57427 18.0294 5.38866 16.0863 6.43833L14.8678 7.09658L17.8305 10.1359L20.7936 13.1748L24.3516 13.0855C26.3084 13.0363 29.0458 12.7898 30.4344 12.5374C31.8231 12.2855 34.2091 11.9615 35.7366 11.8177C37.2641 11.6733 41.1271 11.2022 44.321 10.7696C62.7947 8.26922 80.876 7.49654 120.066 7.5313C143.388 7.55215 152.765 7.97406 149.763 8.86758C149.016 9.09003 145.493 9.6702 141.936 10.1568C130.82 11.677 128.125 12.069 119.813 13.3753C115.37 14.0742 110.371 14.811 108.704 15.0137C107.038 15.2169 105.502 15.4912 105.292 15.6244C104.837 15.9115 89.3064 18.245 84.9708 18.6776C73.603 19.8107 70.5762 20.0791 70.2227 19.9845C70.0021 19.9257 68.2311 20.046 66.287 20.2513C64.3429 20.4567 58.8893 20.9887 54.1678 21.4331C49.4464 21.878 44.4472 22.4731 43.0586 22.7549C41.6699 23.0372 38.1478 23.65 35.2316 24.1179C32.3154 24.5853 27.2027 25.5852 23.8699 26.3402C20.5371 27.0947 16.3333 28.0257 14.528 28.408C4.02925 30.6325 2.54213 31.7276 0.798477 38.5197C-0.228119 42.5194 -0.235693 42.7509 0.60861 44.4107C1.17215 45.5187 2.60373 46.7903 4.59885 47.956C8.35328 50.1478 8.80472 51.4696 6.4339 53.323C4.50442 54.8309 3.44804 57.3334 3.30866 60.7268C3.22787 62.694 3.57225 64.0111 4.83719 66.5654C6.45662 69.8374 6.46622 69.9005 5.98195 74.2462C4.72812 85.507 4.07116 100.819 4.84174 100.819C5.57394 100.819 5.74866 99.1901 6.73486 83.1735C7.13883 76.6108 8.17603 69.6385 8.77947 69.4267C9.10416 69.3134 9.48895 70.1946 9.68689 71.5047C10.0893 74.1714 10.1237 86.3887 9.74597 92.5311C9.60105 94.8839 9.36927 99.0206 9.2304 101.723C8.9865 106.48 8.39064 111.505 7.51655 116.178C7.10904 118.357 7.21761 119 7.99273 119C8.66585 119 9.99896 111.356 10.5075 104.581C10.7842 100.895 11.2336 94.9909 11.5063 91.4617C11.779 87.9325 12.0183 82.0372 12.038 78.3609C12.0582 74.6847 12.1996 71.1245 12.3521 70.4492C12.6985 68.915 16.3358 66.4147 22.6251 63.387C29.1993 60.2225 35.3478 57.5067 35.9371 57.5067C36.2067 57.5067 37.3515 57.0409 38.4806 56.472C40.9706 55.217 46.2202 53.3433 49.0576 52.6963C52.6868 51.8691 59.6811 49.6901 60.8698 49.0163C61.5 48.6591 62.2291 48.5067 62.4897 48.6773C62.7502 48.8479 63.3703 48.7511 63.8677 48.4623C65.0539 47.7741 70.9893 46.0539 75.1239 45.1994C76.9292 44.8267 79.9969 44.1872 81.941 43.7782C83.8851 43.3696 85.8166 43.0226 86.2332 43.0071C86.6498 42.9916 88.2404 42.7702 89.768 42.5157C95.8331 41.5034 100.305 40.9313 104.159 40.6741C106.381 40.5254 109.79 40.2875 111.734 40.1452C113.678 40.003 117.2 39.756 119.561 39.5966C124.189 39.2833 160.354 39.2581 162.554 39.5667C163.287 39.6699 171.468 39.9201 180.733 40.1233C208.82 40.7398 209.445 40.7366 209.445 39.9944C209.445 39.149 210.075 39.1373 210.859 39.9677C211.33 40.4666 211.465 40.4169 211.465 39.7442C211.465 38.4325 210.904 37.1604 210.455 37.4545C210.235 37.5983 209.924 37.3508 209.762 36.9043C209.528 36.2583 209.658 36.2006 210.4 36.6214C210.912 36.9118 211.512 36.9775 211.732 36.7674C211.952 36.5572 211.97 36.6829 211.772 37.0476C211.533 37.4866 211.665 37.6069 212.164 37.4042C212.578 37.2363 212.792 36.7578 212.641 36.3407C212.49 35.9241 212.618 35.583 212.926 35.583C213.233 35.583 213.485 35.8038 213.485 36.0738C213.485 36.3439 213.623 36.9454 213.791 37.4106C214.011 38.017 213.796 38.2566 213.034 38.2566C212.294 38.2566 211.97 38.5945 211.97 39.364C211.97 40.381 212.036 40.4019 212.781 39.6132C213.449 38.9052 213.73 38.8753 214.377 39.441C215.061 40.0399 215.128 39.9388 214.899 38.6576C214.753 37.8491 214.794 37.1871 214.988 37.1871C215.182 37.1871 215.369 36.4048 215.403 35.4493C215.46 33.8291 215.355 33.7136 213.843 33.7462C212.952 33.7654 211.995 33.6451 211.717 33.4788C211.082 33.0986 209.309 32.9195 203.89 32.688C194.069 32.2677 187.137 31.6688 187.791 31.2977C189.82 30.1443 219.454 28.9182 220.99 29.9234C221.296 30.1234 221.401 30.9651 221.232 31.8607C221.006 33.0575 221.12 33.4441 221.697 33.4441C222.171 33.4441 222.588 32.7323 222.793 31.5725C223.104 29.8202 223.244 29.7042 224.995 29.7545C226.025 29.7839 227.434 29.9774 228.129 30.1855C229.536 30.6068 229.542 30.695 228.682 37.7219C227.934 43.8289 227.98 53.3706 228.756 53.0963C229.162 52.953 229.435 51.4761 229.528 48.9078C229.608 46.7261 229.894 43.2563 230.162 41.1976C231.201 33.2435 231.593 30.7886 231.91 30.2459C232.89 28.5674 233.109 31.3881 232.867 42.551C232.681 51.1098 232.765 54.833 233.142 54.833C233.699 54.833 233.759 54.6186 233.946 51.8921C235.113 34.9739 235.522 30.2491 235.848 29.9042C236.593 29.1149 237.22 30.5475 237.234 33.0746C237.249 35.6316 237.308 35.7685 237.992 34.8124C238.399 34.2413 238.733 33.1125 238.733 32.304C238.733 31.495 238.914 30.7154 239.134 30.571C239.796 30.1379 246.698 31.2201 247.762 31.9244C248.534 32.435 248.911 32.4366 249.485 31.9324C250.289 31.225 251.657 31.5602 252.004 32.5495C252.237 33.2093 251.798 40.2442 250.882 50.5553C249.958 60.9535 249.889 61.8165 249.341 69.8053C249.048 74.0698 248.716 78.8368 248.602 80.3988C248.423 82.8392 248.514 83.2141 249.244 83.067C250.34 82.8462 250.818 76.7621 249.741 76.7487C249.211 76.7418 249.208 76.6573 249.732 76.306C250.155 76.021 250.625 73.0255 251.094 67.6247C251.486 63.0892 252.049 56.7313 252.344 53.4962C252.639 50.2612 253.094 44.5075 253.354 40.7104C253.683 35.9321 254.055 33.567 254.563 33.028C255.206 32.3468 255.371 32.3939 255.881 33.4029C256.201 34.0365 256.424 34.967 256.377 35.4701C256.33 35.9733 256.317 39.6939 256.349 43.7375C256.397 49.889 256.531 51.09 257.164 51.09C257.956 51.09 257.937 51.3376 258.109 38.4346C258.179 33.1553 258.577 32.0324 259.779 33.7125C260.411 34.5948 260.491 35.9915 260.24 41.7323C260.073 45.5556 259.794 50.0981 259.619 51.8268C259.361 54.37 259.434 54.9229 260 54.7234C260.837 54.4283 261.875 46.9576 262.173 39.0875C262.362 34.0777 262.451 33.7104 263.701 32.7463C266.531 30.5624 267.8 25.3066 266.471 21.2689C266.174 20.3663 265.153 19.0669 264.202 18.3814C263.251 17.6959 262.472 16.8344 262.47 16.4666C262.466 15.7329 261.159 15.5447 260.764 16.2211C260.364 16.9066 256.996 16.9532 255.825 16.289C254.947 15.7917 254.658 15.8393 254.288 16.5393C253.905 17.2644 252.806 17.3996 247.418 17.3852C239.989 17.3654 238.964 16.9483 239.358 14.1041C239.867 10.43 237.84 6.15118 234.993 4.89191C233.783 4.35611 228.64 4.06896 215.223 3.78716C205.248 3.57808 196.971 3.3305 196.828 3.23746C196.685 3.14442 193.046 2.91395 188.741 2.72466C184.436 2.5359 180.119 2.2755 179.147 2.14556C178.175 2.01616 175.562 1.78355 173.34 1.62901C171.118 1.47448 167.482 1.20337 165.26 1.02638C163.039 0.84992 159.403 0.611967 157.181 0.498606C152.673 0.268674 109.035 -0.138783 108.833 0.0473013ZM75.1239 5.70094C75.1239 5.96082 75.5213 6.19128 76.0076 6.21427C76.4939 6.23673 77.3019 6.3378 77.8038 6.43833C78.3204 6.5426 78.6324 6.35705 78.5234 6.01109C78.2981 5.29455 75.1239 5.00527 75.1239 5.70094ZM179.147 15.1346C175.958 15.2939 173.857 15.7222 174.246 16.1334C174.393 16.2896 181.294 16.519 189.581 16.6435C199.939 16.7997 204.278 16.7024 203.465 16.3334C202.814 16.0377 202.085 15.9249 201.844 16.0826C201.603 16.2404 200.962 16.0746 200.417 15.7147C199.633 15.1966 199.268 15.2003 198.661 15.734C198.102 16.2254 197.627 16.2548 196.901 15.8431C196.353 15.5329 194.237 15.2746 192.197 15.2688C190.158 15.2629 187.012 15.1993 185.207 15.1271C183.401 15.0549 180.674 15.0586 179.147 15.1346ZM205.91 16.8676C205.91 17.1617 206.137 17.4023 206.415 17.4023C206.693 17.4023 206.92 17.1617 206.92 16.8676C206.92 16.5735 206.693 16.3329 206.415 16.3329C206.137 16.3329 205.91 16.5735 205.91 16.8676ZM121.328 25.2307C106.074 26.3135 104.699 26.4247 102.392 26.7637C101.142 26.9472 99.0972 27.3215 97.8474 27.5947C96.5976 27.8685 93.0755 28.454 90.0204 28.8968C86.9654 29.339 82.7616 30.0625 80.6786 30.5041C78.5956 30.9464 75.6415 31.5346 74.114 31.811C71.2579 32.3286 67.9534 33.1109 60.4799 35.0391C58.1192 35.6482 54.7107 36.4952 52.9054 36.9208C51.1002 37.347 48.2597 38.0871 46.5933 38.5662C43.6807 39.403 36.342 41.2441 33.7167 41.7965C30.2314 42.5296 27.7869 43.1392 26.6472 43.5589C25.9529 43.815 24.0214 44.3252 22.355 44.6931C20.6886 45.061 18.4162 45.7866 17.3053 46.3058C16.1944 46.825 14.6037 47.5234 13.7706 47.857C11.6911 48.6907 10.3267 49.8457 10.6887 50.466C10.8665 50.7702 12.6005 50.3312 14.9052 49.3986C21.2087 46.8469 31.258 43.2349 33.7167 42.6365C34.9665 42.3323 37.4661 41.7072 39.2713 41.2468C44.2185 39.9853 72.6597 35.0343 83.9608 33.4676C85.905 33.1981 91.1314 32.5987 95.5751 32.1356C100.019 31.672 105.586 31.0635 107.947 30.7833C112.412 30.2523 124.819 29.0984 136.982 28.0824C159.561 26.1969 160.479 26.1066 163.571 25.4628C165.317 25.0991 164.476 24.9885 159.453 24.9211C137.183 24.6232 128.938 24.6901 121.328 25.2307ZM216.514 34.9381C216.514 35.221 216.882 35.7744 217.33 36.169C218.036 36.7893 218.121 36.7497 217.961 35.8776C217.771 34.8381 216.514 34.0226 216.514 34.9381ZM207.733 37.6278C207.554 37.9331 207.655 38.3437 207.955 38.5405C208.706 39.0314 208.971 38.6411 208.471 37.7828C208.202 37.3235 207.942 37.2684 207.733 37.6278ZM216.776 39.2956C216.347 40.7265 216.566 41.0537 217.348 40.1538C217.668 39.7848 217.75 39.1774 217.529 38.7999C217.241 38.3047 217.032 38.4416 216.776 39.2956Z" fill="#FA1317"/>
</svg>
