<svg width="126" height="123" viewBox="0 0 126 123" fill="none" xmlns="http://www.w3.org/2000/svg">
<path d="M41.4651 85.3577C41.8039 85.4353 41.9715 85.6704 41.9677 86.063C41.9771 86.4435 41.8444 86.7357 41.5698 86.9396C41.3215 87.1193 41.0372 87.101 40.7168 86.8849C40.3843 86.6555 40.1941 86.3561 40.1463 85.9867C40.0963 85.6678 39.0028 84.3992 36.8657 82.1809C36.2388 82.9275 35.5841 83.4322 34.9016 83.6951C34.1999 84.4132 33.4912 84.846 32.7754 84.9934C32.0597 85.1408 31.5918 84.817 31.3717 84.0222C31.0884 82.9206 30.6569 81.2743 30.0772 79.0833C29.4986 76.867 29.0677 75.208 28.7844 74.1065C28.4014 77.4989 28.0477 80.9495 27.7232 84.4584L28.0756 85.1194C29.6167 86.7426 30.465 87.6651 30.6204 87.887C30.8122 88.1485 30.9004 88.3106 30.8851 88.3733C30.8424 88.4855 30.7359 88.6078 30.5657 88.74C30.291 88.9439 29.934 88.8466 29.4945 88.448C29.0562 88.0242 28.7854 87.5313 28.6822 86.9695C28.6101 86.5737 28.2576 86.2168 27.6248 85.8988C27.3598 89.4989 27.2 91.7983 27.1455 92.797C27.0708 94.2764 27.1745 95.5795 27.4567 96.7064C27.74 97.808 28.3524 98.7649 29.294 99.5774C29.7951 100.017 30.4419 100.455 31.2345 100.894C32.0149 101.32 32.6351 101.637 33.0952 101.846C33.5563 102.03 34.2914 102.327 35.3006 102.737C35.8244 102.937 36.2107 103.092 36.4594 103.204L37.0949 103.459C40.0212 104.684 42.2314 105.461 43.7255 105.789C44.3284 105.916 44.8491 105.887 45.2876 105.703C45.4859 105.204 45.7289 104.093 46.0166 102.369C46.1332 101.703 46.5964 101.082 47.4061 100.508C47.7905 99.4976 48.5747 98.7765 49.7585 98.3447C50.7104 98.0045 51.4496 98.0545 51.976 98.4947C52.4165 98.8679 52.5686 99.4698 52.4325 100.3C52.2984 101.08 52.105 101.915 51.8523 102.804L52.17 103.387C53.7111 105.011 54.5594 105.933 54.7148 106.155C54.9066 106.416 54.9948 106.579 54.9795 106.641C54.9368 106.754 54.8303 106.876 54.6601 107.008C54.3854 107.212 54.0223 107.108 53.5708 106.696C53.1445 106.286 52.8798 105.799 52.7766 105.237C52.7445 105.097 52.6987 104.981 52.6392 104.89C52.5928 104.786 52.5085 104.681 52.3863 104.575C52.2762 104.482 52.1903 104.415 52.1286 104.374C52.0791 104.347 51.9613 104.285 51.7753 104.188C51.5893 104.092 51.4775 104.036 51.4401 104.022C51.3974 104.134 51.2561 104.483 51.0161 105.069C51.1837 105.304 51.2692 105.529 51.2729 105.745C51.2897 105.948 51.2217 106.059 51.0688 106.078C50.9798 106.087 50.8372 106.011 50.6412 105.851C49.9373 107.228 49.1504 108.317 48.2806 109.116C47.9906 109.383 47.6891 109.624 47.376 109.839C47.1551 109.969 46.8826 110.122 46.5584 110.299C45.794 111.001 44.9425 111.517 44.0038 111.845C44.0522 111.898 44.2885 112.155 44.7127 112.616C45.1368 113.077 45.5186 113.492 45.8579 113.861C46.2093 114.244 46.4214 114.474 46.4941 114.553C46.6859 114.815 46.7741 114.977 46.7588 115.04C46.7161 115.152 46.6096 115.274 46.4393 115.406C46.1647 115.61 45.8016 115.506 45.35 115.095C44.9237 114.684 44.659 114.198 44.5559 113.636C44.4179 113.301 44.2878 113.08 44.1655 112.973C44.0686 112.868 43.8528 112.726 43.5182 112.547C43.1957 112.381 42.9607 112.245 42.8131 112.137C42.2908 112.204 41.802 112.228 41.3466 112.209C41.5779 112.434 41.8048 112.614 42.0271 112.75C42.6447 113.131 42.9809 113.576 43.0355 114.085C43.0766 114.315 43.0141 114.445 42.8481 114.476C42.5972 114.415 42.2663 114.148 41.8554 113.675C41.4565 113.214 41.1148 112.75 40.8304 112.282C40.8183 112.269 40.8001 112.249 40.7758 112.223C40.7769 112.198 40.7714 112.178 40.7593 112.165C40.3809 112.124 40.0976 112.08 39.9094 112.034C37.8236 111.618 34.7457 110.532 30.6759 108.777C28.8589 107.992 27.9008 107.571 27.8018 107.516C27.826 107.543 27.8497 107.582 27.8729 107.633C27.9092 107.673 27.9335 107.699 27.9456 107.713C28.1584 108.076 28.5649 108.505 29.1651 108.999C29.7784 109.481 30.2672 109.761 30.6313 109.84C30.9702 109.917 31.1443 110.146 31.1537 110.527C31.151 110.894 31.0123 111.18 30.7376 111.384C30.4894 111.563 30.205 111.545 29.8847 111.329C29.5643 111.113 29.3802 110.82 29.3323 110.451C29.2823 110.132 28.1888 108.863 26.0517 106.645C24.5657 105.822 23.4006 104.899 22.5566 103.875C21.0998 102.053 20.4491 99.4409 20.6044 96.039C20.6621 94.9643 20.7467 93.8529 20.8582 92.7045C20.9576 91.5429 21.0969 90.1866 21.2759 88.6356C21.4429 87.0714 21.5594 85.9549 21.6254 85.2861C21.8896 82.611 22.2854 78.6109 22.8128 73.2859C23.3412 67.9356 23.7375 63.9229 24.0018 61.2477C24.1386 60.1004 24.6634 59.2164 25.5764 58.5958C26.0236 57.6009 26.749 56.9217 27.7526 56.5583C28.4341 56.3208 29.0615 56.3154 29.6349 56.5422C29.648 56.5301 29.6865 56.519 29.7503 56.509C29.8141 56.4991 29.8586 56.4946 29.8839 56.4956C30.0378 56.4514 30.178 56.4319 30.3045 56.4373C31.1314 56.3579 31.6989 56.7238 32.007 57.535C32.1219 57.8186 32.1845 58.138 32.1949 58.4932L37.0409 77.0945C37.6011 77.3334 37.8713 77.8389 37.8516 78.611L37.8196 80.2822C37.7905 80.6738 37.6399 81.092 37.3679 81.5367C38.1534 82.4439 38.6234 83.0212 38.7777 83.2684C38.9785 83.6189 39.3855 84.0351 39.9988 84.517C40.6122 84.9988 41.1009 85.2791 41.4651 85.3577ZM26.8866 57.7194C26.7943 57.8043 26.6549 57.9568 26.4683 58.177C27.0828 58.0254 27.6267 58.0482 28.1 58.2455C28.1384 58.2344 28.1896 58.2239 28.2533 58.2139C28.3303 58.1918 28.388 58.1752 28.4265 58.1641C28.5804 58.1199 28.6953 58.0994 28.7712 58.1025C29.4827 58.0563 29.9704 58.3619 30.2342 59.0192C30.338 59.2643 30.3951 59.5644 30.4056 59.9197C30.9642 62.0084 31.7829 65.1471 32.8617 69.3358C33.9284 73.5112 34.735 76.6367 35.2815 78.7123C35.8196 78.8743 36.0804 79.3033 36.0638 79.9995C36.076 80.0127 36.0754 80.0254 36.0623 80.0375L36.0425 80.0557C36.1394 80.1611 36.2904 80.3385 36.4953 80.5878C36.7135 80.825 36.8771 81.003 36.9861 81.1216C37.1912 80.7627 37.292 80.4755 37.2883 80.2599L37.3204 78.5887C37.3316 78.019 37.143 77.6817 36.7546 77.5767L36.6044 77.5324L31.6423 58.527C31.6398 58.2862 31.5877 58.0179 31.486 57.7222C31.2685 57.1682 30.8799 56.9175 30.3202 56.9701C30.1805 56.9769 30.0848 56.9919 30.0332 57.0151C29.9694 57.0251 29.8606 57.0522 29.7067 57.0964L29.6094 57.1494L29.5169 57.0885C29.0195 56.8649 28.4938 56.8618 27.9398 57.0794C27.554 57.2152 27.2029 57.4286 26.8866 57.7194ZM48.0767 108.538C48.8685 107.785 49.5895 106.757 50.2397 105.454C50.0458 105.243 49.9009 105.073 49.805 104.942C49.3277 106.354 48.7516 107.552 48.0767 108.538ZM50.6162 104.634C50.785 104.235 50.9055 103.93 50.9777 103.718C50.8313 103.585 50.699 103.414 50.581 103.207C50.4862 103.051 50.4206 102.953 50.3842 102.913L50.0448 104.211C50.0569 104.224 50.0811 104.25 50.1175 104.29C50.1791 104.33 50.2226 104.351 50.2479 104.352C50.26 104.365 50.3828 104.459 50.6162 104.634ZM49.9458 98.8657C49.2642 99.1032 48.7094 99.4918 48.2813 100.031C48.8738 99.8027 49.389 99.7547 49.8269 99.8871C50.2659 99.9942 50.5436 100.323 50.6599 100.872L50.716 100.894C50.8019 100.961 51.0571 101.37 51.4817 102.123C51.6031 101.647 51.7374 101.013 51.8846 100.22C51.987 99.5912 51.8978 99.1503 51.617 98.8978C51.2745 98.6046 50.7174 98.5939 49.9458 98.8657ZM26.5945 92.7929L26.9183 87.7888C26.7049 87.7419 26.3508 87.4229 25.8561 86.832C25.6193 89.4576 25.4465 91.9149 25.3379 94.2037C25.2611 95.7337 25.3759 97.0753 25.6823 98.2285C25.9898 99.3565 26.6265 100.34 27.5923 101.179C27.9591 101.498 28.3643 101.806 28.808 102.104C29.2648 102.389 29.7789 102.67 30.3501 102.948C30.9092 103.212 31.3814 103.434 31.7666 103.615C32.1529 103.771 32.6949 103.99 33.3926 104.273C34.0903 104.555 34.5701 104.747 34.832 104.846C34.9685 104.915 35.3543 105.084 35.9893 105.351C36.6121 105.605 37.0358 105.775 37.2603 105.86C37.4848 105.946 37.865 106.095 38.401 106.307C38.9501 106.508 39.387 106.665 39.7116 106.78C40.0241 106.882 40.412 107 40.8752 107.133C41.3263 107.254 41.7526 107.36 42.1542 107.453C43.4359 107.709 44.3696 107.349 44.9554 106.373C44.6102 106.447 44.1675 106.429 43.6273 106.317C42.0452 105.972 39.7971 105.194 36.8829 103.982L36.249 103.689C36.1246 103.633 35.7444 103.484 35.1083 103.242C32.1183 102.027 30.0605 100.94 28.935 99.9804C27.9075 99.1011 27.2416 98.0595 26.9373 96.8557C26.633 95.6518 26.5187 94.2976 26.5945 92.7929ZM26.9747 86.8979L27.0865 85.5911C26.8156 85.4024 26.6157 85.1849 26.4866 84.9388C26.3818 84.719 26.2435 84.5421 26.0717 84.4082C26.0522 84.5721 26.0289 84.8246 26.0019 85.1655C25.9629 85.4933 25.9396 85.7458 25.9322 85.9229C25.9564 85.9492 25.9867 85.9822 26.0231 86.0217C26.0726 86.0491 26.1161 86.07 26.1535 86.0842C26.5245 86.3025 26.7982 86.5737 26.9747 86.8979ZM27.2649 83.603C27.611 79.8795 27.9925 76.221 28.4093 72.6272C28.334 72.3073 28.2084 71.8269 28.0326 71.186C27.8567 70.545 27.7251 70.058 27.6377 69.7249C26.9008 76.1182 26.4383 80.3499 26.2501 82.42C26.4614 82.5176 26.5853 82.5861 26.6216 82.6257C26.7075 82.6926 26.9219 83.0184 27.2649 83.603ZM35.7873 82.5158C36.0366 82.3108 36.2749 82.0674 36.5021 81.7855C36.4537 81.7328 36.3744 81.6598 36.2642 81.5665C36.1552 81.4479 36.0764 81.3622 36.0279 81.3095C36.039 81.3479 36.049 81.4117 36.0579 81.5008C36.0547 81.5767 36.046 81.6333 36.0318 81.6708C36.0465 81.9248 35.965 82.2065 35.7873 82.5158ZM65.8438 68.0486C65.8923 68.1013 65.9403 68.1667 65.9877 68.2447C66.0361 68.2974 66.072 68.3496 66.0951 68.4012C66.1194 68.4276 66.1436 68.454 66.1679 68.4803C66.3686 68.8308 66.7816 69.2536 67.4071 69.7487C68.0205 70.2306 68.5092 70.5108 68.8734 70.5894C69.2122 70.667 69.3798 70.9021 69.376 71.2947C69.3732 71.6621 69.2346 71.9477 68.9599 72.1516C68.7116 72.3312 68.4273 72.313 68.1069 72.0968C67.7997 71.8685 67.6222 71.5696 67.5743 71.2002C67.5554 71.0473 67.1168 70.4778 66.2585 69.4915C67.5304 74.8159 67.5151 79.1107 66.2125 82.3758C66.0705 83.0414 65.8242 83.7787 65.4735 84.5876C64.8655 86.0953 63.8777 87.4413 62.5103 88.6258C61.1439 89.7849 59.6707 90.4707 58.0906 90.6832C59.2176 91.9089 59.8351 92.5936 59.9431 92.7375C60.1117 92.9473 60.1817 93.0897 60.1532 93.1645C60.0984 93.2636 59.9985 93.3797 59.8535 93.513C59.6042 93.718 59.278 93.641 58.8749 93.282C58.485 92.9108 58.2561 92.4767 58.1882 91.9797C58.0745 91.6709 57.9747 91.483 57.8888 91.416C57.8039 91.3237 57.6185 91.2146 57.3323 91.0886C57.034 90.9493 56.8172 90.8326 56.6818 90.7382C56.4288 90.7276 56.1703 90.6977 55.9063 90.6486C55.5795 90.5843 55.2285 90.4935 54.8533 90.3764C55.1389 90.8192 55.4935 91.1255 55.9172 91.2953C56.1538 91.3939 56.3108 91.5779 56.3882 91.8472C56.4656 92.1166 56.4323 92.3053 56.2884 92.4133C56.1092 92.4564 55.8803 92.3265 55.6016 92.0233C55.336 91.7081 55.0847 91.3554 54.8476 90.9654C54.6701 90.6665 54.4349 90.3842 54.1419 90.1185C51.4643 89.0053 48.9226 86.4659 46.5166 82.5004C44.0512 78.4437 42.2602 73.8641 41.1437 68.7616C40.7826 67.0992 40.5123 65.8398 40.3328 64.9833C40.1543 64.1015 39.9765 62.903 39.7993 61.3877C39.6231 59.8472 39.5782 58.5022 39.6644 57.3527C39.6268 55.8307 39.7331 54.5047 39.9832 53.3748C40.217 52.3329 40.828 51.3575 41.8165 50.4486C42.8181 49.5276 43.8148 49.0246 44.8067 48.9395C46.1032 48.8418 47.0391 49.4892 47.6143 50.8818C47.8075 51.4094 47.7639 51.9968 47.4834 52.6439C47.4132 52.8057 47.2909 53.0033 47.1164 53.2367C47.1032 53.2488 47.1027 53.2615 47.1148 53.2746C47.1269 53.2878 47.1324 53.3071 47.1314 53.3324C47.4698 53.1185 47.9039 52.8896 48.4336 52.6457C50.7438 51.6402 53.0657 51.7185 55.3991 52.8807C56.6274 53.5024 57.8183 54.414 58.9717 55.6154C60.125 56.8168 61.14 58.1455 62.0166 59.6013C62.8811 61.0441 63.6317 62.482 64.2686 63.9152C64.9064 65.3231 65.4315 66.7009 65.8438 68.0486ZM55.1507 53.3645C52.978 52.2977 50.8206 52.2263 48.6785 53.1501C48.1367 53.3808 47.6048 53.6753 47.083 54.0336C46.9463 54.5727 46.6271 55.0851 46.1252 55.5709C45.6365 56.0446 45.1223 56.3715 44.5826 56.5516C44.5905 56.666 44.6023 56.8375 44.618 57.0663C44.6217 57.2818 44.6274 57.4468 44.6353 57.5612C45.5595 56.3708 46.7635 55.4583 48.2472 54.8236C49.8475 54.1305 51.426 53.9559 52.9828 54.2999C54.5396 54.644 55.9589 55.394 57.2409 56.5502C58.5229 57.7063 59.672 59.0089 60.6883 60.458C61.6924 61.8939 62.6077 63.4844 63.4342 65.2296C63.822 65.6514 64.3178 66.217 64.9216 66.9266C64.4686 65.6405 63.9333 64.3573 63.3154 63.0769C62.6854 61.7834 61.9663 60.4989 61.1582 59.2232C60.3379 57.9344 59.4046 56.7739 58.3582 55.7417C57.3117 54.7095 56.2426 53.9171 55.1507 53.3645ZM55.0325 82.4773C52.6614 80.4012 50.5719 77.3486 48.7642 73.3195C48.5155 73.2077 48.1687 73.0158 47.724 72.7437C48.0442 73.5681 48.291 74.1803 48.4643 74.5803C50.3009 78.8261 52.4412 82.0265 54.885 84.1817C56.3509 85.4849 57.6727 86.1422 58.8507 86.1535C60.3332 86.1524 61.2603 85.0445 61.6319 82.83C61.451 83.2152 61.2024 83.5532 60.8861 83.8441C60.3985 84.2925 59.8253 84.5155 59.1665 84.5132C57.9501 84.5129 56.5721 83.8343 55.0325 82.4773ZM61.8098 79.4923L61.8312 79.4362C61.7603 76.2909 61.0802 73.1706 59.7909 70.0756C58.5025 66.9552 56.7859 64.2287 54.641 61.896C52.8596 59.9587 51.3254 58.925 50.0384 58.795L50.7582 60.2127C52.0923 61.6371 52.8315 62.441 52.9759 62.6244C52.988 62.6376 53.0062 62.6574 53.0304 62.6837C53.1869 62.8804 53.2119 63.0398 53.1054 63.162C53.0516 63.2358 52.972 63.3212 52.8666 63.4181C52.6172 63.6231 52.2976 63.54 51.9077 63.1688C51.5178 62.7977 51.2889 62.3636 51.221 61.8666C51.1853 61.5103 50.8934 61.2193 50.3453 60.9936C49.7984 60.7426 49.4553 60.4622 49.3163 60.1522C49.164 59.8544 48.9696 59.6562 48.733 59.5576C48.4964 59.459 48.2748 59.456 48.0681 59.5487L48.0468 59.6048L48.0072 59.6412C47.9866 59.8304 47.9821 60.0899 47.9936 60.4199C48.3187 60.8263 48.6309 61.0865 48.9302 61.2004C49.1668 61.299 49.3238 61.483 49.4012 61.7523C49.4786 62.0217 49.4454 62.2103 49.3015 62.3183C49.0653 62.5112 48.6446 62.1197 48.0393 61.144C48.2207 62.5581 48.788 63.8363 49.7411 64.9786C50.6821 66.1078 51.7792 66.838 53.0324 67.1693C53.6089 67.3202 54.0152 67.6033 54.2512 68.0187C54.4872 68.4341 54.5298 68.93 54.3789 69.5065C54.3156 69.808 54.1418 70.1745 53.8576 70.6061C53.9402 71.3571 53.6296 72.117 52.9258 72.8858C54.4142 74.5574 55.2533 75.5492 55.4429 75.8613C55.6436 76.2118 56.0567 76.6346 56.6822 77.1296C57.2955 77.6115 57.7843 77.8918 58.1484 77.9704C58.4873 78.0479 58.6548 78.283 58.651 78.6757C58.6483 79.043 58.5096 79.3286 58.235 79.5325C57.9867 79.7122 57.7024 79.6939 57.382 79.4778C57.0748 79.2495 56.8972 78.9506 56.8494 78.5811C56.7883 78.2238 55.2635 76.5126 52.275 73.4477C51.6345 73.915 51.0134 74.0727 50.4116 73.9207C50.011 73.8026 49.7172 73.7079 49.5302 73.6367C51.2373 77.3448 53.185 80.1507 55.3733 82.0544C56.8281 83.3192 58.0939 83.9551 59.1706 83.9622C60.7169 83.951 61.5967 82.4611 61.8098 79.4923ZM47.4914 61.064C47.4043 61.6306 47.3905 62.2635 47.4498 62.9629C47.6171 64.4144 48.1696 65.7427 49.1074 66.9477C50.0462 68.1275 51.2226 68.9307 52.6366 69.3575C53.0998 69.4909 53.4273 69.6884 53.6191 69.9498C53.7583 69.6516 53.8361 69.4584 53.8524 69.3704C54.1172 68.4946 53.7985 67.9364 52.8963 67.6958C51.5045 67.346 50.2962 66.5478 49.2714 65.3011C48.2478 64.0291 47.6544 62.6167 47.4914 61.064ZM40.5294 53.4927C40.4398 53.8184 40.3852 54.0632 40.3656 54.2271C40.6846 53.5689 41.1457 52.999 41.7487 52.5175C42.3518 52.0359 42.9632 51.6561 43.5831 51.378C44.203 51.0999 44.8193 51.056 45.4322 51.2464C46.0451 51.4369 46.533 51.8881 46.896 52.6002C46.897 52.575 46.9113 52.5375 46.9387 52.488C46.9661 52.4385 46.9864 52.4076 46.9996 52.3955C47.2342 51.9365 47.2715 51.501 47.1114 51.0888C46.6521 49.9545 45.9078 49.4228 44.8785 49.4937C43.9757 49.5698 43.0762 50.02 42.18 50.844C41.297 51.6559 40.7468 52.5388 40.5294 53.4927ZM66.6097 77.888C66.7611 75.4869 66.4532 72.7054 65.6861 69.5435C65.664 69.4665 65.6319 69.3258 65.5898 69.1213C65.5356 68.9036 65.4919 68.7371 65.4587 68.6216C65.3496 68.503 65.1734 68.3246 64.93 68.0863C64.6997 67.8359 64.524 67.6448 64.4028 67.513C64.9648 68.9177 65.3858 70.2088 65.6659 71.3863C66.2292 73.6653 66.5438 75.8325 66.6097 77.888ZM86.5707 48.9898C86.6192 49.0425 86.6671 49.1079 86.7146 49.1859C86.763 49.2386 86.7988 49.2908 86.822 49.3425C86.8463 49.3688 86.8705 49.3952 86.8947 49.4215C87.0954 49.7721 87.5085 50.1949 88.134 50.6899C88.7473 51.1718 89.2361 51.452 89.6002 51.5306C89.9391 51.6082 90.1066 51.8433 90.1028 52.2359C90.1001 52.6033 89.9614 52.8889 89.6868 53.0928C89.4385 53.2725 89.1542 53.2542 88.8338 53.038C88.5266 52.8097 88.3491 52.5109 88.3012 52.1414C88.2823 51.9886 87.8437 51.419 86.9854 50.4327C88.2573 55.7571 88.242 60.0519 86.9393 63.3171C86.7974 63.9827 86.5511 64.7199 86.2004 65.5288C85.5923 67.0365 84.6046 68.3826 83.2371 69.567C81.8708 70.7261 80.3975 71.4119 78.8174 71.6244C79.9444 72.8501 80.5619 73.5349 80.67 73.6788C80.8385 73.8886 80.9086 74.0309 80.8801 74.1057C80.8253 74.2048 80.7254 74.321 80.5804 74.4543C80.3311 74.6592 80.0049 74.5822 79.6018 74.2232C79.2119 73.852 78.983 73.418 78.9151 72.921C78.8014 72.6121 78.7015 72.4242 78.6157 72.3572C78.5308 72.265 78.3453 72.1558 78.0592 72.0298C77.7609 71.8906 77.5441 71.7738 77.4087 71.6794C77.1557 71.6688 76.8972 71.639 76.6332 71.5899C76.3064 71.5255 75.9554 71.4347 75.5802 71.3176C75.8657 71.7604 76.2204 72.0667 76.644 72.2365C76.8807 72.3352 77.0377 72.5191 77.1151 72.7885C77.1925 73.0578 77.1592 73.2465 77.0153 73.3545C76.8361 73.3977 76.6072 73.2677 76.3284 72.9646C76.0629 72.6493 75.8116 72.2967 75.5745 71.9066C75.397 71.6077 75.1617 71.3254 74.8688 71.0597C72.1912 69.9465 69.6495 67.4071 67.2435 63.4416C64.7781 59.3849 62.9871 54.8053 61.8706 49.7028C61.5095 48.0404 61.2391 46.781 61.0597 45.9245C60.8812 45.0428 60.7034 43.8442 60.5262 42.329C60.35 40.7884 60.305 39.4434 60.3912 38.294C60.3537 36.7719 60.46 35.4459 60.7101 34.316C60.9438 33.2741 61.5549 32.2987 62.5433 31.3899C63.5449 30.4689 64.5417 29.9658 65.5336 29.8807C66.8301 29.783 67.766 30.4304 68.3411 31.823C68.5344 32.3506 68.4908 32.938 68.2102 33.5851C68.1401 33.7469 68.0178 33.9445 67.8433 34.1779C67.8301 34.19 67.8296 34.2027 67.8417 34.2159C67.8538 34.2291 67.8593 34.2483 67.8583 34.2736C68.1967 34.0597 68.6307 33.8308 69.1605 33.5869C71.4707 32.5814 73.7926 32.6598 76.126 33.822C77.3543 34.4437 78.5452 35.3552 79.6985 36.5566C80.8519 37.758 81.8669 39.0867 82.7435 40.5426C83.608 41.9853 84.3586 43.4232 84.9954 44.8564C85.6333 46.2643 86.1584 47.6421 86.5707 48.9898ZM75.8776 34.3057C73.7049 33.239 71.5475 33.1675 69.4054 34.0914C68.8636 34.3221 68.3317 34.6165 67.8099 34.9748C67.6732 35.5139 67.354 36.0264 66.8521 36.5122C66.3634 36.9858 65.8492 37.3127 65.3095 37.4928C65.3173 37.6072 65.3292 37.7788 65.3449 38.0075C65.3485 38.2231 65.3543 38.388 65.3622 38.5024C66.2864 37.3121 67.4904 36.3995 68.9741 35.7649C70.5744 35.0717 72.1529 34.8971 73.7097 35.2412C75.2664 35.5852 76.6858 36.3353 77.9678 37.4914C79.2497 38.6475 80.3989 39.9501 81.4151 41.3992C82.4193 42.8351 83.3346 44.4257 84.1611 46.1709C84.5489 46.5926 85.0446 47.1582 85.6484 47.8678C85.1955 46.5817 84.6601 45.2985 84.0423 44.0182C83.4123 42.7247 82.6932 41.4401 81.885 40.1645C81.0648 38.8757 80.1315 37.7151 79.085 36.6829C78.0386 35.6507 76.9695 34.8583 75.8776 34.3057ZM75.7593 63.4185C73.3882 61.3424 71.2988 58.2898 69.4911 54.2607C69.2423 54.1489 68.8956 53.957 68.4509 53.6849C68.7711 54.5093 69.0178 55.1215 69.1911 55.5216C71.0278 59.7673 73.168 62.9677 75.6119 65.1229C77.0777 66.4261 78.3996 67.0834 79.5775 67.0948C81.0601 67.0936 81.9872 65.9857 82.3588 63.7712C82.1779 64.1564 81.9293 64.4945 81.613 64.7853C81.1254 65.2337 80.5522 65.4567 79.8934 65.4545C78.677 65.4541 77.299 64.7755 75.7593 63.4185ZM82.5367 60.4336L82.5581 60.3774C82.4872 57.2321 81.8071 54.1119 80.5177 51.0168C79.2294 47.8964 77.5128 45.1699 75.3678 42.8372C73.5864 40.8999 72.0523 39.8662 70.7653 39.7363L71.4851 41.1539C72.8192 42.5783 73.5584 43.3822 73.7028 43.5657C73.7149 43.5788 73.733 43.5986 73.7573 43.625C73.9138 43.8216 73.9388 43.981 73.8323 44.1033C73.7785 44.177 73.6989 44.2624 73.5935 44.3593C73.3441 44.5643 73.0245 44.4812 72.6346 44.1101C72.2447 43.7389 72.0158 43.3049 71.9479 42.8079C71.9122 42.4516 71.6203 42.1606 71.0722 41.9349C70.5252 41.6839 70.1822 41.4034 70.0431 41.0934C69.8909 40.7956 69.6965 40.5974 69.4599 40.4988C69.2233 40.4002 69.0016 40.3972 68.795 40.4899L68.7737 40.5461L68.7341 40.5824C68.7135 40.7716 68.709 41.0312 68.7205 41.3611C69.0456 41.7675 69.3578 42.0277 69.6571 42.1416C69.8937 42.2402 70.0507 42.4242 70.1281 42.6935C70.2055 42.9629 70.1723 43.1515 70.0284 43.2596C69.7922 43.4524 69.3715 43.061 68.7661 42.0853C68.9476 43.4993 69.5149 44.7775 70.468 45.9199C71.409 47.049 72.5061 47.7793 73.7593 48.1106C74.3358 48.2614 74.7421 48.5446 74.9781 48.9599C75.2141 49.3753 75.2567 49.8712 75.1058 50.4478C75.0424 50.7492 74.8687 51.1157 74.5845 51.5473C74.6671 52.2983 74.3564 53.0582 73.6527 53.827C75.1411 55.4986 75.9801 56.4904 76.1698 56.8025C76.3705 57.153 76.7836 57.5758 77.409 58.0709C78.0224 58.5527 78.5111 58.833 78.8753 58.9116C79.2142 58.9892 79.3817 59.2243 79.3779 59.6169C79.3752 59.9842 79.2365 60.2699 78.9618 60.4738C78.7136 60.6534 78.4292 60.6351 78.1089 60.419C77.8017 60.1907 77.6241 59.8918 77.5763 59.5224C77.5152 59.165 75.9904 57.4539 73.0019 54.3889C72.3614 54.8562 71.7403 55.0139 71.1384 54.862C70.7379 54.7438 70.4441 54.6491 70.257 54.5779C71.9642 58.2861 73.9119 61.092 76.1002 62.9957C77.555 64.2604 78.8208 64.8963 79.8975 64.9035C81.4438 64.8923 82.3236 63.4023 82.5367 60.4336ZM68.2183 42.0053C68.1312 42.5718 68.1173 43.2048 68.1767 43.9042C68.3439 45.3557 68.8964 46.6839 69.8343 47.889C70.7731 49.0687 71.9495 49.872 73.3634 50.2987C73.8267 50.4322 74.1542 50.6296 74.3459 50.8911C74.4852 50.5928 74.5629 50.3997 74.5793 50.3117C74.8441 49.4358 74.5254 48.8776 73.6232 48.637C72.2314 48.2872 71.0231 47.489 69.9983 46.2423C68.9746 44.9703 68.3813 43.558 68.2183 42.0053ZM61.2563 34.4339C61.1666 34.7596 61.112 35.0044 61.0925 35.1683C61.4115 34.5101 61.8726 33.9403 62.4756 33.4587C63.0787 32.9772 63.6901 32.5973 64.31 32.3192C64.9298 32.0411 65.5462 31.9973 66.1591 32.1877C66.772 32.3781 67.2599 32.8294 67.6229 33.5415C67.6239 33.5162 67.6382 33.4788 67.6656 33.4292C67.693 33.3797 67.7133 33.3489 67.7265 33.3367C67.9611 32.8778 67.9984 32.4422 67.8383 32.03C67.379 30.8957 66.6347 30.364 65.6054 30.4349C64.7026 30.5111 63.8031 30.9612 62.9069 31.7852C62.0239 32.5972 61.4737 33.4801 61.2563 34.4339ZM87.3366 58.8292C87.4879 56.4281 87.1801 53.6466 86.413 50.4847C86.3909 50.4078 86.3588 50.267 86.3167 50.0625C86.2624 49.8448 86.2187 49.6783 86.1856 49.5629C86.0765 49.4443 85.9003 49.2658 85.6568 49.0275C85.4266 48.7771 85.2509 48.586 85.1297 48.4542C85.6917 49.8589 86.1127 51.15 86.3928 52.3275C86.9561 54.6065 87.2707 56.7738 87.3366 58.8292ZM114.85 35.2084C115.759 34.3722 116.645 34.0926 117.508 34.3695C118.196 34.5884 118.614 35.0304 118.764 35.6956C118.968 36.5784 118.64 37.439 117.781 38.2772C118.833 39.4744 119.455 40.2164 119.646 40.5031C119.858 40.8668 120.265 41.2957 120.865 41.7897C121.478 42.2715 121.967 42.5518 122.331 42.6304C122.67 42.708 122.838 42.9304 122.836 43.2978C122.845 43.6783 122.712 43.9705 122.438 44.1744C122.189 44.354 121.905 44.3358 121.585 44.1196C121.264 43.9034 121.08 43.6106 121.032 43.2412C120.972 42.8585 119.691 41.3857 117.188 38.8226C115.711 40.2051 113.503 42.2476 110.564 44.95L111.249 46.2901C112.571 47.7014 113.304 48.4987 113.449 48.6821C113.461 48.6953 113.479 48.7151 113.503 48.7414C113.66 48.9381 113.685 49.0975 113.578 49.2197C113.524 49.2935 113.445 49.3789 113.339 49.4758C113.09 49.6808 112.764 49.6037 112.361 49.2447C111.983 48.8868 111.76 48.4593 111.692 47.9623C111.657 47.606 111.365 47.3023 110.818 47.0513C110.283 46.8135 109.946 46.5396 109.807 46.2297C109.761 46.1264 109.677 46.0088 109.556 45.877L108.647 46.7132C108.901 46.99 109.159 47.1782 109.421 47.2779C109.658 47.3765 109.809 47.5539 109.874 47.81C109.952 48.0794 109.918 48.268 109.774 48.376C109.595 48.4192 109.372 48.2958 109.106 48.0059C108.852 47.7038 108.607 47.3578 108.37 46.9677L107.915 47.3858C107.573 47.7009 106.567 48.5647 104.899 49.9772C104.374 50.4113 103.545 51.1242 102.414 52.1158C102.302 52.6813 101.993 53.2449 101.488 53.8065C100.995 54.3814 100.44 54.7826 99.822 55.0101C99.6326 55.5977 99.2612 56.146 98.7076 56.655C98.4704 56.8731 98.2546 57.0351 98.0601 57.141C97.9952 57.1763 97.9243 57.205 97.8474 57.2271C97.7694 57.2745 97.6853 57.3153 97.5952 57.3496C97.4918 57.3959 97.4144 57.4307 97.3627 57.4539C97.3495 57.466 97.3363 57.4781 97.3232 57.4902C97.3221 57.5155 97.315 57.5342 97.3018 57.5463L97.8462 58.6145C99.1682 60.0257 99.9013 60.8231 100.046 61.0065C100.214 61.2163 100.278 61.3647 100.236 61.4516C100.194 61.5386 100.095 61.6548 99.9364 61.8002C99.6871 62.0051 99.3674 61.922 98.9775 61.5509C98.5866 61.2051 98.3571 60.7837 98.2893 60.2866C98.2535 59.9304 97.9622 59.6267 97.4152 59.3757C96.8682 59.1247 96.5251 58.8442 96.3861 58.5343C96.3629 58.4826 96.321 58.4239 96.2604 58.358C95.7043 58.6261 95.3114 58.7807 95.0816 58.8217C95.4067 59.2281 95.7189 59.4883 96.0182 59.6022C96.2548 59.7008 96.4058 59.8782 96.4711 60.1344C96.5485 60.4037 96.5152 60.5924 96.3713 60.7004C96.122 60.9053 95.6483 60.4167 94.9503 59.2343C94.8312 59.052 94.7414 58.9278 94.6808 58.8619C94.3003 58.8713 93.9735 58.8069 93.7006 58.6688C93.4892 58.5712 93.3064 58.3988 93.152 58.1516C92.9977 57.9044 92.9319 57.6609 92.9546 57.4211C93.0387 56.3222 93.5699 55.2865 94.5484 54.3138C94.4514 54.2084 94.3071 54.025 94.1153 53.7635C93.6733 53.1241 93.6853 52.3834 94.1514 51.5413C92.7409 48.3144 90.8599 43.1608 88.5086 36.0806C86.1451 28.9872 84.1506 23.6704 82.5251 20.1305C82.0556 19.5406 81.7125 18.8103 81.4956 17.9396C81.365 17.4273 81.4576 16.88 81.7735 16.2977C82.0772 15.7022 82.5037 15.2006 83.053 14.7928C83.5792 13.7252 84.3573 12.9975 85.3872 12.6099C86.4941 12.2002 87.3112 12.5068 87.8385 13.53C87.908 13.6849 88.0244 13.9305 88.1877 14.2668C88.3521 14.5778 88.4751 14.8174 88.5567 14.9855L88.6081 15.1207C88.8141 15.3448 88.9843 15.5166 89.1186 15.6363C89.6076 16.0623 89.7674 16.6328 89.5981 17.348C90.4977 19.4637 91.2893 21.4356 91.9729 23.2635C92.7306 23.9288 93.3229 24.3084 93.7498 24.4024C94.0887 24.4799 94.2562 24.715 94.2524 25.1077C94.2497 25.475 94.111 25.7606 93.8363 25.9645C93.5364 26.1673 93.2157 26.1095 92.8743 25.7911C93.4752 27.4762 94.1967 29.6098 95.0387 32.192C97.379 39.2338 99.3432 44.5175 100.931 48.0433L102.75 46.3709L103.719 45.4802C109.9 39.7967 113.603 36.3788 114.83 35.2265L114.85 35.2084ZM94.5193 32.3413C93.2233 28.4983 92.24 25.6568 91.5696 23.8168C90.578 22.6855 89.5595 21.5911 88.5142 20.5336C89.6645 23.3188 91.354 28.0525 93.5827 34.7348C95.8113 41.4171 97.7087 46.4827 99.2746 49.9315L100.619 48.6954L100.584 48.6179C98.9486 45.0142 96.927 39.5886 94.5193 32.3413ZM84.4422 13.8437C84.3631 13.9164 84.2435 14.0508 84.0832 14.2468C84.9813 13.9803 85.6411 14.2614 86.0625 15.09C86.4133 15.789 86.6699 16.3192 86.8321 16.6808C87.0624 16.9312 87.2507 17.1229 87.3972 17.2557C87.776 17.5884 87.923 18.0127 87.838 18.5286C89.5203 20.4111 90.5533 21.6138 90.9368 22.1367C90.1373 20.0505 89.5119 18.4974 89.0605 17.4775L89.0257 17.4L89.0684 17.2878C89.2051 16.7486 89.1021 16.3325 88.7596 16.0394C88.6132 15.9065 88.4127 15.7017 88.1582 15.425L88.1218 15.3854L88.0523 15.2305L87.372 13.7765C86.9991 13.0006 86.4065 12.7793 85.5942 13.1127C85.2084 13.2486 84.8244 13.4923 84.4422 13.8437ZM97.9321 56.5654C98.153 56.4353 98.3831 56.2359 98.6224 55.9672C98.4016 56.0973 98.2142 56.1845 98.0603 56.2287L97.9321 56.5654ZM100.413 54.0656C101.027 53.6225 101.475 53.0647 101.756 52.3923C101.494 52.6094 101.119 52.9421 100.631 53.3905C100.584 53.6039 100.511 53.8289 100.413 54.0656ZM116.785 38.4636L116.805 38.4454L116.787 38.4256L116.785 38.4636ZM118.226 35.8251C118.132 35.3523 117.835 35.0421 117.334 34.8944C116.733 34.7171 116.065 34.9299 115.331 35.5326L115.785 36.0268C116.462 36.2072 116.849 36.6416 116.947 37.3299L117.419 37.8439C118.107 37.1632 118.376 36.4902 118.226 35.8251Z" fill="#FA1317"/>
</svg>
